<?xml version="1.0" standalone="no"?>
<!DOCTYPE svg PUBLIC "-//W3C//DTD SVG 20010904//EN"
 "http://www.w3.org/TR/2001/REC-SVG-20010904/DTD/svg10.dtd">
<svg version="1.0" xmlns="http://www.w3.org/2000/svg"
 width="510.000000pt" height="510.000000pt" viewBox="0 0 510.000000 510.000000"
 preserveAspectRatio="xMidYMid meet">
<metadata>
Created by potrace 1.11, written by Peter Selinger 2001-2013
</metadata>
<g transform="translate(0.000000,510.000000) scale(0.100000,-0.100000)"
fill="#000000" stroke="none">
<path d="M3560 4730 c0 -5 -6 -7 -14 -4 -16 6 -52 -78 -41 -95 4 -7 1 -10 -7
-9 -7 2 -13 -6 -13 -19 0 -12 -5 -26 -9 -30 -5 -4 -6 -2 -2 5 4 6 2 12 -3 12
-10 0 -12 -6 -15 -42 -1 -7 -4 -15 -8 -18 -4 -3 -9 -15 -11 -25 -2 -11 -9 -33
-16 -50 -6 -16 -14 -36 -16 -43 -3 -7 -9 -10 -15 -7 -6 3 -7 -1 -4 -9 3 -9 2
-16 -4 -16 -5 0 -17 -21 -26 -47 -23 -63 -49 -117 -59 -121 -4 -2 -5 -8 -1
-13 3 -5 1 -9 -4 -9 -5 0 -15 -19 -23 -42 -7 -24 -22 -57 -32 -75 -10 -18 -16
-37 -12 -43 4 -6 1 -9 -6 -8 -7 2 -14 -3 -15 -9 -1 -7 -3 -16 -4 -20 -1 -5 -2
-11 -1 -15 0 -5 -3 -8 -8 -8 -5 0 -12 -11 -15 -25 -4 -14 -11 -25 -16 -25 -6
0 -10 -8 -10 -18 0 -10 -7 -28 -16 -40 -8 -12 -13 -22 -9 -22 7 0 -26 -53 -40
-62 -6 -5 -6 -8 2 -8 9 0 7 -7 -5 -20 -9 -12 -16 -24 -16 -28 1 -4 -7 -18 -17
-31 -11 -13 -19 -32 -19 -42 0 -11 -4 -19 -10 -19 -5 0 -10 -7 -10 -15 0 -8
-5 -15 -11 -15 -5 0 -7 -4 -4 -10 3 -5 -1 -21 -10 -34 -9 -14 -14 -29 -11 -34
3 -5 -6 -20 -20 -33 -13 -12 -22 -29 -20 -36 3 -7 1 -13 -4 -13 -6 0 -10 -7
-10 -15 0 -8 -6 -15 -14 -15 -8 0 -13 -8 -12 -17 2 -10 -3 -27 -11 -39 -7 -11
-10 -24 -6 -29 5 -4 3 -5 -4 -1 -6 3 -14 2 -18 -4 -4 -7 -13 -6 -28 1 -23 13
-254 15 -367 5 -36 -4 -76 -8 -89 -9 -15 -1 -28 5 -35 18 -6 11 -17 24 -25 29
-11 7 -11 10 0 17 10 6 5 9 -15 9 -29 0 -29 1 -10 16 10 8 14 13 8 10 -7 -3
-15 1 -18 10 -4 9 -2 13 5 8 6 -3 3 5 -6 20 -10 15 -15 30 -11 33 3 4 -4 18
-16 31 -13 14 -17 22 -10 17 11 -6 12 -3 3 14 -7 11 -16 21 -21 21 -6 0 -10
11 -10 25 0 14 -4 25 -8 25 -4 0 -13 12 -19 28 -7 15 -17 34 -22 42 -5 8 -17
32 -26 53 -9 20 -20 37 -25 37 -5 0 -7 6 -4 13 3 8 -2 20 -11 27 -13 11 -15
10 -9 -6 4 -10 4 -16 0 -13 -4 4 -9 16 -11 28 -9 45 -17 61 -31 61 -8 0 -13 4
-10 9 3 4 -3 16 -14 26 -10 9 -16 23 -13 31 3 8 -1 14 -11 14 -11 0 -16 9 -16
26 0 15 -10 35 -22 45 -11 11 -18 19 -14 19 6 0 -1 10 -30 43 -6 7 -10 20 -8
30 2 14 -3 17 -19 13 -12 -3 -16 -3 -9 0 17 8 15 24 -2 24 -8 0 -18 5 -22 12
-5 7 -2 9 7 4 8 -4 6 -1 -3 7 -10 8 -15 17 -11 20 3 4 -2 9 -11 13 -9 3 -13
10 -10 16 3 5 -7 21 -23 35 -15 14 -22 22 -14 17 8 -4 3 8 -12 28 -15 19 -24
38 -20 41 3 4 1 7 -5 7 -6 0 -9 7 -6 15 5 13 -6 20 -28 16 -4 0 -5 6 -2 14 4
8 -1 17 -10 21 -9 3 -16 12 -16 20 0 21 -41 44 -60 34 -10 -5 -20 -6 -24 -3
-3 3 -6 1 -6 -6 0 -8 -9 -12 -22 -9 -20 4 -23 0 -26 -32 -1 -25 4 -43 18 -58
12 -12 16 -22 11 -22 -5 0 4 -15 21 -34 16 -19 30 -38 30 -43 0 -4 4 -13 9
-20 6 -6 12 -24 15 -39 3 -16 10 -34 16 -41 6 -7 7 -13 2 -13 -4 0 2 -9 14
-21 12 -11 20 -24 17 -30 -4 -5 -2 -9 3 -9 9 0 25 -37 23 -52 -1 -5 7 -8 16
-8 15 0 16 -2 3 -10 -11 -7 -11 -10 -2 -10 7 0 11 -4 8 -9 -3 -5 1 -14 9 -21
8 -7 15 -21 15 -31 0 -11 4 -19 9 -19 5 0 13 -10 16 -22 12 -39 30 -78 36 -78
6 0 15 -20 45 -90 1 -3 5 -15 9 -27 4 -13 14 -23 22 -23 8 0 12 -4 9 -9 -4 -5
0 -11 6 -13 7 -3 13 -13 13 -24 0 -11 6 -18 14 -16 12 3 12 1 0 -14 -8 -10 -9
-15 -3 -11 7 4 18 -1 25 -10 10 -12 10 -14 2 -9 -21 12 -15 -8 6 -23 11 -8 18
-22 16 -32 -2 -9 3 -20 11 -23 7 -3 11 -12 8 -20 -4 -9 5 -20 23 -30 15 -8 22
-15 15 -16 -7 0 -10 -5 -7 -10 4 -6 11 -7 17 -4 7 4 8 2 4 -4 -7 -11 19 -60
38 -74 5 -3 11 -16 13 -29 2 -12 11 -28 21 -36 10 -9 11 -11 2 -7 -12 7 -13 5
-2 -8 10 -13 9 -18 -4 -29 -10 -8 -19 -13 -21 -11 -8 6 -82 -11 -78 -18 3 -5
-4 -6 -15 -3 -11 3 -20 1 -20 -5 0 -5 -7 -13 -16 -16 -9 -3 -12 -2 -8 5 4 7 1
7 -12 0 -35 -20 -137 -50 -147 -44 -6 3 -7 1 -4 -4 4 -6 -12 -15 -38 -22 -25
-6 -45 -16 -45 -23 0 -6 -3 -9 -6 -5 -8 8 -64 -13 -64 -25 0 -5 -4 -6 -10 -3
-5 3 -10 2 -10 -4 0 -6 -7 -8 -15 -5 -8 4 -15 1 -15 -5 0 -7 -13 -17 -29 -22
-16 -6 -32 -17 -35 -25 -3 -9 -10 -13 -15 -10 -16 10 -63 -13 -55 -26 4 -7 4
-10 -1 -6 -4 4 -15 2 -23 -5 -13 -9 -14 -9 -8 1 10 17 3 15 -22 -7 -12 -10
-18 -22 -14 -26 4 -5 2 -5 -5 -1 -6 3 -15 1 -18 -5 -4 -5 -14 -8 -22 -4 -14 5
-14 3 -2 -12 9 -11 10 -14 2 -9 -8 4 -13 2 -13 -4 0 -6 -5 -8 -12 -4 -7 5 -9
2 -5 -9 4 -11 2 -14 -8 -11 -15 6 -57 -25 -49 -37 2 -4 -5 -10 -16 -14 -11 -3
-20 -11 -20 -16 0 -6 -4 -8 -8 -5 -5 3 -16 -9 -26 -25 -10 -17 -23 -28 -29
-26 -7 2 -22 -7 -34 -20 -12 -12 -27 -23 -33 -23 -5 0 -9 -4 -8 -9 4 -15 -35
-71 -49 -71 -7 0 -13 -4 -13 -10 0 -5 -10 -10 -22 -11 -13 0 -17 -3 -10 -6 15
-6 16 -24 0 -20 -7 1 -17 -13 -23 -31 -6 -18 -16 -33 -21 -33 -8 1 -8 -15 -4
-99 1 -8 6 -36 12 -62 9 -44 17 -53 41 -49 5 1 6 -3 2 -9 -7 -12 44 -57 59
-52 5 2 3 -4 -4 -13 -11 -13 -10 -15 4 -9 9 3 16 1 16 -6 0 -6 5 -8 12 -4 8 5
9 2 5 -10 -5 -13 -3 -17 7 -13 7 3 13 0 13 -6 -1 -37 4 -49 18 -43 9 3 15 0
15 -8 0 -8 7 -17 16 -20 8 -3 12 -11 8 -17 -4 -8 -3 -9 4 -5 7 4 12 2 12 -4 0
-7 7 -10 15 -6 9 3 25 -8 42 -29 16 -19 33 -35 40 -35 7 0 10 -6 7 -14 -3 -9
3 -17 15 -21 12 -3 18 -11 15 -17 -4 -6 -2 -8 4 -5 5 4 18 4 27 1 13 -5 14 -8
3 -15 -9 -6 -6 -9 11 -9 18 0 22 -4 17 -17 -4 -10 -4 -14 0 -11 3 4 24 -2 46
-13 22 -11 49 -19 58 -16 13 3 17 0 13 -9 -3 -9 1 -14 12 -14 9 0 14 -4 11 -9
-3 -5 9 -14 27 -21 17 -6 40 -16 49 -21 10 -5 29 -9 43 -9 14 0 25 -5 25 -11
0 -8 5 -7 15 1 13 11 14 10 9 -4 -5 -12 -2 -15 10 -10 9 3 16 1 16 -5 0 -6 11
-11 24 -11 13 0 26 -5 28 -12 2 -6 14 -12 26 -13 11 -1 19 2 16 7 -7 11 48
-14 64 -29 17 -17 25 -17 16 0 -6 9 -4 9 7 1 8 -6 26 -11 41 -10 14 1 24 -2
22 -6 -5 -7 18 -12 39 -9 4 0 8 -2 8 -6 6 -34 5 -53 -2 -53 -5 0 -9 -6 -9 -14
0 -8 -8 -17 -17 -20 -13 -5 -14 -9 -5 -15 9 -5 6 -14 -10 -31 -12 -13 -23 -35
-25 -49 -4 -43 -9 -60 -18 -68 -4 -4 -5 -2 0 6 6 10 4 12 -4 7 -7 -4 -10 -13
-8 -19 6 -17 -12 -49 -23 -42 -6 3 -7 0 -4 -8 3 -8 -2 -21 -11 -30 -9 -10 -11
-18 -5 -22 5 -3 10 -12 9 -18 0 -9 -2 -8 -6 1 -2 6 -9 10 -13 7 -5 -3 -6 -13
-3 -22 5 -12 3 -14 -6 -8 -10 5 -11 2 -6 -14 5 -18 3 -22 -10 -19 -11 2 -19
-4 -20 -14 -2 -10 2 -18 7 -18 6 0 1 -8 -10 -19 -12 -10 -22 -26 -22 -35 0 -9
-5 -16 -12 -16 -9 0 -9 -3 0 -12 9 -9 7 -17 -9 -34 -11 -12 -21 -31 -22 -43
-1 -11 -4 -21 -8 -21 -4 0 -10 -7 -13 -16 -4 -9 -2 -13 5 -8 7 4 7 -1 -1 -15
-6 -12 -18 -25 -26 -28 -9 -3 -14 -13 -11 -24 3 -11 1 -16 -4 -13 -5 3 -12 -9
-15 -26 -4 -17 -15 -35 -26 -41 -11 -6 -17 -17 -14 -24 3 -8 1 -17 -5 -20 -5
-4 -7 -10 -4 -15 3 -5 0 -12 -6 -15 -5 -4 -8 -13 -5 -21 3 -8 2 -14 -2 -14 -4
0 -13 -9 -20 -21 -8 -12 -9 -18 -4 -15 12 7 10 -20 -3 -31 -4 -4 -5 -2 0 6 6
10 4 12 -4 7 -6 -4 -9 -16 -6 -26 3 -11 0 -20 -10 -24 -8 -3 -15 -9 -14 -13 3
-20 -2 -34 -11 -28 -5 3 -10 2 -10 -4 0 -5 6 -12 13 -14 7 -3 5 -6 -5 -6 -10
-1 -18 -6 -18 -12 0 -5 6 -7 13 -4 6 4 4 0 -7 -9 -10 -8 -16 -21 -13 -29 3 -8
-5 -25 -17 -38 -12 -13 -20 -32 -18 -43 2 -10 0 -16 -5 -13 -5 3 -9 -4 -8 -16
1 -12 -7 -29 -18 -38 -16 -12 -17 -18 -7 -24 9 -6 11 -4 5 6 -5 8 -4 11 1 6 5
-5 9 -16 9 -25 0 -9 7 -17 15 -17 8 0 18 -5 22 -11 4 -6 19 -10 33 -9 17 2 25
-2 25 -11 0 -9 5 -12 10 -9 7 4 6 14 -1 28 -10 21 -10 21 8 -1 15 -18 21 -20
32 -10 11 10 12 10 7 1 -5 -8 -1 -13 9 -13 12 0 15 6 10 23 -5 17 -4 19 5 7 9
-13 12 -12 22 5 7 11 13 30 14 42 3 26 23 65 24 45 0 -7 5 -10 10 -7 6 4 8 11
5 16 -4 5 -1 9 5 9 7 0 10 6 7 13 -2 6 2 24 9 38 7 15 10 30 6 34 -4 5 1 5 11
2 11 -4 16 -3 12 3 -3 6 -3 16 2 23 8 13 9 18 11 55 1 13 6 20 12 17 7 -4 9 3
6 19 -3 14 -2 25 2 25 19 -3 28 3 29 19 3 40 23 93 32 88 4 -3 8 1 8 9 0 22
35 95 46 95 5 0 7 7 3 15 -3 8 -1 15 5 15 6 0 8 4 5 9 -4 5 -2 11 4 13 6 2 12
14 15 27 2 13 14 30 25 38 11 8 20 20 20 26 0 7 -4 6 -10 -3 -5 -8 -10 -12
-10 -7 0 4 11 25 25 47 16 26 21 40 13 40 -8 0 -5 5 5 11 9 5 17 18 17 27 1
23 25 53 36 44 4 -4 2 1 -5 11 -7 9 -9 17 -4 17 10 0 48 70 45 83 -1 4 3 7 8
7 5 0 9 3 8 8 -3 14 15 47 36 65 12 10 15 16 7 12 -9 -5 -9 -1 3 17 9 14 13
28 9 33 -5 4 -2 5 5 1 6 -4 12 -2 12 4 0 6 3 9 8 7 4 -3 8 14 10 36 2 28 9 47
23 57 15 12 17 18 7 28 -9 9 -9 12 0 12 7 0 12 8 12 19 0 23 19 28 85 24 81
-4 150 -10 150 -13 0 -3 67 -12 93 -12 12 0 22 -3 22 -7 0 -4 16 -8 37 -9 20
-2 40 -5 44 -8 4 -2 12 3 17 12 7 12 25 17 63 19 30 1 57 -3 60 -7 3 -5 19 -4
35 2 15 6 47 13 69 16 39 4 61 8 138 19 28 5 39 3 43 -9 3 -9 10 -13 15 -10 5
3 6 -2 3 -10 -3 -9 1 -23 10 -32 9 -8 14 -20 11 -25 -4 -5 -2 -9 3 -9 6 0 19
-16 31 -36 12 -19 15 -32 9 -29 -7 4 -5 0 5 -8 9 -8 17 -22 17 -31 0 -10 5
-14 10 -11 6 3 11 1 11 -4 1 -6 2 -16 3 -21 0 -6 7 -14 14 -19 7 -4 14 -18 15
-29 1 -12 5 -22 9 -22 4 0 8 -6 8 -14 0 -8 6 -21 14 -28 7 -8 17 -24 20 -36 4
-12 12 -22 17 -22 5 0 9 -12 9 -27 1 -30 20 -63 38 -63 5 0 8 -9 5 -20 -4 -16
-2 -19 11 -14 12 5 15 2 10 -10 -4 -10 -1 -16 7 -16 7 0 9 -3 6 -7 -4 -3 1
-12 11 -20 10 -9 11 -12 2 -7 -10 5 -9 1 3 -14 11 -12 16 -26 11 -33 -4 -8 -3
-10 4 -5 7 4 12 1 12 -8 0 -9 4 -16 8 -16 5 0 17 -7 28 -16 10 -8 13 -13 7 -9
-7 3 -13 1 -13 -4 0 -6 5 -11 11 -11 7 0 9 -9 5 -24 -4 -18 2 -32 28 -58 37
-38 61 -77 52 -85 -3 -3 2 -12 10 -20 8 -8 11 -19 8 -25 -4 -6 -3 -9 2 -6 9 6
26 -8 35 -27 2 -5 8 -9 13 -7 5 2 6 -4 3 -13 -4 -8 -2 -15 3 -15 6 0 10 -5 10
-11 0 -7 10 -20 22 -30 12 -11 16 -19 8 -19 -7 0 -1 -12 13 -26 15 -15 24 -30
22 -35 -3 -4 7 -19 22 -33 15 -14 24 -26 19 -26 -5 0 6 -13 25 -29 31 -28 35
-29 51 -14 10 9 21 13 25 10 10 -11 63 76 54 87 -5 6 -5 20 -1 30 6 19 -2 35
-42 78 -10 10 -15 18 -11 18 4 0 -2 7 -13 15 -10 8 -15 15 -10 15 4 0 1 11 -8
25 -9 14 -14 25 -11 25 4 0 0 7 -7 15 -30 34 -38 45 -31 45 4 0 -2 7 -13 15
-14 11 -16 15 -4 15 12 0 11 3 -2 11 -10 5 -18 16 -18 24 0 8 -9 19 -20 25
-11 6 -18 15 -16 19 8 12 -28 76 -57 104 -15 13 -27 29 -27 36 0 6 -6 11 -12
11 -9 0 -8 4 2 10 13 8 13 10 -2 10 -9 0 -20 5 -24 12 -5 7 -3 8 6 3 8 -5 4 6
-8 23 -13 17 -27 34 -33 37 -5 4 -7 11 -4 16 4 5 -1 9 -10 9 -9 0 -13 5 -10
10 3 5 1 10 -4 10 -6 0 -10 3 -9 7 4 15 -13 53 -23 53 -6 0 -8 4 -4 9 3 5 1
12 -4 16 -6 3 -20 25 -32 50 -12 24 -27 41 -32 38 -6 -3 -7 -1 -3 6 4 6 0 18
-8 27 -9 8 -16 22 -16 30 0 8 -4 14 -10 14 -5 0 -10 5 -10 10 0 6 -16 34 -35
63 -19 28 -35 55 -35 59 0 4 -14 27 -31 53 -27 39 -29 47 -16 60 8 8 17 12 20
9 7 -7 87 27 87 37 0 5 3 8 8 8 17 -3 72 14 72 23 0 5 6 8 13 7 6 -1 33 7 60
19 26 12 49 20 51 19 2 -1 14 9 26 23 12 14 19 18 15 10 -5 -13 -4 -12 7 1 7
8 42 26 78 39 36 13 67 26 70 29 11 13 125 73 142 75 4 1 14 10 23 21 9 11 14
14 10 7 -10 -20 2 -14 32 16 15 16 34 27 41 24 7 -2 12 0 11 5 -3 17 1 36 7
30 3 -3 19 8 36 25 16 16 27 32 24 35 -3 3 10 18 30 34 19 15 35 30 35 33 -3
25 0 30 8 17 7 -11 10 -9 13 10 2 14 9 23 17 21 8 -2 11 3 8 12 -3 8 1 17 10
20 8 4 13 13 9 21 -3 9 3 24 14 35 21 21 27 35 11 25 -5 -3 -13 -1 -16 5 -4 6
-3 10 2 9 4 -1 16 1 26 6 17 7 17 8 0 22 -10 8 -13 12 -6 9 6 -4 13 0 16 6 7
23 -5 48 -23 48 -21 0 -33 36 -19 61 5 10 9 22 9 27 0 10 -38 25 -54 23 -5 -1
-4 5 4 13 11 15 7 20 -12 17 -5 0 -8 6 -8 15 0 8 -4 12 -10 9 -5 -3 -10 1 -10
9 0 14 -11 20 -31 18 -3 -1 -4 10 -1 23 2 14 0 25 -7 25 -5 0 -8 -8 -5 -17 5
-15 4 -15 -4 -3 -7 9 -7 19 -2 26 7 7 1 19 -17 35 -14 13 -23 17 -19 9 5 -9 2
-8 -7 2 -8 10 -17 15 -20 11 -4 -3 -7 5 -8 18 0 13 -3 18 -6 11 -4 -9 -10 -7
-22 7 -10 12 -21 18 -25 14 -3 -3 -6 4 -6 16 0 12 -4 19 -10 16 -5 -3 -10 1
-10 9 0 10 -6 13 -15 10 -11 -5 -13 -2 -8 12 5 13 3 16 -10 11 -9 -3 -19 -2
-22 4 -4 5 -10 7 -15 4 -4 -3 -13 2 -20 9 -6 8 -20 13 -31 11 -11 -2 -17 0
-14 6 4 5 11 7 16 4 5 -4 9 -1 9 4 0 6 -8 11 -17 11 -24 1 -55 25 -45 36 4 4
0 3 -9 -4 -21 -16 -50 -5 -42 16 5 11 2 14 -10 9 -8 -3 -21 0 -27 8 -6 8 -18
11 -26 8 -8 -3 -14 1 -14 9 0 8 -16 19 -37 24 -21 5 -37 15 -35 22 1 7 -7 12
-17 12 -11 0 -23 5 -27 11 -3 6 -17 9 -30 6 -13 -2 -21 0 -18 4 3 5 -1 10 -8
11 -23 2 -32 5 -50 12 -9 4 -22 5 -28 1 -5 -3 -10 -1 -10 5 0 6 -4 8 -10 5 -5
-3 -10 -2 -10 3 0 6 -6 10 -12 9 -34 -1 -49 4 -42 14 4 8 0 8 -15 0 -17 -10
-22 -9 -27 4 -5 13 -9 13 -22 3 -12 -10 -14 -10 -8 0 4 7 2 12 -5 12 -7 0 -21
8 -32 18 -12 10 -17 11 -12 3 6 -10 4 -12 -6 -5 -16 10 -33 14 -72 16 -15 0
-30 4 -32 9 -3 4 -14 5 -25 2 -11 -3 -20 0 -20 6 0 6 -7 11 -15 11 -22 0 -18
20 8 48 12 14 16 22 10 18 -7 -4 -13 -2 -13 3 0 6 4 11 9 11 9 0 36 56 30 63
-2 2 4 11 14 21 9 10 15 22 12 27 -4 5 -1 9 5 9 6 0 9 4 6 9 -3 5 1 12 9 15 8
3 14 9 13 13 -3 12 43 103 52 103 5 0 7 8 5 18 -1 9 2 23 8 30 5 6 6 12 2 12
-5 0 -1 8 7 18 9 9 22 33 30 52 8 19 21 49 28 65 7 17 15 37 16 45 2 8 8 16
13 18 6 2 11 11 11 21 0 9 5 22 12 29 7 7 9 12 4 12 -4 0 0 12 8 28 13 24 28
59 30 72 1 3 17 32 37 65 20 33 39 72 43 88 3 15 10 27 15 27 5 0 15 22 22 50
7 27 17 47 21 43 5 -3 8 1 7 8 -3 19 12 69 20 69 11 0 67 127 76 170 4 19 13
38 19 42 8 5 7 8 -2 8 -11 0 -10 3 1 14 8 9 14 32 13 58 -1 36 -4 42 -20 40
-12 -2 -16 1 -11 10 6 10 5 11 -6 1 -15 -15 -33 -17 -25 -4 3 5 -1 11 -9 15
-8 3 -15 1 -15 -4z m-988 -1499 c-4 -11 -7 -12 -10 -2 -3 9 -7 8 -16 -4 -10
-15 -12 -14 -12 4 0 15 6 20 22 19 15 -2 20 -7 16 -17z m115 2 c0 -8 -6 -9
-15 -4 -8 5 -24 7 -36 4 -20 -3 -20 -3 -1 6 27 12 52 10 52 -6z m-214 0 c-7
-2 -19 -2 -25 0 -7 3 -2 5 12 5 14 0 19 -2 13 -5z m250 -28 c-3 -9 -8 -14 -10
-11 -3 3 -2 9 2 15 9 16 15 13 8 -4z m-55 -6 c-20 -11 -25 -49 -6 -49 6 0 9
-3 5 -6 -3 -3 -12 -2 -19 2 -19 12 -37 14 -43 4 -3 -5 -13 -6 -22 -3 -11 4
-14 3 -9 -5 4 -7 2 -12 -3 -12 -6 0 -11 -4 -11 -10 0 -5 6 -9 13 -7 6 1 11 -4
10 -10 -3 -15 33 -17 42 -3 4 6 11 7 17 4 8 -5 9 -1 4 12 -5 14 -4 16 5 7 13
-13 3 -37 -12 -28 -5 4 -9 1 -9 -4 0 -6 -6 -11 -14 -11 -8 0 -22 -10 -30 -22
-9 -12 -16 -18 -16 -12 0 5 5 15 12 22 9 9 9 12 -1 12 -7 0 -11 6 -8 14 4 10
1 13 -8 9 -8 -3 -12 -9 -9 -14 3 -5 1 -9 -4 -9 -6 0 -13 7 -16 16 -3 8 -2 12
4 9 9 -5 15 15 11 38 0 4 5 8 12 9 13 1 28 4 40 8 4 1 12 3 17 4 14 1 30 28
24 38 -3 4 5 8 18 8 20 -1 21 -2 6 -11z m-129 -40 c-24 -15 -30 -10 -11 9 9
10 19 14 21 9 2 -5 -3 -13 -10 -18z m36 21 c3 -5 1 -10 -4 -10 -6 0 -11 5 -11
10 0 6 2 10 4 10 3 0 8 -4 11 -10z m117 -8 c-7 -2 -9 -9 -5 -15 3 -7 2 -8 -2
-4 -16 14 -14 36 3 29 10 -4 12 -7 4 -10z m-606 -7 c-1 -9 -23 -33 -48 -53
-28 -24 -44 -44 -42 -56 3 -19 -19 -49 -29 -40 -6 6 -60 -105 -60 -123 0 -10
-3 -10 -15 0 -13 11 -14 9 -2 -13 12 -23 12 -24 -4 -11 -14 12 -16 12 -10 -4
6 -14 4 -16 -7 -10 -11 7 -12 6 -2 -6 9 -11 7 -19 -7 -36 -9 -12 -21 -19 -25
-15 -5 4 -4 0 1 -8 12 -21 14 -41 3 -34 -5 3 -6 10 -3 16 5 7 2 8 -5 4 -7 -5
-10 -14 -7 -22 3 -8 1 -26 -4 -40 -7 -19 -7 -23 2 -18 6 4 4 -3 -5 -16 -12
-17 -14 -28 -6 -43 8 -14 8 -17 0 -13 -7 5 -10 -2 -10 -16 1 -13 0 -30 -2 -38
-2 -9 2 -14 10 -12 11 2 12 0 3 -10 -14 -17 -9 -71 7 -76 6 -2 11 -8 11 -13 0
-6 -5 -7 -11 -4 -9 6 -8 -29 4 -90 3 -11 -1 -26 -7 -34 -8 -11 -8 -13 1 -7 9
5 11 -1 7 -22 -4 -20 -1 -34 11 -45 10 -11 12 -17 4 -17 -9 0 -8 -4 1 -15 7
-8 9 -15 5 -15 -4 0 -2 -7 5 -15 10 -12 10 -15 0 -15 -7 0 -4 -7 7 -17 10 -10
13 -14 6 -9 -10 6 -12 5 -8 -6 4 -9 16 -20 28 -26 12 -6 16 -11 10 -11 -18 -1
-16 -28 2 -39 9 -4 17 -18 18 -30 1 -25 8 -27 24 -11 9 9 10 4 7 -19 -3 -18 0
-33 7 -38 8 -5 9 -3 4 6 -5 9 -4 11 4 6 9 -6 9 -11 -1 -24 -11 -13 -11 -14 1
-7 11 6 13 4 8 -8 -4 -11 -1 -17 9 -17 9 0 12 -5 8 -12 -5 -7 -2 -9 9 -5 12 4
15 1 12 -14 -3 -15 0 -19 10 -15 10 3 15 -1 15 -14 0 -10 14 -28 30 -40 39
-28 41 -55 3 -44 -16 4 -38 7 -50 7 -13 -1 -21 3 -18 7 3 4 -4 10 -15 13 -11
3 -18 1 -14 -4 3 -5 -2 -9 -11 -9 -8 0 -18 7 -21 15 -5 12 -10 13 -20 4 -11
-9 -14 -8 -14 2 0 9 -12 14 -31 15 -17 1 -34 6 -38 11 -3 6 -14 9 -24 7 -9 -1
-15 2 -11 7 5 9 -9 13 -35 10 -7 -2 -10 3 -6 8 4 7 -6 14 -24 17 -16 4 -32 12
-35 20 -3 8 -15 14 -27 14 -19 0 -20 -2 -8 -17 12 -14 10 -14 -13 1 -16 10
-28 22 -28 27 0 5 -6 6 -14 3 -8 -3 -17 0 -22 7 -4 7 -3 10 4 5 6 -3 14 -1 18
5 4 7 3 9 -4 5 -6 -3 -18 1 -26 10 -9 9 -23 13 -31 10 -8 -3 -14 0 -12 6 1 7
-4 12 -11 13 -7 0 -16 5 -20 10 -4 6 -14 11 -22 13 -8 1 -25 8 -37 14 -17 8
-20 14 -12 24 8 10 6 12 -10 9 -12 -2 -21 0 -21 5 0 16 -32 41 -46 36 -8 -3
-11 2 -9 16 3 11 2 18 -2 15 -7 -8 -69 54 -65 66 1 4 -2 6 -8 2 -13 -8 -42 20
-32 31 4 5 -2 2 -12 -6 -18 -14 -19 -13 -13 4 6 15 4 17 -13 13 -11 -3 -18 -1
-14 4 3 5 1 9 -4 9 -5 0 -12 9 -15 21 -3 12 -10 18 -16 14 -6 -3 -9 0 -5 8 3
9 -4 21 -16 30 -11 8 -20 21 -18 28 2 8 -3 13 -11 11 -8 -2 -11 3 -8 12 4 9 1
15 -6 13 -7 -1 -11 4 -10 11 2 6 -1 12 -6 12 -6 0 -6 12 -1 30 5 17 7 30 4 30
-2 0 2 13 10 29 9 16 13 31 10 34 -3 3 4 8 15 12 12 3 21 11 21 16 0 6 -4 7
-10 4 -5 -3 -7 0 -4 9 3 9 12 12 21 9 11 -4 14 -2 9 5 -4 7 -2 12 4 12 6 0 9
4 6 9 -3 4 6 13 20 20 16 7 22 16 18 24 -5 8 -2 7 9 -2 10 -8 20 -11 24 -7 3
3 1 6 -5 6 -7 0 -12 5 -12 10 0 6 7 10 15 10 19 0 56 31 49 42 -3 4 0 8 6 8
12 0 19 6 97 77 31 28 82 66 112 84 31 19 63 41 72 51 9 10 19 15 22 11 4 -3
15 2 26 11 10 9 28 18 39 19 11 0 19 4 16 8 -2 4 9 10 26 14 16 4 30 11 30 16
0 6 5 7 10 4 6 -3 10 -1 10 4 0 6 3 10 8 10 26 -4 44 3 39 15 -4 9 0 13 11 11
9 -1 28 3 42 10 25 12 167 61 204 70 11 2 24 9 30 15 13 13 15 13 12 -5z m641
-10 c0 -8 -4 -12 -9 -9 -5 3 -6 10 -3 15 9 13 12 11 12 -6z m373 -7 c0 -4 -4
-8 -9 -8 -6 0 -12 4 -15 8 -3 5 1 9 9 9 8 0 15 -4 15 -9z m65 -9 c-3 -4 4 -6
16 -4 13 3 28 -3 36 -13 8 -9 12 -11 8 -4 -3 7 0 12 8 12 8 0 18 -7 21 -16 3
-8 11 -12 16 -9 6 4 17 1 25 -5 8 -7 15 -9 15 -5 0 4 6 2 13 -4 8 -6 28 -12
46 -14 18 -2 37 -10 42 -18 7 -11 9 -11 9 -1 0 7 5 10 10 7 6 -4 7 -12 4 -18
-4 -7 -4 -9 1 -5 4 4 15 2 23 -5 12 -9 14 -9 9 0 -5 9 3 8 28 -3 20 -8 41 -12
48 -8 7 4 9 4 5 -1 -4 -4 -3 -14 3 -22 10 -11 15 -11 27 -1 10 8 13 9 9 1 -11
-17 3 -43 19 -36 8 3 14 0 14 -7 0 -6 4 -9 9 -5 5 3 17 -2 25 -11 12 -11 16
-12 16 -2 1 8 6 6 15 -6 8 -11 15 -16 15 -11 0 4 9 -2 19 -14 11 -12 22 -18
25 -12 3 5 25 -9 47 -30 23 -22 48 -38 55 -35 8 3 14 -1 14 -11 0 -13 2 -14
17 -2 11 10 14 10 9 2 -4 -7 -3 -13 3 -13 5 0 11 3 14 8 2 4 2 1 1 -6 -2 -7 6
-17 19 -22 20 -8 21 -9 2 -10 -11 -1 -14 -4 -7 -7 6 -2 9 -10 6 -15 -5 -7 -2
-8 7 -2 20 12 40 14 33 3 -3 -5 -11 -7 -17 -3 -7 3 -2 -3 11 -14 24 -22 30
-38 10 -26 -7 4 -10 4 -6 0 3 -4 9 -6 12 -4 3 2 12 -6 21 -17 9 -11 14 -13 10
-5 -4 8 2 4 13 -9 12 -15 24 -21 32 -16 9 5 11 4 6 -3 -4 -7 -2 -12 3 -12 6 0
10 -6 8 -12 -1 -7 4 -12 11 -11 6 2 12 -6 12 -17 0 -11 5 -20 10 -20 6 0 10
-4 10 -10 0 -5 -8 -7 -17 -4 -14 5 -15 4 -4 -4 8 -6 21 -8 29 -4 10 3 13 1 8
-6 -4 -7 -1 -12 8 -12 9 0 16 -5 16 -11 0 -5 -4 -7 -10 -4 -6 3 -7 -1 -4 -10
5 -12 9 -13 20 -4 17 14 16 16 19 -53 2 -40 -1 -56 -9 -51 -6 3 -6 0 1 -7 9
-10 10 -17 1 -27 -9 -11 -7 -12 8 -8 10 4 7 -1 -8 -10 -27 -15 -32 -24 -29
-55 1 -11 0 -12 -6 -3 -6 8 -14 9 -23 3 -10 -6 -11 -10 -3 -10 7 0 10 -6 7
-14 -3 -8 -12 -12 -20 -9 -10 4 -12 0 -7 -13 4 -12 3 -15 -5 -10 -8 5 -12 0
-12 -13 0 -13 -7 -21 -16 -21 -11 0 -14 -5 -10 -16 5 -12 2 -15 -9 -10 -9 3
-14 2 -11 -3 3 -4 -2 -17 -10 -27 -9 -10 -12 -12 -8 -4 11 24 -8 3 -21 -22 -6
-13 -17 -22 -24 -20 -7 1 -10 -2 -6 -8 3 -5 -5 -15 -19 -22 -14 -6 -26 -15
-26 -19 0 -5 -7 -6 -15 -3 -8 3 -24 -5 -37 -19 -25 -26 -68 -53 -80 -49 -5 1
-8 -3 -8 -9 0 -5 -4 -8 -8 -5 -4 2 -28 -6 -54 -19 -25 -13 -50 -20 -54 -17 -4
4 -4 1 0 -5 4 -8 1 -13 -8 -13 -9 0 -16 -5 -16 -10 0 -11 -35 -27 -76 -34 -14
-3 -42 -14 -61 -26 -20 -11 -38 -19 -41 -16 -2 3 -18 -4 -33 -15 -16 -11 -29
-18 -29 -15 0 3 -16 -3 -36 -15 -20 -11 -39 -18 -41 -15 -3 3 -23 -4 -44 -15
-22 -11 -39 -15 -39 -9 0 6 -4 8 -10 5 -5 -3 -10 1 -10 9 0 9 6 16 13 16 8 0
7 4 -3 10 -8 5 -10 10 -4 10 7 0 15 11 18 25 4 14 10 24 14 21 4 -2 13 2 20
10 7 8 10 14 6 14 -3 0 0 8 7 17 12 14 12 15 1 9 -11 -7 -12 -4 -3 13 7 11 17
21 24 21 7 1 3 6 -8 13 -20 12 -19 13 7 38 15 15 29 25 31 22 3 -2 8 13 12 34
3 21 13 48 21 60 11 18 11 21 1 17 -8 -3 -14 2 -14 11 0 9 5 14 12 12 11 -5
12 109 1 139 -3 8 0 14 6 14 7 0 4 6 -7 13 -14 11 -15 16 -5 22 9 6 11 4 5 -6
-5 -8 -4 -11 0 -6 11 10 14 48 3 41 -4 -3 -8 0 -8 5 0 6 6 11 13 11 7 0 8 3 2
8 -5 4 -10 18 -10 32 0 14 -5 24 -12 23 -7 -2 -10 4 -6 13 5 13 7 13 14 2 5
-8 7 -2 4 17 -2 17 -6 47 -9 68 -3 21 -8 42 -11 47 -3 6 0 10 7 10 8 0 9 3 3
8 -5 4 -11 18 -12 32 -6 66 -10 82 -26 100 -9 11 -13 20 -9 20 4 0 8 11 8 25
2 22 0 24 -14 13 -13 -12 -14 -10 -3 10 6 12 8 22 4 22 -5 0 -10 12 -11 28 -1
15 -7 29 -12 30 -6 2 -7 9 -3 15 4 7 0 8 -13 4 -18 -7 -18 -7 0 8 11 8 14 15
7 15 -7 0 -10 4 -7 9 4 5 1 11 -4 13 -6 2 -12 13 -13 25 0 12 -5 19 -9 17 -7
-5 -12 10 -9 29 1 4 -7 11 -16 14 -10 4 -27 16 -38 26 -11 11 -13 16 -5 12 8
-4 0 7 -18 24 -19 17 -38 29 -43 26 -5 -3 -6 1 -3 9 6 16 31 25 51 18 7 -2 11
-8 8 -13z m-665 -13 c0 -2 -8 -10 -17 -17 -16 -13 -17 -12 -4 4 13 16 21 21
21 13z m120 -2 c0 -8 -19 -13 -24 -6 -3 5 1 9 9 9 8 0 15 -2 15 -3z m-380 -8
c0 -2 -7 -7 -16 -10 -8 -3 -12 -2 -9 4 6 10 25 14 25 6z m493 -6 c-7 -7 -63
-7 -58 0 2 3 17 6 34 5 16 0 27 -2 24 -5z m-239 -28 c3 -5 -1 -9 -9 -9 -8 0
-12 4 -9 9 3 4 7 8 9 8 2 0 6 -4 9 -8z m186 4 c0 -2 -7 -7 -16 -10 -8 -3 -12
-2 -9 4 6 10 25 14 25 6z m38 -21 c-3 -3 -9 2 -12 12 -6 14 -5 15 5 6 7 -7 10
-15 7 -18z m-524 -10 c-3 -7 -12 -16 -20 -19 -10 -4 -12 -2 -7 7 4 6 8 15 9
20 1 4 2 10 3 13 0 3 5 3 11 -1 5 -3 7 -12 4 -20z m-48 -10 c-5 -15 4 -19 35
-16 9 1 19 -4 22 -11 3 -9 -4 -13 -22 -12 -14 1 -32 -4 -40 -10 -11 -8 -13 -8
-7 2 10 17 -4 15 -26 -5 -16 -14 -18 -14 -13 -1 3 8 16 20 28 26 12 6 16 11 9
11 -10 1 -10 4 0 16 17 19 22 19 14 0z m110 3 c4 -7 3 -8 -5 -4 -6 4 -18 3
-26 -4 -10 -8 -15 -8 -21 1 -4 7 -3 9 4 5 6 -3 13 -2 17 4 8 13 22 13 31 -2z
m237 -3 c-3 -9 -8 -14 -10 -11 -3 3 -2 9 2 15 9 16 15 13 8 -4z m47 0 c7 -9 8
-15 2 -15 -5 0 -12 7 -16 15 -3 8 -4 15 -2 15 2 0 9 -7 16 -15z m95 -3 c-3 -3
-11 0 -18 7 -9 10 -8 11 6 5 10 -3 15 -9 12 -12z m415 14 c0 -2 -7 -9 -15 -16
-13 -11 -14 -10 -9 4 5 14 24 23 24 12z m-440 -41 c0 -5 -5 -3 -10 5 -5 8 -10
20 -10 25 0 6 5 3 10 -5 5 -8 10 -19 10 -25z m370 10 c-7 -8 -18 -15 -24 -15
-6 0 -2 7 8 15 25 19 32 19 16 0z m-687 -9 c3 -8 -2 -16 -14 -19 -17 -5 -19
-9 -10 -26 9 -16 9 -19 -2 -16 -7 3 -22 -3 -33 -13 -17 -16 -22 -17 -33 -5 -7
8 -15 12 -18 9 -10 -10 -12 -56 -2 -50 5 3 9 12 9 21 0 9 2 14 5 11 4 -3 3
-18 -1 -32 -5 -20 -11 -25 -24 -21 -10 3 -21 1 -25 -4 -3 -7 0 -8 9 -5 9 3 16
1 16 -5 0 -17 -26 -13 -41 6 -10 12 -11 15 -1 9 9 -6 11 -1 8 18 -3 15 -1 24
5 21 5 -4 6 -12 3 -18 -5 -9 -4 -9 5 -1 17 16 3 43 -20 37 -10 -3 -19 -1 -19
4 0 11 29 11 47 0 6 -4 13 0 17 8 3 8 0 17 -6 21 -7 4 -8 3 -4 -4 5 -8 1 -11
-11 -9 -10 1 -18 7 -18 12 0 6 3 9 8 8 4 -2 7 2 7 8 0 5 5 7 10 4 6 -3 10 -1
10 6 0 8 3 9 13 0 8 -6 17 -8 20 -4 4 3 7 1 7 -5 0 -7 -4 -12 -10 -12 -5 0
-10 -4 -10 -10 0 -5 9 -10 21 -10 11 0 17 4 14 10 -3 5 0 7 8 4 8 -3 18 -1 22
5 3 6 1 11 -6 11 -7 0 -2 8 9 19 12 10 19 21 15 25 -3 3 -2 6 4 6 6 0 13 -6
16 -14z m285 -11 c-3 -3 -9 2 -12 12 -6 14 -5 15 5 6 7 -7 10 -15 7 -18z m-28
11 c0 -2 -7 -7 -16 -10 -8 -3 -12 -2 -9 4 6 10 25 14 25 6z m385 -5 c3 -5 2
-12 -3 -15 -5 -3 -9 1 -9 9 0 17 3 19 12 6z m82 -8 c-4 -3 -2 -11 3 -18 7 -8
5 -12 -4 -12 -8 0 -12 7 -11 16 5 22 4 21 12 21 3 0 3 -3 0 -7z m-387 -24 c0
-5 -4 -9 -8 -9 -5 0 -9 7 -9 15 0 8 4 12 9 9 4 -3 8 -9 8 -15z m-333 -4 c0 -8
-4 -12 -9 -9 -5 3 -6 10 -3 15 9 13 12 11 12 -6z m283 5 c0 -5 -8 -10 -17 -10
-15 0 -16 2 -3 10 19 12 20 12 20 0z m80 -5 c-7 -9 -15 -13 -19 -10 -3 3 1 10
9 15 21 14 24 12 10 -5z m305 -4 c3 -5 2 -12 -3 -15 -5 -3 -9 1 -9 9 0 17 3
19 12 6z m30 -11 c3 -5 1 -10 -4 -10 -6 0 -11 5 -11 10 0 6 2 10 4 10 3 0 8
-4 11 -10z m-700 -20 c-3 -5 -2 -10 4 -10 5 0 12 5 14 10 3 6 4 5 3 -2 -1 -7
-12 -14 -24 -14 -18 -1 -20 2 -11 12 13 16 23 19 14 4z m-220 -18 c-3 -3 1
-12 8 -21 10 -14 10 -14 -4 -3 -13 10 -19 9 -30 -5 -11 -13 -11 -17 -1 -20 15
-6 16 -33 1 -33 -5 0 -8 4 -4 9 3 5 1 12 -5 16 -16 10 -8 54 9 47 8 -3 12 -1
8 5 -3 5 0 10 8 10 8 0 13 -3 10 -5z m278 -6 c4 -10 1 -13 -9 -9 -15 6 -19 23
-5 23 5 0 11 -7 14 -14z m274 -1 c0 -8 -7 -11 -16 -7 -14 5 -14 3 -2 -11 11
-14 11 -20 1 -32 -7 -8 -17 -15 -23 -15 -6 0 -2 6 9 14 15 12 17 17 7 27 -18
19 -16 35 5 36 10 1 19 -4 19 -12z m-377 -34 c3 -2 -3 -1 -12 2 -9 3 -19 1
-21 -6 -3 -7 -4 -2 -4 10 1 21 7 20 37 -6z m321 6 c-10 -9 -11 -8 -5 6 3 10 9
15 12 12 3 -3 0 -11 -7 -18z m329 13 c0 -5 -2 -10 -4 -10 -3 0 -8 5 -11 10 -3
6 -1 10 4 10 6 0 11 -4 11 -10z m28 -15 c-3 -3 -9 2 -12 12 -6 14 -5 15 5 6 7
-7 10 -15 7 -18z m-603 -4 c3 -5 2 -12 -3 -15 -5 -3 -9 1 -9 9 0 17 3 19 12 6z
m30 -21 c3 -5 1 -10 -4 -10 -6 0 -11 5 -11 10 0 6 2 10 4 10 3 0 8 -4 11 -10z
m529 1 c3 -5 -2 -15 -12 -22 -15 -12 -16 -12 -5 2 7 9 10 19 6 22 -3 4 -4 7 0
7 3 0 8 -4 11 -9z m-607 -7 c-3 -3 -12 -4 -19 -1 -8 3 -5 6 6 6 11 1 17 -2 13
-5z m104 -18 c-6 -7 -7 -17 -3 -21 4 -5 1 -5 -6 -1 -9 6 -10 11 -3 20 6 7 7
17 3 21 -4 5 -1 5 6 1 9 -6 10 -11 3 -20z m-330 -13 c3 1 1 -2 -2 -6 -8 -10 1
-48 10 -43 3 2 7 -7 8 -21 1 -19 -1 -22 -8 -12 -8 12 -10 12 -19 -1 -6 -10
-10 -11 -10 -2 0 6 -10 12 -22 13 l-23 1 23 6 c13 4 22 12 20 17 -2 6 -7 9
-13 7 -5 -2 -5 2 2 9 9 9 9 18 2 31 -9 17 -8 18 9 9 11 -6 21 -9 23 -8z m105
-12 c-1 -16 -5 -33 -9 -37 -4 -4 -2 -13 5 -21 8 -11 7 -12 -6 -7 -9 3 -16 10
-16 16 0 5 -5 6 -12 2 -7 -4 -8 -3 -4 5 4 6 11 9 16 6 4 -3 10 4 13 15 3 11 1
23 -5 26 -8 5 5 22 18 24 1 0 1 -13 0 -29z m68 21 c3 -5 -1 -9 -9 -9 -8 0 -12
4 -9 9 3 4 7 8 9 8 2 0 6 -4 9 -8z m116 -12 c-6 -11 -13 -20 -16 -20 -2 0 0 9
6 20 6 11 13 20 16 20 2 0 0 -9 -6 -20z m823 5 c-3 -9 -8 -14 -10 -11 -3 3 -2
9 2 15 9 16 15 13 8 -4z m-893 1 c0 -3 -4 -8 -10 -11 -5 -3 -10 -1 -10 4 0 6
5 11 10 11 6 0 10 -2 10 -4z m42 -3 c-6 -2 -9 -10 -6 -15 4 -7 2 -8 -5 -4 -13
9 -5 26 12 25 9 0 8 -2 -1 -6z m-92 -17 c0 -3 -4 -8 -10 -11 -5 -3 -10 -1 -10
4 0 6 5 11 10 11 6 0 10 -2 10 -4z m183 -11 c-3 -9 -8 -14 -10 -11 -3 3 -2 9
2 15 9 16 15 13 8 -4z m-68 -15 c-3 -5 2 -10 12 -10 15 0 16 -2 3 -10 -9 -6
-17 -5 -22 3 -6 11 -2 27 8 27 3 0 2 -4 -1 -10z m575 -4 c-7 -7 -13 -7 -20 0
-6 6 -3 10 10 10 13 0 16 -4 10 -10z m288 -6 c-7 -10 -14 -17 -17 -15 -4 4 18
35 25 35 2 0 -1 -9 -8 -20z m-313 -10 c3 -5 -1 -10 -10 -10 -9 0 -13 5 -10 10
3 6 8 10 10 10 2 0 7 -4 10 -10z m92 -27 c-3 -10 -5 -4 -5 12 0 17 2 24 5 18
2 -7 2 -21 0 -30z m-723 2 c-4 -8 -13 -15 -22 -15 -13 0 -12 3 4 15 24 18 25
18 18 0z m957 8 c-9 -4 -10 -7 -2 -12 16 -10 22 -49 9 -57 -7 -5 -9 0 -6 12 3
11 -1 25 -9 32 -15 14 -9 32 10 31 8 0 7 -3 -2 -6z m-1011 -7 c0 -2 -8 -10
-17 -17 -16 -13 -17 -12 -4 4 13 16 21 21 21 13z m85 -6 c3 -5 1 -10 -4 -10
-6 0 -11 5 -11 10 0 6 2 10 4 10 3 0 8 -4 11 -10z m70 0 c-3 -5 -12 -10 -18
-10 -7 0 -6 4 3 10 19 12 23 12 15 0z m60 0 c-3 -5 -12 -10 -18 -10 -7 0 -6 4
3 10 19 12 23 12 15 0z m681 -5 c-3 -8 -1 -15 5 -15 6 0 4 -7 -5 -15 -25 -25
-30 -15 -11 28 9 21 19 23 11 2z m-948 -6 c-10 -5 -18 -16 -18 -24 0 -8 -4
-17 -10 -20 -7 -4 -7 2 -1 18 6 14 7 28 4 31 -4 3 5 6 18 6 21 -1 22 -2 7 -11z
m-84 -15 c5 -13 4 -14 -7 -6 -8 7 -17 9 -20 5 -12 -11 -8 -23 7 -23 8 0 18 -4
21 -10 4 -7 -3 -7 -19 0 -32 12 -35 -4 -5 -20 11 -7 18 -14 15 -17 -3 -4 -1
-12 4 -18 7 -9 5 -17 -7 -26 -16 -13 -17 -12 -4 4 8 10 9 17 3 17 -6 0 -16 -8
-22 -17 -10 -16 -10 -16 -8 2 2 12 -2 19 -9 18 -15 -3 -17 13 -3 22 6 3 13 -1
16 -10 5 -13 8 -14 15 -3 6 9 -2 18 -24 30 -18 9 -26 17 -19 18 6 0 12 5 12
11 0 5 -5 7 -11 3 -8 -4 -8 0 0 15 14 25 56 28 65 5z m235 -10 c3 -4 -2 -4
-11 -1 -22 8 -23 -6 -2 -24 13 -10 17 -10 25 2 6 10 9 11 9 1 0 -18 -31 -27
-40 -11 -6 8 -9 -2 -8 -29 0 -23 4 -39 8 -37 5 3 11 1 15 -5 3 -5 1 -10 -5
-10 -6 0 -9 -4 -6 -9 3 -5 -4 -11 -16 -14 -16 -4 -18 -3 -9 6 6 6 11 15 11 19
0 11 -23 6 -33 -7 -5 -6 -6 -2 -3 8 5 15 2 17 -17 13 -12 -3 -16 -3 -9 0 10 5
10 9 0 22 -7 10 -8 14 -4 10 11 -9 38 40 30 53 -3 5 0 8 8 7 7 -2 12 2 11 9
-3 12 34 10 46 -3z m620 -6 c0 -16 -2 -18 -6 -8 -3 8 -11 18 -17 22 -7 5 -4 8
7 8 11 0 17 -7 16 -22z m-756 -2 c8 5 8 2 0 -7 -17 -17 -16 -32 0 -26 8 3 14
-1 14 -9 0 -7 -5 -10 -10 -7 -5 3 -13 -1 -18 -8 -5 -8 -3 -17 4 -21 7 -5 8 -8
1 -8 -5 0 -19 7 -30 15 -18 15 -18 15 0 8 13 -4 17 -3 12 5 -4 7 -1 12 6 13 8
0 9 2 2 5 -6 3 -9 17 -6 32 3 15 7 21 10 14 2 -6 9 -9 15 -6z m968 -11 c11 6
11 5 2 -5 -6 -7 -9 -18 -7 -25 3 -6 -2 -18 -12 -25 -19 -16 -47 -23 -38 -9 3
5 10 7 15 4 5 -4 9 -4 9 0 0 3 -10 10 -22 15 -20 8 -19 9 10 6 17 -2 32 0 32
5 0 5 -7 9 -15 9 -17 0 -18 2 -9 25 5 12 9 13 14 5 5 -7 14 -9 21 -5z m-701
-5 c0 -5 -5 -10 -11 -10 -5 0 -7 5 -4 10 3 6 8 10 11 10 2 0 4 -4 4 -10z m25
-21 c-4 -5 -12 -9 -18 -8 -9 0 -8 2 1 6 6 2 9 10 6 15 -4 7 -2 8 5 4 6 -4 9
-12 6 -17z m785 11 c0 -5 -5 -10 -11 -10 -5 0 -7 5 -4 10 3 6 8 10 11 10 2 0
4 -4 4 -10z m-879 -17 c13 -17 13 -17 -6 -3 -11 8 -22 16 -24 17 -2 2 0 3 6 3
6 0 17 -8 24 -17z m32 2 c-3 -9 -8 -14 -10 -11 -3 3 -2 9 2 15 9 16 15 13 8
-4z m841 -21 c3 -8 2 -12 -4 -9 -6 3 -10 10 -10 16 0 14 7 11 14 -7z m-808
-18 c28 5 28 4 9 -10 -22 -17 -41 -20 -48 -8 -2 4 -3 2 -1 -5 3 -11 -31 -25
-40 -16 -2 3 -2 12 1 20 5 12 7 12 15 1 7 -9 8 -7 5 9 -4 19 -2 21 13 13 9 -5
30 -7 46 -4z m628 -5 c4 -5 -3 -7 -14 -4 -23 6 -26 13 -6 13 8 0 17 -4 20 -9z
m88 2 c-6 -2 -9 -10 -6 -15 4 -7 2 -8 -5 -4 -6 4 -18 2 -26 -4 -8 -7 -15 -9
-15 -5 0 12 33 34 50 34 10 0 11 -2 2 -6z m-377 -13 c3 -5 1 -10 -4 -10 -6 0
-11 5 -11 10 0 6 2 10 4 10 3 0 8 -4 11 -10z m472 -10 c-1 -21 -10 -18 -13 5
-1 8 2 15 6 15 5 0 8 -9 7 -20z m-1284 -5 c4 -8 3 -16 -1 -19 -4 -3 -9 4 -9
15 -2 23 3 25 10 4z m190 0 c-3 -9 -8 -14 -10 -11 -3 3 -2 9 2 15 9 16 15 13
8 -4z m677 11 c0 -2 -8 -10 -17 -17 -16 -13 -17 -12 -4 4 13 16 21 21 21 13z
m197 -18 c-3 -8 -6 -5 -6 6 -1 11 2 17 5 13 3 -3 4 -12 1 -19z m-980 -4 c-3
-3 -12 -4 -19 -1 -8 3 -5 6 6 6 11 1 17 -2 13 -5z m366 -6 c-13 -18 -10 -41 6
-46 8 -3 11 0 7 7 -5 7 -1 9 8 5 14 -5 14 -8 1 -21 -9 -8 -12 -19 -9 -25 4 -7
2 -8 -5 -4 -6 4 -9 11 -6 16 3 4 0 10 -5 12 -22 7 -15 68 7 68 3 0 1 -6 -4
-12z m357 2 c0 -5 -2 -10 -4 -10 -3 0 -8 5 -11 10 -3 6 -1 10 4 10 6 0 11 -4
11 -10z m379 -16 c-9 -11 -9 -14 0 -14 7 0 9 -4 6 -10 -4 -6 -11 -5 -20 3 -7
6 -9 14 -4 15 5 2 9 10 9 18 0 9 5 12 10 9 8 -5 7 -11 -1 -21z m-316 1 c-3 -9
-8 -14 -10 -11 -3 3 -2 9 2 15 9 16 15 13 8 -4z m-453 -17 c0 -5 -7 -8 -15 -5
-8 4 -17 2 -20 -4 -4 -5 -11 -6 -17 -3 -5 3 1 12 14 19 25 13 38 10 38 -7z
m81 5 c13 -16 12 -17 -3 -4 -10 7 -18 15 -18 17 0 8 8 3 21 -13z m419 7 c0 -5
-8 -10 -17 -10 -15 0 -16 2 -3 10 19 12 20 12 20 0z m1329 -7 c-3 -21 3 -24
18 -12 11 10 14 10 9 2 -4 -7 -3 -13 2 -13 5 0 9 -7 9 -15 0 -11 -4 -12 -11
-5 -12 12 -27 13 -23 1 1 -5 -2 -9 -7 -10 -8 -1 -12 30 -7 54 2 8 11 6 10 -2z
m-1149 -7 c0 -3 -4 -8 -10 -11 -5 -3 -10 -1 -10 4 0 6 5 11 10 11 6 0 10 -2
10 -4z m191 -23 c-12 -20 -14 -14 -5 12 4 9 9 14 11 11 3 -2 0 -13 -6 -23z
m-869 -11 c3 -10 0 -19 -6 -19 -7 0 -12 9 -12 19 0 10 3 18 7 18 4 0 9 -8 11
-18z m774 -33 c1 -19 -1 -26 -6 -19 -4 7 -6 20 -5 29 7 32 10 29 11 -10z
m-105 -2 c-10 -9 -11 -8 -5 6 3 10 9 15 12 12 3 -3 0 -11 -7 -18z m-816 -27
c1 -16 -3 -30 -8 -30 -5 0 -4 -7 3 -15 10 -12 10 -15 -1 -15 -9 -1 -8 -5 5
-15 17 -13 18 -15 3 -15 -9 0 -17 5 -17 11 0 5 -5 7 -10 4 -7 -5 -8 -11 -1
-19 7 -8 6 -17 -1 -26 -8 -12 -9 -12 -4 3 3 11 0 20 -10 24 -12 5 -12 8 6 20
16 12 18 18 9 35 -9 16 -8 19 2 13 8 -5 10 -4 5 3 -4 7 -14 12 -22 12 -8 0
-14 4 -14 10 0 5 6 7 14 4 8 -3 16 4 19 17 8 30 20 18 22 -21z m145 20 c0 -5
-5 -10 -11 -10 -5 0 -7 5 -4 10 3 6 8 10 11 10 2 0 4 -4 4 -10z m575 -10 c-3
-5 -12 -10 -18 -10 -7 0 -6 4 3 10 19 12 23 12 15 0z m-290 -20 c3 -6 -1 -7
-9 -4 -18 7 -21 14 -7 14 6 0 13 -4 16 -10z m-549 -12 c4 -7 3 -8 -4 -4 -7 4
-12 2 -12 -5 0 -7 -3 -10 -6 -6 -6 5 3 27 11 27 2 0 7 -5 11 -12z m548 -19
c-18 -7 -17 -10 6 -13 29 -3 0 -46 -36 -51 -16 -2 -23 -2 -16 1 6 3 10 10 6
15 -3 5 0 9 6 9 6 0 8 5 5 10 -3 6 -2 10 4 10 5 0 8 8 6 19 -3 15 1 18 18 13
20 -5 20 -6 1 -13z m666 -3 c-6 -17 -5 -26 3 -30 9 -3 9 -5 0 -5 -6 -1 -14 2
-16 7 -5 8 10 52 17 52 3 0 1 -11 -4 -24z m-165 -7 c-4 -5 -12 -9 -18 -8 -9 0
-8 2 1 6 6 2 9 10 6 15 -4 7 -2 8 5 4 6 -4 9 -12 6 -17z m-1042 -20 c-4 -16
-8 -17 -14 -7 -7 10 -9 10 -9 1 0 -7 -6 -13 -12 -13 -7 1 -3 9 9 19 12 10 19
22 15 26 -4 5 -2 5 5 2 6 -4 9 -16 6 -28z m787 25 c0 -8 -19 -13 -24 -6 -3 5
1 9 9 9 8 0 15 -2 15 -3z m64 -26 c-2 -3 -13 -6 -24 -5 -24 2 -18 13 9 13 11
0 18 -4 15 -8z m-907 -13 c0 -8 -4 -12 -9 -9 -5 3 -6 10 -3 15 9 13 12 11 12
-6z m1026 -5 c-3 -11 -7 -20 -9 -20 -2 0 -4 9 -4 20 0 11 4 20 9 20 5 0 7 -9
4 -20z m232 -8 c-3 -3 -11 0 -18 7 -9 10 -8 11 6 5 10 -3 15 -9 12 -12z
m-1285 -6 c0 -3 -4 -8 -10 -11 -5 -3 -10 -1 -10 4 0 6 5 11 10 11 6 0 10 -2
10 -4z m80 -6 c0 -5 -5 -10 -11 -10 -5 0 -7 5 -4 10 3 6 8 10 11 10 2 0 4 -4
4 -10z m66 -17 c-4 -4 -12 -1 -19 7 -9 10 -9 11 1 6 7 -4 12 -2 13 6 0 11 2
11 6 0 3 -7 2 -16 -1 -19z m58 12 c-4 -8 -11 -15 -16 -15 -6 0 -5 6 2 15 7 8
14 15 16 15 2 0 1 -7 -2 -15z m469 -22 c4 -26 2 -31 -11 -25 -9 3 -11 7 -5 9
5 2 8 16 5 31 -3 15 -2 25 1 22 3 -3 7 -19 10 -37z m284 22 c0 -8 -4 -12 -9
-9 -5 3 -6 10 -3 15 9 13 12 11 12 -6z m69 0 c4 -8 11 -12 17 -8 6 3 7 1 3 -6
-6 -9 -11 -9 -22 0 -10 8 -14 8 -14 0 0 -6 -5 -11 -11 -11 -8 0 -9 4 0 13 6 8
8 17 4 20 -3 4 -1 7 6 7 6 0 14 -7 17 -15z m-923 -12 c-5 -12 -3 -14 8 -8 8 5
11 4 6 0 -4 -5 -14 -10 -22 -11 -12 -2 -12 2 -5 17 13 23 22 25 13 2z m526 4
c8 -10 7 -14 -4 -14 -8 0 -15 6 -15 14 0 7 2 13 4 13 2 0 9 -6 15 -13z m-29
-7 c0 -5 -2 -10 -4 -10 -2 0 -12 -3 -22 -7 -16 -6 -17 -5 -4 10 17 19 30 22
30 7z m720 1 c0 -6 -4 -12 -8 -15 -5 -3 -9 1 -9 9 0 8 4 15 9 15 4 0 8 -4 8
-9z m-2283 -16 c0 -8 -4 -12 -9 -9 -5 3 -6 10 -3 15 9 13 12 11 12 -6z m1170
0 c-11 -7 -26 -11 -35 -7 -15 6 0 12 48 20 3 1 -3 -5 -13 -13z m728 -3 c-3 -3
-11 0 -18 7 -9 10 -8 11 6 5 10 -3 15 -9 12 -12z m-298 -16 c-2 -10 3 -12 46
-15 20 -2 21 -3 3 -10 -15 -6 -17 -9 -6 -16 10 -6 10 -10 -4 -20 -15 -12 -15
-14 -1 -28 8 -9 11 -18 6 -22 -5 -3 -12 4 -16 15 -4 11 -12 18 -18 14 -7 -3
-2 3 9 13 18 16 20 22 9 37 -12 16 -14 16 -20 -5 -5 -15 -9 -18 -15 -9 -5 8
-10 9 -14 2 -3 -6 -2 -13 4 -17 5 -3 10 -11 10 -16 0 -6 -7 -4 -15 5 -8 8 -12
22 -9 30 6 15 3 17 -38 20 -7 1 -12 -7 -10 -16 4 -22 -5 -23 -24 -3 -14 13
-14 15 1 15 9 0 14 4 11 9 -3 4 7 8 22 7 15 0 26 4 25 10 -1 5 9 10 22 10 13
0 23 -5 22 -10z m404 -16 c6 0 7 -5 3 -11 -8 -14 -24 8 -23 31 1 11 3 10 6 -2
2 -10 9 -18 14 -18z m-1002 17 c-2 -1 -13 -9 -24 -17 -19 -14 -19 -14 -6 3 7
9 18 17 24 17 6 0 8 -1 6 -3z m61 -19 c0 -6 8 -20 17 -30 16 -18 16 -18 0 -12
-10 3 -20 17 -23 30 -3 13 -11 21 -17 17 -6 -3 -7 -1 -3 6 8 13 26 5 26 -11z
m100 10 c0 -4 -4 -8 -9 -8 -6 0 -12 4 -15 8 -3 5 1 9 9 9 8 0 15 -4 15 -9z
m1111 -11 c-10 -9 -11 -8 -5 6 3 10 9 15 12 12 3 -3 0 -11 -7 -18z m-1154 -1
c0 -15 -21 -16 -34 -1 -4 4 -3 5 4 1 6 -3 14 -2 18 4 8 14 12 13 12 -4z m972
-7 c-15 -9 -32 -2 -24 11 3 5 13 6 21 3 12 -4 13 -8 3 -14z m-919 -14 c0 -9
10 -20 23 -25 13 -5 16 -9 7 -10 -13 0 -13 -1 0 -10 13 -9 13 -10 0 -10 -8 0
-21 -9 -27 -19 -10 -16 -9 -20 5 -24 10 -3 6 -5 -10 -6 -30 -1 -35 -10 -16
-29 8 -8 8 -15 0 -25 -7 -8 -9 -17 -5 -20 3 -4 4 -7 1 -7 -3 0 -12 8 -19 17
-10 11 -10 14 -1 9 13 -8 13 19 -1 41 -4 6 -3 14 2 18 6 3 20 19 31 35 18 25
19 29 4 23 -12 -4 -15 -3 -10 5 5 8 2 10 -9 6 -12 -5 -13 -9 -4 -20 10 -12 8
-13 -7 -8 -14 4 -16 3 -5 -4 17 -12 8 -28 -21 -35 -21 -5 -21 -5 -5 7 23 18
22 26 -5 26 -25 0 -63 20 -40 20 7 0 10 5 6 12 -4 7 -3 8 5 4 6 -4 9 -12 6
-17 -4 -5 6 -9 20 -9 15 0 24 4 20 10 -3 5 5 15 19 21 14 7 22 17 19 25 -3 8
0 14 6 14 6 0 11 -7 11 -15z m373 -15 c-3 -12 -8 -19 -11 -16 -5 6 5 36 12 36
2 0 2 -9 -1 -20z m748 3 c13 -17 13 -17 -6 -3 -11 8 -22 16 -24 17 -2 2 0 3 6
3 6 0 17 -8 24 -17z m-274 -14 c16 -1 21 -3 11 -6 -11 -3 -15 -10 -11 -21 4
-13 2 -13 -11 3 -10 11 -15 14 -11 8 3 -7 1 -13 -4 -13 -6 0 -11 7 -11 16 0 8
-4 13 -9 10 -5 -3 -12 1 -15 9 -4 13 -2 13 14 5 10 -5 31 -11 47 -11z m56 0
c-6 -6 -9 -19 -6 -28 4 -9 3 -13 -1 -10 -11 10 -16 50 -5 44 5 -4 9 -1 9 6 0
7 3 9 7 6 4 -4 2 -12 -4 -18z m47 -6 c0 -19 -13 -9 -16 12 -1 8 2 13 7 9 5 -3
9 -12 9 -21z m-1085 -1 c-3 -3 -11 0 -18 7 -9 10 -8 11 6 5 10 -3 15 -9 12
-12z m448 -24 c12 -19 14 -29 5 -34 -7 -4 -8 -3 -4 4 4 7 5 12 2 12 -2 0 -11
3 -20 6 -11 4 -15 -2 -14 -25 1 -26 3 -29 16 -19 13 11 14 10 8 -9 -10 -30 9
-38 34 -13 11 11 20 16 20 11 0 -5 -14 -20 -31 -32 -30 -21 -31 -23 -13 -36
25 -19 39 -16 23 5 -13 15 -12 16 3 4 18 -14 18 -33 0 -55 -7 -8 -11 -26 -8
-40 3 -18 0 -27 -12 -30 -12 -3 -11 -5 5 -6 15 -1 23 6 25 19 l3 21 13 -21 c7
-11 9 -20 5 -19 -24 4 -51 -15 -48 -32 2 -11 0 -17 -4 -14 -5 2 -11 18 -14 34
-4 19 -17 35 -33 44 -27 14 -27 15 -6 21 21 7 24 11 26 39 1 6 6 16 11 20 6 5
0 7 -12 4 -27 -6 -26 15 1 26 17 7 16 9 -10 34 -18 17 -24 28 -16 31 7 2 10 8
6 13 -3 5 0 23 7 39 8 16 14 28 14 27 1 -1 9 -14 18 -29z m35 15 c1 -7 3 -20
4 -28 1 -8 5 -12 10 -9 5 4 7 12 5 18 -3 8 3 12 16 11 11 -1 23 -8 25 -16 3
-11 2 -11 -7 1 -8 12 -12 10 -20 -10 -5 -14 -10 -21 -10 -16 -1 5 -8 3 -16 -4
-12 -10 -14 -8 -10 9 2 13 -3 25 -16 31 -10 6 -19 15 -19 20 0 14 36 8 38 -7z
m442 -3 c8 -5 11 -10 5 -10 -5 0 -17 5 -25 10 -8 5 -10 10 -5 10 6 0 17 -5 25
-10z m151 -15 c5 4 9 1 9 -4 0 -6 -4 -11 -8 -11 -12 0 -32 22 -32 35 0 5 5 2
11 -8 6 -9 14 -15 20 -12z m-496 -5 c3 -5 2 -10 -4 -10 -5 0 -13 5 -16 10 -3
6 -2 10 4 10 5 0 13 -4 16 -10z m340 -2 c14 -6 25 -14 25 -18 0 -12 -30 -33
-37 -26 -3 3 -1 6 5 6 7 0 12 6 12 14 0 16 -27 29 -42 19 -7 -3 -8 -1 -4 5 9
15 9 15 41 0z m205 8 c0 -2 -7 -7 -16 -10 -8 -3 -12 -2 -9 4 6 10 25 14 25 6z
m20 -9 c0 -2 -9 -12 -20 -22 -24 -21 -27 -14 -4 9 15 15 24 20 24 13z m-1090
-11 c0 -11 -19 -15 -25 -6 -3 5 1 10 9 10 9 0 16 -2 16 -4z m911 -19 c-10 -9
-11 -8 -5 6 3 10 9 15 12 12 3 -3 0 -11 -7 -18z m-414 7 c-3 -3 -12 -4 -19 -1
-8 3 -5 6 6 6 11 1 17 -2 13 -5z m-607 -14 c0 -5 -5 -10 -11 -10 -5 0 -7 5 -4
10 3 6 8 10 11 10 2 0 4 -4 4 -10z m632 1 c-16 -10 -12 -44 6 -51 11 -5 11 -9
-3 -20 -9 -7 -15 -9 -14 -4 4 23 -3 26 -21 9 -11 -10 -20 -24 -20 -32 0 -7 -4
-13 -10 -13 -5 0 -9 3 -8 8 1 4 -3 17 -10 28 -9 18 -8 24 8 39 12 11 26 15 37
11 12 -5 14 -4 8 2 -5 6 -19 13 -30 16 -12 3 -9 4 8 2 15 -2 30 1 33 5 3 5 11
9 17 9 8 0 8 -3 -1 -9z m418 -1 c0 -5 -5 -10 -11 -10 -5 0 -7 5 -4 10 3 6 8
10 11 10 2 0 4 -4 4 -10z m-926 -35 c-8 -20 -17 -19 -31 4 -15 24 -6 33 18 20
10 -5 16 -16 13 -24z m-48 3 c4 -7 3 -8 -4 -4 -7 4 -12 2 -12 -5 0 -7 -3 -10
-6 -6 -6 5 3 27 11 27 2 0 7 -5 11 -12z m605 -10 c11 -21 11 -22 -4 -9 -10 7
-17 17 -17 22 0 15 9 10 21 -13z m45 10 c4 -7 3 -8 -4 -4 -7 4 -12 2 -12 -5 0
-7 -3 -10 -6 -6 -6 5 3 27 11 27 2 0 7 -5 11 -12z m317 -13 c-7 -21 -12 -19
-10 4 0 11 5 18 9 15 4 -3 5 -11 1 -19z m-36 8 c-9 -2 -14 -9 -11 -15 4 -7 2
-8 -4 -4 -20 12 -13 26 11 25 17 -1 18 -2 4 -6z m69 -18 c-1 -8 -5 -17 -8 -21
-5 -4 -4 16 1 34 3 9 9 -1 7 -13z m-624 -2 c-6 -3 -9 -10 -5 -16 4 -7 -1 -6
-10 2 -21 17 -21 17 6 18 12 0 16 -1 9 -4z m-338 -15 c-3 -4 0 -8 5 -8 15 0 7
-43 -8 -48 -10 -3 -10 0 -2 17 7 11 8 21 2 21 -5 0 -11 6 -14 13 -3 8 1 14 9
14 7 0 11 -4 8 -9z m562 -11 c1 -7 3 -18 5 -26 2 -7 -1 -15 -8 -18 -6 -2 -10
4 -9 14 2 10 -2 21 -8 25 -8 5 -7 8 2 8 8 0 10 5 6 13 -4 6 -3 8 1 4 5 -4 10
-13 11 -20z m-46 -12 c0 -2 -6 -5 -13 -8 -8 -3 -14 1 -14 8 0 7 6 11 14 8 7
-3 13 -6 13 -8z m87 -11 c-9 -9 -28 6 -21 18 4 6 10 6 17 -1 6 -6 8 -13 4 -17z
m360 -19 c-13 -28 -30 -34 -20 -7 5 14 21 31 30 32 0 0 -4 -11 -10 -25z m-634
0 c4 -8 1 -17 -5 -21 -7 -4 -8 -3 -4 4 4 7 2 12 -4 12 -6 0 -8 5 -5 10 8 14
12 13 18 -5z m167 -9 c-14 -13 -29 -21 -33 -19 -5 3 4 13 20 23 39 25 42 24
13 -4z m37 -8 c-3 -7 -5 -2 -5 12 0 14 2 19 5 13 2 -7 2 -19 0 -25z m-93 -6
c3 -5 -1 -9 -9 -9 -8 0 -12 4 -9 9 3 4 7 8 9 8 2 0 6 -4 9 -8z m71 -2 c-3 -5
-12 -10 -18 -10 -7 0 -6 4 3 10 19 12 23 12 15 0z m70 0 c3 -5 1 -10 -4 -10
-6 0 -11 5 -11 10 0 6 2 10 4 10 3 0 8 -4 11 -10z m-51 -22 c-5 -8 -2 -9 10
-5 10 4 15 3 11 -4 -4 -5 -15 -7 -26 -4 -13 4 -19 2 -19 -9 0 -9 5 -16 10 -16
6 0 10 -7 10 -15 0 -8 -4 -15 -10 -15 -5 0 -10 6 -10 14 0 8 -6 17 -12 20 -9
3 -6 11 11 25 26 23 36 27 25 9z m91 3 c3 -5 2 -12 -3 -15 -5 -3 -9 1 -9 9 0
17 3 19 12 6z m-263 -35 c9 6 9 3 -2 -10 -9 -12 -16 -14 -18 -7 -3 9 -8 9 -17
1 -8 -7 -15 -7 -19 -1 -4 5 -2 13 4 16 8 5 7 12 -2 23 -7 10 0 6 14 -7 17 -14
31 -20 40 -15z m228 25 c0 -5 -7 -11 -14 -14 -10 -4 -13 -1 -9 9 6 15 23 19
23 5z m30 -25 c0 -2 -7 -7 -16 -10 -8 -3 -12 -2 -9 4 6 10 25 14 25 6z m-36
-22 c3 -8 2 -12 -4 -9 -6 3 -10 10 -10 16 0 14 7 11 14 -7z m-144 -8 c0 -3 -4
-8 -10 -11 -5 -3 -10 -1 -10 4 0 6 5 11 10 11 6 0 10 -2 10 -4z m90 -25 c0 -5
-7 -12 -16 -15 -14 -5 -15 -4 -4 9 14 17 20 19 20 6z m10 -25 c0 -2 -7 -7 -16
-10 -8 -3 -12 -2 -9 4 6 10 25 14 25 6z m-256 -38 c-9 -14 -23 2 -17 18 4 12
8 13 14 3 4 -7 5 -17 3 -21z m206 12 c0 -5 -5 -10 -11 -10 -5 0 -7 5 -4 10 3
6 8 10 11 10 2 0 4 -4 4 -10z m287 4 c-3 -3 -12 -4 -19 -1 -8 3 -5 6 6 6 11 1
17 -2 13 -5z m-528 -8 c-2 -2 -14 -9 -26 -15 -18 -9 -22 -9 -18 2 3 7 15 13
26 14 12 1 20 1 18 -1z m156 -16 c3 -6 -1 -7 -9 -4 -18 7 -21 14 -7 14 6 0 13
-4 16 -10z m131 -6 c18 -14 18 -14 -6 -3 -31 14 -36 19 -24 19 6 0 19 -7 30
-16z m-290 -14 c0 -12 -4 -16 -9 -11 -5 5 -6 14 -3 20 10 15 12 14 12 -9z
m224 16 c0 -3 -4 -8 -10 -11 -5 -3 -10 -1 -10 4 0 6 5 11 10 11 6 0 10 -2 10
-4z m-60 -30 c-7 -7 -13 -7 -20 0 -6 6 -3 10 10 10 13 0 16 -4 10 -10z m29
-20 c9 -11 9 -16 -1 -22 -7 -4 -10 -4 -6 1 4 4 3 14 -3 22 -6 7 -9 13 -6 13 2
0 10 -6 16 -14z m111 4 c0 -5 -2 -10 -4 -10 -3 0 -8 5 -11 10 -3 6 -1 10 4 10
6 0 11 -4 11 -10z m-139 -17 c13 -16 12 -17 -3 -4 -10 7 -18 15 -18 17 0 8 8
3 21 -13z m-891 -863 c0 -5 -2 -10 -4 -10 -3 0 -8 5 -11 10 -3 6 -1 10 4 10 6
0 11 -4 11 -10z m-6 -486 c3 -8 2 -12 -4 -9 -6 3 -10 10 -10 16 0 14 7 11 14
-7z"/>
<path d="M3300 1975 c-11 -13 -10 -14 4 -9 9 3 16 10 16 15 0 13 -6 11 -20 -6z"/>
<path d="M2010 2699 c0 -5 5 -7 10 -4 6 3 10 8 10 11 0 2 -4 4 -10 4 -5 0 -10
-5 -10 -11z"/>
<path d="M2250 2669 c0 -5 5 -7 10 -4 6 3 10 8 10 11 0 2 -4 4 -10 4 -5 0 -10
-5 -10 -11z"/>
<path d="M2228 2632 c-3 -12 2 -24 14 -31 17 -11 18 -10 9 8 -14 25 -14 34 -1
26 6 -3 10 -1 10 4 0 19 -27 12 -32 -7z"/>
<path d="M2636 2355 c-3 -8 -1 -15 4 -15 6 0 10 7 10 15 0 8 -2 15 -4 15 -2 0
-6 -7 -10 -15z"/>
<path d="M2636 2261 c-4 -5 -2 -12 4 -16 5 -3 10 -3 10 2 0 4 5 1 10 -7 5 -8
10 -10 10 -4 0 17 -27 37 -34 25z"/>
<path d="M2545 1990 c-8 -16 -21 -30 -27 -30 -7 0 -3 -6 7 -14 21 -15 49 -10
39 6 -4 6 -10 5 -15 -3 -6 -10 -9 -10 -9 -2 0 6 4 15 10 18 17 11 31 43 20 50
-5 3 -16 -8 -25 -25z"/>
<path d="M2623 2076 c3 -7 0 -19 -6 -25 -6 -6 -7 -11 -1 -11 14 0 34 22 34 37
0 7 -7 13 -16 13 -10 0 -14 -6 -11 -14z"/>
<path d="M2147 2099 c7 -7 15 -10 18 -7 3 3 -2 9 -12 12 -14 6 -15 5 -6 -5z"/>
<path d="M4250 2530 c0 -5 5 -10 11 -10 5 0 7 5 4 10 -3 6 -8 10 -11 10 -2 0
-4 -4 -4 -10z"/>
<path d="M4268 2503 c7 -3 16 -2 19 1 4 3 -2 6 -13 5 -11 0 -14 -3 -6 -6z"/>
<path d="M1230 2081 c0 -6 4 -13 10 -16 6 -3 7 1 4 9 -7 18 -14 21 -14 7z"/>
</g>
</svg>
