<?xml version="1.0" standalone="no"?>
<!DOCTYPE svg PUBLIC "-//W3C//DTD SVG 20010904//EN"
 "http://www.w3.org/TR/2001/REC-SVG-20010904/DTD/svg10.dtd">
<svg version="1.0" xmlns="http://www.w3.org/2000/svg"
 width="300.000000pt" height="300.000000pt" viewBox="0 0 300.000000 300.000000"
 preserveAspectRatio="xMidYMid meet">
<metadata>
Created by potrace 1.11, written by Peter Selinger 2001-2013
</metadata>
<g transform="translate(0.000000,300.000000) scale(0.100000,-0.100000)"
fill="#000000" stroke="none">
<path d="M1477 2964 c-4 -4 -14 -8 -24 -9 -46 -5 -82 -19 -87 -32 -3 -8 -10
-12 -15 -9 -5 4 -15 -7 -22 -23 -8 -17 -24 -35 -36 -42 -13 -7 -23 -16 -23
-21 0 -5 -4 -6 -10 -3 -18 11 -32 -6 -18 -23 10 -12 10 -14 1 -8 -8 4 -14 2
-14 -6 -1 -7 -3 -24 -4 -38 -2 -14 2 -31 8 -38 7 -9 6 -11 -7 -6 -9 3 -16 10
-16 15 0 5 -5 9 -11 9 -5 0 -7 -5 -3 -12 4 -7 9 -31 10 -55 1 -36 0 -40 -13
-27 -18 18 -20 18 -20 -1 0 -8 4 -12 8 -10 4 3 10 -2 13 -11 3 -8 2 -12 -3 -9
-5 3 -12 1 -16 -5 -3 -5 -2 -10 4 -10 6 0 7 -7 4 -17 -4 -10 -2 -14 5 -9 6 3
14 1 18 -5 4 -8 3 -9 -5 -5 -9 6 -11 -4 -9 -34 1 -23 6 -44 12 -47 5 -4 1 -10
-10 -14 -15 -6 -15 -8 -3 -8 10 -1 19 -12 22 -27 3 -20 1 -24 -12 -19 -9 3 -5
-3 9 -14 14 -11 21 -23 17 -27 -9 -10 30 -37 43 -29 5 3 7 0 4 -8 -3 -8 2 -21
10 -29 11 -11 12 -18 3 -27 -7 -7 -7 -11 0 -11 5 0 10 -18 9 -39 -1 -21 -4
-37 -8 -35 -4 2 -9 0 -13 -6 -3 -5 1 -10 9 -10 9 0 16 -4 16 -9 0 -6 -13 -5
-32 1 -46 14 -97 17 -104 7 -3 -5 -11 -6 -17 -2 -17 11 -38 13 -32 3 3 -5 1
-11 -4 -14 -5 -4 -13 -2 -16 4 -5 8 -11 7 -21 -1 -11 -9 -14 -9 -14 1 0 8 -3
10 -7 7 -3 -4 -12 -2 -20 5 -11 8 -12 7 -7 -6 5 -12 0 -16 -21 -16 -18 0 -24
-4 -19 -12 5 -7 -5 -3 -20 8 l-29 21 -44 -24 c-38 -22 -42 -23 -36 -6 7 17 6
17 -19 1 -15 -10 -28 -13 -30 -8 -2 6 -21 1 -43 -11 -34 -19 -38 -19 -25 -3
14 16 13 17 -2 11 -10 -3 -18 -3 -18 2 0 4 -7 8 -15 8 -18 0 -19 -9 -3 -26 11
-10 10 -12 -2 -9 -9 2 -14 -3 -12 -12 1 -10 -2 -9 -13 4 -8 11 -15 14 -15 7 0
-7 -4 -9 -10 -6 -6 3 -7 -1 -4 -9 3 -9 1 -16 -4 -16 -6 0 -14 10 -18 22 l-7
22 -19 -24 c-16 -20 -21 -21 -29 -9 -7 12 -9 12 -10 -1 -1 -8 -1 -18 -1 -21 1
-3 -5 -6 -13 -6 -8 0 -12 4 -9 9 3 4 -2 5 -10 2 -9 -3 -16 -10 -16 -15 0 -4
-7 -6 -16 -2 -13 5 -15 2 -9 -18 7 -24 7 -24 -10 -4 -9 11 -13 14 -9 6 5 -11
3 -13 -9 -8 -9 3 -19 1 -23 -5 -4 -6 -3 -8 4 -4 6 3 13 2 17 -4 3 -5 -1 -10
-9 -10 -8 0 -18 5 -21 10 -3 6 -11 10 -17 10 -6 0 -6 -6 2 -15 11 -13 10 -15
-1 -10 -8 2 -23 -8 -34 -23 -10 -15 -13 -22 -4 -15 10 8 19 9 29 1 13 -8 12
-9 -1 -5 -17 6 -59 -26 -59 -44 0 -6 -6 -7 -12 -3 -10 6 -10 4 0 -8 10 -13 10
-17 -4 -22 -9 -4 -14 -9 -11 -13 13 -12 -15 -45 -34 -40 -10 3 -19 1 -19 -4 0
-5 7 -9 15 -9 8 0 15 -6 15 -14 0 -8 -6 -13 -14 -12 -8 0 -14 -3 -13 -9 1 -5
5 -9 9 -8 4 2 5 -7 3 -19 -3 -12 3 -27 13 -35 16 -12 15 -12 -3 -6 -18 6 -19
5 -5 -12 14 -17 13 -18 -3 -12 -20 7 -23 -6 -4 -25 15 -15 16 -33 3 -45 -5 -4
-6 -3 -2 4 3 6 3 14 -2 17 -4 2 -8 -6 -8 -20 0 -13 6 -24 13 -24 8 0 10 -7 4
-21 -5 -16 -1 -28 17 -48 l24 -26 -24 -5 c-13 -4 -18 -9 -12 -13 7 -4 9 -23 7
-49 -4 -32 -1 -45 13 -55 10 -7 12 -13 5 -13 -13 0 -6 -60 11 -93 5 -11 5 -17
-2 -17 -5 0 -2 -8 8 -18 9 -10 19 -15 22 -11 3 5 12 4 20 -1 20 -13 33 -12 25
0 -7 11 8 14 18 3 4 -3 -1 -12 -11 -19 -16 -12 -15 -13 5 -14 12 0 25 -4 28
-10 3 -5 11 -10 16 -10 6 0 7 5 4 10 -3 6 -1 10 4 10 10 0 16 -28 12 -59 -2
-7 2 -10 8 -6 6 3 11 2 11 -4 0 -5 -4 -12 -9 -15 -5 -4 -8 -14 -6 -24 1 -9 -2
-23 -8 -29 -7 -10 -5 -13 8 -13 13 0 15 -3 7 -13 -14 -16 -10 -46 9 -59 11 -7
11 -11 1 -15 -10 -4 -10 -8 -1 -20 10 -12 10 -16 -2 -24 -8 -5 -9 -9 -4 -9 6
0 15 -11 22 -25 6 -14 7 -23 2 -19 -14 8 -10 -3 7 -20 10 -10 11 -16 3 -16 -9
0 -9 -3 0 -14 9 -11 9 -16 0 -21 -8 -6 -7 -10 2 -17 11 -8 11 -11 1 -15 -10
-4 -10 -8 -1 -19 6 -8 9 -23 6 -34 -3 -10 0 -18 5 -17 6 1 12 -6 13 -16 2 -10
-1 -14 -7 -11 -7 5 -8 -5 -4 -27 17 -91 22 -162 10 -180 -3 -5 0 -9 6 -9 6 0
9 -4 5 -9 -3 -5 -1 -12 5 -16 6 -4 8 -11 5 -16 -4 -5 1 -9 9 -9 17 0 48 -39
40 -52 -3 -4 7 -8 21 -8 20 0 26 -4 21 -16 -3 -8 -2 -12 4 -9 6 3 10 1 10 -4
0 -6 7 -11 15 -11 8 0 15 -5 15 -11 0 -5 -6 -7 -12 -3 -8 4 -10 3 -5 -2 5 -5
14 -9 20 -9 7 0 12 -4 12 -10 0 -5 4 -16 9 -24 7 -11 10 -11 17 0 6 10 9 11 9
2 0 -7 8 -13 19 -13 11 0 21 -9 25 -22 l6 -23 21 24 20 25 -7 -27 c-3 -15 -2
-27 2 -26 5 1 17 -1 27 -6 10 -4 21 -5 24 -1 4 3 -1 6 -10 6 -9 0 -17 5 -17
11 0 5 5 7 10 4 6 -3 10 -1 10 4 0 6 5 11 11 11 5 0 8 -4 5 -9 -3 -5 11 -12
31 -16 20 -4 42 -14 48 -22 6 -9 29 -17 50 -19 21 -1 41 -8 45 -15 5 -6 17 -9
29 -6 14 3 22 -1 26 -15 6 -16 9 -17 23 -6 13 11 14 11 7 -2 -8 -13 -6 -13 8
-1 9 7 14 18 10 24 -3 6 -1 7 5 3 9 -5 9 -13 1 -29 -12 -22 -12 -22 10 -3 21
19 21 19 21 0 0 -15 2 -16 9 -5 5 8 16 11 26 8 9 -4 13 -3 10 2 -3 5 -2 12 3
15 13 8 11 -28 -2 -37 -6 -4 -1 -6 11 -4 12 2 25 6 28 9 4 3 21 2 38 -3 20 -6
33 -5 35 0 2 6 10 7 18 4 7 -3 11 -10 7 -16 -3 -6 -1 -7 6 -3 9 6 9 12 -1 24
-12 15 -11 16 4 4 9 -8 21 -11 27 -8 5 4 16 0 24 -8 11 -11 17 -12 26 -3 7 7
11 7 11 0 0 -9 19 -10 52 -4 4 0 4 9 1 18 -6 15 -5 16 9 3 8 -8 13 -22 10 -30
-3 -9 1 -8 10 4 11 14 17 16 23 6 6 -10 9 -9 17 1 7 11 11 11 15 1 2 -6 9 -10
14 -6 5 3 9 -1 9 -8 0 -10 2 -10 9 1 5 8 7 21 4 30 -4 14 -3 14 5 1 6 -8 8
-18 6 -22 -3 -4 4 -8 16 -8 13 0 19 4 14 12 -5 7 -3 8 5 3 17 -10 71 -13 65
-3 -3 4 7 9 23 9 28 1 43 4 53 8 3 2 15 4 27 5 13 2 33 11 45 22 12 10 18 13
14 7 -4 -8 -1 -13 8 -13 10 0 13 6 9 18 -5 14 -3 13 10 -3 10 -12 16 -15 17
-7 0 7 5 10 10 7 15 -9 51 5 44 16 -3 6 4 7 20 3 17 -4 26 -2 26 6 0 6 4 9 9
5 5 -3 13 0 17 6 4 8 3 9 -4 5 -7 -4 -12 -2 -12 3 0 6 11 12 25 12 39 2 40 3
60 23 11 11 21 14 23 8 5 -16 52 7 52 25 0 8 4 12 9 8 5 -3 16 2 24 10 9 8 20
15 26 15 6 0 11 6 11 14 0 8 7 16 15 20 21 8 19 27 -2 20 -17 -5 -17 -5 -1 9
10 8 15 17 11 20 -3 4 -1 7 6 7 7 0 10 4 7 9 -4 5 0 12 6 14 10 4 9 8 -2 17
-12 9 -10 10 10 4 21 -6 23 -5 13 8 -10 11 -10 17 0 27 8 8 8 14 1 19 -5 4
-10 17 -10 30 0 16 6 22 24 22 18 0 23 5 22 23 -1 12 -1 25 0 30 7 22 4 73 -5
80 -6 5 -3 11 9 18 14 9 16 13 5 20 -8 4 -20 3 -29 -4 -13 -11 -13 -10 -1 6 7
9 20 17 27 17 8 0 14 5 14 10 0 6 -4 10 -10 10 -5 0 -7 7 -3 17 3 9 6 32 6 52
0 20 5 42 11 50 8 11 8 13 -1 7 -7 -4 -13 -3 -13 3 0 5 5 11 11 13 6 2 15 25
19 50 4 26 4 45 1 43 -4 -2 -12 8 -18 22 -10 22 -10 23 4 12 13 -11 14 -10 12
6 -2 11 0 26 5 34 7 10 6 12 -4 6 -10 -6 -12 -4 -7 8 3 10 2 17 -3 17 -6 0
-10 5 -10 11 0 6 6 9 13 6 7 -3 13 3 13 13 0 10 -4 16 -8 14 -4 -3 -8 0 -8 5
0 6 7 11 15 11 8 0 19 9 25 20 6 11 14 19 18 19 21 -3 42 2 38 10 -3 4 3 8 14
7 11 0 19 3 19 8 0 5 3 12 8 15 4 3 17 17 28 31 16 20 16 22 2 11 -15 -12 -17
-12 -11 5 4 10 20 33 35 49 20 21 26 34 19 45 -5 7 -5 21 0 29 4 9 7 27 6 41
-1 14 1 35 5 46 4 13 3 26 -4 33 -6 6 -7 11 -1 11 5 0 10 12 9 28 0 15 5 26
10 25 11 -2 13 102 2 113 -4 4 -1 14 5 22 7 7 12 39 13 70 0 32 3 62 7 67 15
24 -65 135 -97 135 -8 0 -15 5 -15 11 0 6 -9 8 -22 3 -20 -6 -21 -5 -10 8 10
13 10 17 -3 22 -9 3 -13 2 -10 -4 3 -6 -1 -10 -9 -10 -9 0 -16 5 -16 11 0 5
-4 7 -10 4 -5 -3 -10 -1 -10 4 0 6 -7 11 -16 11 -8 0 -13 4 -9 9 6 10 -27 7
-45 -4 -9 -6 -14 8 -11 27 0 5 -2 7 -7 7 -21 -4 -40 3 -58 19 -24 22 -80 39
-68 21 4 -8 3 -9 -5 -5 -6 4 -9 12 -6 17 4 5 -1 9 -9 9 -9 0 -16 4 -16 9 0 5
-10 7 -22 3 -12 -3 -19 -1 -15 4 3 6 -3 11 -14 11 -11 1 -17 -2 -14 -8 4 -5 3
-9 -2 -10 -4 0 -17 -2 -28 -4 -12 -3 -29 6 -42 22 -13 14 -23 21 -23 15 0 -6
5 -14 10 -17 6 -4 8 -11 5 -16 -4 -5 -12 -3 -19 4 -8 6 -12 15 -10 19 3 4 -9
3 -26 -2 -17 -5 -30 -5 -30 0 0 5 -6 7 -14 4 -8 -3 -13 -14 -11 -25 2 -11 0
-17 -6 -14 -5 4 -6 11 -3 17 5 8 1 9 -12 4 -15 -6 -14 -3 5 18 19 20 21 26 9
26 -9 0 -19 -7 -22 -16 -3 -9 -13 -14 -20 -11 -8 3 -17 1 -20 -6 -2 -7 -5 -4
-5 6 -1 10 -6 15 -11 12 -5 -3 -10 -2 -10 3 0 12 -34 11 -42 -2 -5 -7 -8 -7
-8 3 0 8 -6 11 -16 7 -9 -4 -23 -1 -30 5 -9 7 -14 8 -14 1 0 -5 -7 -13 -16
-16 -15 -6 -15 -4 -3 11 10 12 10 15 1 9 -7 -4 -20 -2 -28 5 -13 10 -13 8 -4
-15 14 -37 13 -43 -4 -21 -7 10 -26 20 -42 22 -16 3 -30 8 -32 13 -2 5 -15 5
-30 -1 -19 -7 -28 -7 -30 1 -3 7 -11 5 -23 -6 -10 -9 -16 -20 -14 -25 3 -4 1
-11 -5 -14 -6 -4 -9 -1 -8 7 2 8 -5 12 -17 10 -16 -2 -17 -1 -5 7 12 8 12 13
2 23 -9 9 -12 9 -12 0 0 -7 -7 -12 -16 -12 -8 0 -12 5 -9 10 3 6 2 10 -4 10
-5 0 -13 -4 -16 -10 -9 -15 -32 11 -30 35 1 11 -3 28 -7 38 -6 11 -5 17 4 18
7 1 32 2 54 4 23 1 47 5 53 9 6 4 11 3 11 -3 0 -6 11 -6 29 -1 16 4 31 6 34 4
8 -9 47 -13 47 -5 0 4 14 7 30 6 17 -1 30 1 30 5 0 4 11 6 25 5 28 -4 86 15
97 30 5 6 8 5 8 -3 0 -10 5 -10 20 -2 11 6 18 16 14 21 -4 7 3 6 16 -1 15 -8
20 -8 16 -1 -4 6 0 11 8 11 9 0 16 4 16 9 0 5 16 16 35 25 19 9 35 21 35 27 0
6 4 8 9 5 8 -5 17 7 19 27 1 4 8 15 17 23 8 9 15 26 15 40 0 13 5 24 11 24 5
0 9 8 8 18 -1 9 0 19 1 22 5 15 5 60 -1 60 -4 0 -5 9 -2 20 3 12 0 20 -7 20
-7 0 -10 7 -6 15 5 14 -6 19 -41 18 -7 -1 -13 4 -13 9 0 6 -5 7 -13 2 -7 -5
-4 0 8 10 l20 19 -25 -7 c-22 -7 -34 -7 -77 -4 -7 1 -10 5 -7 10 3 5 10 6 15
3 5 -4 6 2 2 11 -4 11 -8 13 -11 6 -2 -7 -15 -12 -28 -12 -14 0 -23 4 -20 8
13 21 -151 -15 -181 -40 -14 -11 -15 -11 -8 1 6 10 4 12 -4 7 -7 -5 -10 -15
-6 -25 5 -13 4 -14 -6 -3 -17 16 -32 15 -26 -2 4 -11 -1 -13 -21 -10 -15 3
-31 10 -37 15 -7 7 -4 8 6 4 10 -4 20 -1 25 6 4 7 2 15 -4 17 -8 2 -7 8 3 19
17 17 20 43 4 43 -5 0 -8 -4 -4 -9 3 -5 1 -12 -5 -16 -16 -10 -12 22 5 39 20
20 19 30 -2 21 -15 -5 -16 -4 -5 6 14 15 16 33 2 24 -10 -6 -14 7 -11 31 1 7
-6 14 -14 18 -11 4 -14 2 -9 -6 4 -7 3 -8 -4 -4 -7 4 -12 14 -12 22 0 8 -4 13
-9 10 -5 -3 -11 4 -14 15 -4 15 -11 20 -21 16 -9 -4 -16 -2 -16 3 0 11 -43 14
-53 4z m-31 -120 c-5 -14 -4 -15 9 -4 14 11 19 7 16 -13 -1 -4 6 -15 14 -24 9
-8 14 -22 11 -30 -3 -8 -2 -11 3 -8 5 3 12 1 16 -5 3 -5 1 -10 -4 -10 -12 0
-10 -27 2 -47 10 -16 1 -33 -17 -33 -7 0 -11 -12 -10 -30 1 -16 -2 -30 -6 -30
-5 0 -7 -8 -6 -17 2 -9 -7 -26 -18 -37 -12 -12 -22 -28 -24 -36 -2 -8 -11 -21
-20 -28 -9 -7 -16 -20 -14 -29 2 -8 -1 -12 -6 -9 -6 3 -13 0 -15 -6 -4 -8 -6
-7 -6 4 -1 9 -6 20 -13 24 -7 5 -8 2 -3 -7 5 -8 5 -11 0 -7 -13 12 -14 128 -1
128 7 0 6 4 -3 9 -9 6 -10 11 -2 15 6 4 8 12 4 19 -10 17 -11 87 -1 87 5 0 6
5 3 10 -3 6 -2 10 4 10 6 0 8 7 5 15 -6 14 7 20 31 15 6 -1 7 2 3 5 -4 4 -3
17 3 28 8 14 8 18 0 13 -6 -4 -11 -2 -11 3 0 6 6 11 14 11 7 0 19 7 26 15 16
20 24 19 16 -1z m629 -163 c3 -5 0 -13 -6 -17 -7 -4 -9 -3 -5 4 3 5 0 13 -6
15 -9 4 -10 6 -1 6 6 1 14 -3 18 -8z m-185 -33 c0 -5 4 -7 9 -4 5 3 11 -4 14
-15 4 -14 10 -18 19 -13 7 4 10 4 6 -1 -4 -4 -4 -13 1 -19 20 -27 20 -47 -2
-67 -12 -12 -17 -19 -10 -15 6 3 15 1 19 -5 4 -7 3 -9 -3 -6 -12 8 -56 -27
-46 -37 3 -3 1 -6 -5 -6 -7 0 -12 -8 -12 -17 0 -15 -2 -16 -10 -3 -9 15 -11
13 -14 -12 -2 -18 -92 -39 -171 -40 -38 0 -76 -5 -82 -11 -9 -6 -13 -6 -13 2
0 6 -3 10 -7 10 -5 -1 -24 -1 -43 0 l-35 2 24 19 c13 11 20 20 15 20 -4 0 2
10 14 23 12 13 20 26 17 29 -8 8 55 67 79 74 12 4 23 10 26 14 16 23 110 76
140 79 19 1 36 4 38 5 6 7 32 2 32 -6z m-695 -488 c-3 -5 -12 -10 -18 -10 -7
0 -6 4 3 10 19 12 23 12 15 0z m455 0 c0 -5 -2 -10 -4 -10 -3 0 -8 5 -11 10
-3 6 -1 10 4 10 6 0 11 -4 11 -10z m-404 -25 c1 -8 -2 -13 -7 -9 -5 3 -9 12
-9 21 0 19 13 9 16 -12z m448 17 c3 -5 -1 -9 -9 -9 -8 0 -15 4 -15 9 0 4 4 8
9 8 6 0 12 -4 15 -8z m-37 -18 c-3 -3 -12 -4 -19 -1 -8 3 -5 6 6 6 11 1 17 -2
13 -5z m-426 -21 c9 -9 7 -11 -5 -9 -9 1 -21 7 -27 13 -9 9 -7 11 5 9 9 -1 21
-7 27 -13z m618 -6 c-2 -1 -13 -9 -24 -17 -19 -14 -19 -14 -6 3 7 9 18 17 24
17 6 0 8 -1 6 -3z m-1236 -28 c-6 -6 -9 -17 -7 -24 3 -7 1 -16 -5 -20 -7 -4
-8 1 -4 12 6 16 5 16 -10 4 -9 -7 -17 -10 -17 -6 0 4 10 15 23 26 24 20 38 26
20 8z m252 1 c-3 -5 -12 -10 -18 -10 -7 0 -6 4 3 10 19 12 23 12 15 0z m780
-20 c-2 -3 5 -6 15 -6 10 0 16 4 14 8 -3 4 0 8 5 8 6 0 11 -5 11 -10 0 -6 6
-5 14 2 8 7 11 17 8 22 -3 5 0 6 6 2 7 -4 12 -16 12 -27 0 -11 5 -17 10 -14 6
4 7 12 3 18 -4 7 1 6 10 -2 10 -8 20 -11 24 -7 3 3 17 -1 29 -9 17 -11 24 -12
27 -2 4 9 8 8 15 -2 9 -13 13 -13 28 0 10 8 15 9 11 3 -4 -8 5 -13 27 -16 19
-2 32 0 30 4 -3 4 2 5 10 2 10 -4 16 -1 16 7 1 8 6 4 13 -9 7 -12 16 -19 20
-16 11 11 57 11 57 0 0 -5 10 -1 22 10 15 13 18 14 10 3 -10 -14 -10 -18 2
-22 9 -4 18 -2 21 3 3 5 14 7 25 5 11 -2 20 1 20 7 0 6 7 5 17 -3 14 -12 16
-12 9 1 -4 8 2 5 13 -8 11 -13 25 -21 31 -17 5 3 19 1 30 -5 30 -16 59 -20 65
-9 9 14 22 11 29 -7 6 -15 4 -15 -11 -3 -16 11 -16 11 -5 -1 14 -16 17 -17 58
-19 14 0 23 -5 20 -10 -3 -5 1 -12 10 -15 8 -3 13 -2 10 3 -4 5 3 7 14 4 11
-3 20 -10 20 -15 0 -5 5 -6 10 -3 6 3 10 1 10 -4 0 -14 -13 -14 -28 1 -7 7
-12 8 -12 2 1 -15 50 -47 50 -33 0 7 7 4 16 -7 8 -10 13 -13 9 -7 -4 9 -1 11
10 7 9 -4 14 -13 11 -20 -3 -8 0 -11 10 -7 9 3 14 -1 14 -12 0 -9 4 -14 9 -10
5 3 12 1 16 -5 4 -6 11 -8 16 -5 5 3 6 -1 3 -9 -3 -9 -11 -13 -17 -9 -6 3 -7
1 -3 -6 6 -9 11 -9 22 0 12 10 13 9 8 -5 -4 -10 -1 -16 7 -16 11 0 11 -2 0 -9
-8 -5 -23 -7 -34 -5 -11 2 -27 -4 -34 -14 -8 -9 -12 -11 -8 -5 4 8 1 11 -9 7
-13 -5 -13 -10 -4 -27 10 -21 10 -21 -8 -5 -14 12 -23 14 -34 7 -12 -9 -12
-10 3 -5 11 3 16 2 12 -4 -3 -6 -13 -10 -21 -10 -8 0 -14 -6 -15 -12 0 -7 -4
-4 -9 7 -7 17 -9 17 -9 3 -1 -17 -11 -22 -38 -19 -7 1 -13 -3 -13 -9 0 -6 -4
-9 -10 -5 -5 3 -18 1 -30 -5 -11 -5 -29 -15 -40 -20 -14 -7 -27 -7 -39 0 -15
8 -20 6 -24 -11 -5 -17 -9 -19 -26 -9 -25 13 -27 3 -6 -20 14 -15 13 -17 -3
-15 -9 0 -23 4 -30 9 -6 4 -16 4 -22 1 -5 -3 -10 -1 -10 5 0 6 -5 8 -10 5 -6
-4 -10 -3 -9 2 5 30 -2 45 -21 40 -14 -4 -20 0 -21 11 0 14 -2 13 -9 -3 -5
-11 -9 -15 -9 -9 -1 16 -37 24 -50 11 -8 -8 -11 -7 -11 2 0 7 -4 9 -10 6 -5
-3 -10 -1 -10 5 0 8 -6 7 -22 -1 -17 -9 -20 -9 -16 3 5 11 -2 14 -26 13 -17
-1 -36 2 -42 6 -14 11 -106 21 -100 11 5 -9 -34 -10 -49 -1 -5 3 -22 5 -37 4
-16 0 -28 3 -28 9 0 5 -9 1 -20 -9 -11 -10 -23 -15 -27 -12 -3 4 -1 7 6 7 7 0
10 4 7 9 -3 5 -15 7 -26 4 -19 -5 -54 19 -43 31 3 3 0 12 -7 21 -7 8 -13 30
-15 47 -1 18 -5 40 -8 48 -10 22 -30 74 -32 80 -1 3 -9 22 -18 44 -18 41 -22
60 -9 53 4 -3 18 0 32 6 36 15 60 18 60 9 0 -5 7 -9 15 -9 15 0 19 10 16 36
-2 11 0 11 12 0 8 -8 13 -16 12 -19z m35 26 c0 -2 -7 -6 -15 -10 -8 -3 -15 -1
-15 4 0 6 7 10 15 10 8 0 15 -2 15 -4z m-114 -18 c4 -7 4 -10 -1 -6 -4 4 -14
3 -22 -3 -8 -8 -13 -8 -13 -1 0 6 6 13 13 15 6 3 13 6 14 6 1 1 5 -5 9 -11z
m474 9 c0 -2 -10 -12 -22 -23 l-23 -19 19 23 c18 21 26 27 26 19z m-1366 -37
c-6 -6 -10 -3 -10 10 0 13 4 16 10 10 7 -7 7 -13 0 -20z m392 -19 c-3 13 0 15
15 12 11 -3 19 0 19 6 0 7 5 9 10 6 6 -4 8 -11 4 -16 -9 -15 19 -6 34 11 12
13 13 13 9 0 -3 -10 2 -16 14 -17 10 -1 19 2 19 7 0 4 9 6 20 3 11 -3 20 -1
20 3 0 5 20 9 45 10 34 1 46 -3 50 -17 3 -9 12 -20 21 -23 13 -5 13 -9 -2 -31
-11 -17 -13 -25 -4 -25 7 0 10 -6 7 -14 -3 -8 -3 -17 1 -20 3 -4 7 -13 8 -21
5 -32 26 -85 34 -85 5 0 7 -7 4 -15 -4 -8 -1 -15 7 -15 7 0 10 -3 6 -6 -3 -3
-2 -17 4 -30 7 -19 5 -26 -7 -31 -9 -3 -20 0 -24 7 -5 8 -10 9 -14 2 -4 -6
-13 -9 -20 -6 -8 3 -17 0 -21 -6 -5 -8 -10 -8 -21 0 -18 16 -94 23 -94 9 0 -8
-4 -8 -13 0 -8 6 -24 8 -38 5 -13 -3 -32 -7 -42 -7 -10 -1 -16 -6 -14 -12 7
-16 -20 -38 -27 -22 -3 8 -14 1 -31 -18 -18 -20 -23 -23 -16 -9 13 26 3 38
-17 21 -13 -10 -14 -9 -7 3 6 12 5 12 -5 3 -7 -6 -19 -9 -28 -6 -10 4 -13 2
-8 -5 4 -7 2 -12 -3 -12 -6 0 -11 4 -11 8 0 4 -9 8 -20 8 -11 0 -20 -3 -20 -7
0 -4 -7 -10 -16 -13 -8 -3 -13 -2 -10 2 3 5 -8 9 -24 9 -16 0 -31 -6 -34 -13
-3 -8 0 -11 10 -7 8 3 21 -3 29 -13 16 -23 9 -40 -10 -24 -8 7 -20 8 -26 4 -8
-5 -9 -3 -4 6 11 17 -36 3 -51 -16 -6 -8 -17 -14 -23 -14 -8 0 -7 6 4 16 9 9
13 19 9 23 -4 3 -9 0 -11 -6 -6 -18 -23 -16 -23 2 0 8 -4 16 -10 16 -5 1 -16
2 -22 3 -7 0 -14 7 -14 14 -3 26 -5 26 -19 8 -14 -19 -21 -11 -16 17 1 5 -3 6
-8 3 -5 -4 -17 1 -25 10 -15 14 -20 11 -17 -8 0 -5 -4 -8 -10 -8 -5 0 -7 -5
-3 -12 5 -7 3 -8 -5 -4 -7 5 -11 13 -8 20 4 13 -28 47 -37 39 -3 -4 -6 -2 -6
4 0 6 -12 18 -26 28 -15 9 -23 12 -20 6 13 -21 -6 -11 -25 14 -12 14 -26 22
-34 18 -9 -3 -15 1 -15 11 0 9 -5 16 -12 16 -6 0 -1 9 12 20 13 11 27 20 31
20 5 0 5 8 2 17 -5 13 -2 15 12 10 16 -7 16 -5 4 10 -13 15 -12 16 9 11 12 -4
20 -3 18 1 -3 4 3 15 13 23 15 12 22 13 31 5 9 -9 9 -6 0 13 l-13 25 22 -19
c16 -15 21 -16 21 -5 0 8 -3 19 -7 25 -5 5 -1 1 9 -8 17 -19 33 -24 23 -8 -3
6 -1 10 4 10 6 0 11 -4 11 -10 0 -5 8 -10 18 -10 9 0 13 4 7 8 -14 10 -18 42
-5 42 5 0 10 -6 10 -14 0 -9 7 -12 20 -9 10 3 18 10 17 16 -1 6 7 12 18 14 16
3 17 2 5 -6 -13 -9 -13 -11 0 -11 9 0 22 6 29 13 8 6 11 7 8 1 -4 -6 2 -10 13
-9 25 2 39 15 17 15 -10 0 -17 4 -17 10 0 5 10 8 23 6 12 -3 22 -5 22 -7 0 -2
30 -7 78 -12 20 -2 37 -1 37 4 0 4 10 6 22 4 12 -3 26 1 31 8 7 9 10 9 14 -2
4 -9 8 -10 12 -2 4 6 19 12 34 13 15 1 27 7 27 13 1 5 8 -1 16 -15 8 -14 13
-18 10 -9z m-552 -7 c3 -8 2 -12 -4 -9 -6 3 -10 10 -10 16 0 14 7 11 14 -7z
m71 -24 c3 -5 1 -10 -4 -10 -6 0 -11 5 -11 10 0 6 2 10 4 10 3 0 8 -4 11 -10z
m-167 -125 c-3 -3 -9 2 -12 12 -6 14 -5 15 5 6 7 -7 10 -15 7 -18z m847 -165
c3 -5 1 -10 -4 -10 -6 0 -11 5 -11 10 0 6 2 10 4 10 3 0 8 -4 11 -10z m-95
-20 c-6 -11 -13 -20 -16 -20 -2 0 0 9 6 20 6 11 13 20 16 20 2 0 0 -9 -6 -20z
m1360 6 c0 -3 -4 -8 -10 -11 -5 -3 -10 -1 -10 4 0 6 5 11 10 11 6 0 10 -2 10
-4z m-2186 -14 c2 -4 -5 -9 -17 -9 -17 -2 -19 0 -7 7 18 12 18 12 24 2z m287
-15 c-7 -7 -14 -8 -21 -1 -6 6 -2 10 12 11 16 2 18 -1 9 -10z m473 -12 c-7
-18 -20 -19 -30 -3 -4 7 -3 8 4 4 7 -4 12 -2 12 3 0 6 4 11 10 11 5 0 7 -7 4
-15z m-614 -35 c0 -8 11 -11 30 -8 16 3 28 2 25 0 -2 -3 0 -13 6 -24 8 -14 14
-17 23 -8 10 8 15 5 19 -11 4 -14 11 -20 21 -16 9 4 16 3 16 -2 0 -5 9 -11 20
-14 11 -3 18 -1 14 4 -3 5 2 6 10 3 9 -3 16 -11 16 -16 0 -6 13 -8 29 -6 17 2
28 1 25 -3 -2 -5 12 -11 33 -15 21 -4 42 -12 46 -18 6 -8 10 -7 14 1 3 10 8 9
20 -2 9 -10 23 -13 35 -9 15 4 18 3 13 -6 -6 -9 -4 -11 6 -4 19 11 59 13 59 2
0 -4 11 -6 25 -2 16 4 25 2 25 -6 0 -7 8 -10 20 -7 11 3 20 1 20 -5 0 -5 5 -6
12 -2 6 4 8 3 5 -3 -10 -15 18 -24 32 -10 6 6 11 7 11 1 0 -5 9 -10 20 -11 11
-1 20 4 20 10 0 8 3 9 8 1 15 -22 78 -39 87 -24 4 6 17 2 32 -10 27 -21 53
-26 53 -11 0 9 60 4 69 -5 2 -2 11 2 19 9 13 10 15 9 9 -5 -5 -15 -2 -16 18
-8 13 5 34 7 46 5 13 -3 27 1 31 8 6 9 8 9 8 -1 0 -8 5 -10 13 -5 20 12 37 12
37 0 0 -7 4 -6 9 2 8 12 12 12 25 2 12 -10 19 -10 36 2 12 8 17 18 12 21 -6 3
-12 -1 -16 -9 -3 -8 -10 -15 -16 -15 -6 0 -4 7 4 16 9 8 16 20 16 25 0 5 5 9
12 9 6 0 8 -3 5 -7 -4 -3 -2 -12 4 -20 13 -15 43 -18 34 -3 -3 6 -2 10 4 10 5
0 12 -6 15 -12 5 -10 7 -10 12 0 3 6 10 9 15 6 18 -11 59 -11 59 -1 0 7 4 7
12 -1 18 -18 31 -15 24 6 -6 16 -5 16 8 -1 11 -14 19 -15 39 -8 14 5 28 7 31
4 3 -4 6 2 6 13 0 14 2 16 9 5 6 -9 11 -10 15 -2 5 7 15 7 32 1 19 -7 23 -7
18 2 -5 7 -2 9 9 5 9 -3 18 0 21 9 3 8 10 14 16 14 6 0 8 -5 4 -11 -4 -7 1 -7
16 1 15 8 20 8 16 1 -4 -6 -3 -11 3 -11 5 0 13 9 16 21 5 16 12 19 28 14 40
-11 67 -12 67 -3 0 6 7 8 15 5 8 -4 23 5 35 21 11 15 19 20 18 12 -4 -19 39
-15 59 6 15 14 27 18 52 15 7 -2 10 2 6 8 -9 15 8 14 24 -1 11 -11 12 -10 6 0
-5 9 -1 12 11 10 13 -2 18 2 16 12 -2 8 0 12 4 8 4 -4 14 -2 22 5 11 8 14 8 9
0 -5 -7 7 -6 33 4 23 9 37 20 33 27 -3 6 -2 7 3 3 11 -10 15 -79 4 -72 -4 3
-10 -2 -14 -10 -3 -8 -1 -15 5 -15 5 0 1 -12 -8 -27 -10 -15 -12 -24 -5 -20 6
5 12 4 12 -2 0 -6 -6 -11 -12 -11 -9 0 -8 -4 2 -10 12 -8 12 -10 1 -10 -11 0
-10 -5 5 -22 10 -13 12 -17 4 -10 -17 15 -34 16 -25 2 4 -6 3 -16 -3 -23 -5
-7 -8 -24 -7 -39 1 -16 -1 -28 -4 -28 -4 0 -8 -9 -9 -20 -5 -52 -7 -56 -35
-51 -5 1 -5 -3 -2 -9 4 -7 -2 -14 -15 -17 -14 -4 -18 -8 -10 -13 7 -4 -3 -10
-24 -14 -20 -4 -36 -12 -36 -19 0 -7 -4 -6 -10 3 -8 12 -10 12 -10 1 0 -11 -3
-11 -17 0 -12 10 -15 10 -9 1 9 -15 -32 -52 -51 -45 -7 3 -13 1 -13 -4 0 -6
-19 -16 -42 -23 -24 -8 -47 -17 -53 -21 -5 -3 -23 -6 -40 -5 -16 0 -35 -5 -40
-12 -12 -15 -73 -24 -182 -26 -46 0 -83 -3 -83 -6 0 -3 -27 -5 -60 -5 -33 0
-60 3 -60 6 0 4 -15 4 -32 2 -49 -6 -148 -9 -153 -5 -2 3 -47 6 -99 7 -68 2
-94 -1 -89 -9 4 -7 2 -7 -8 1 -8 6 -31 10 -52 9 -22 -2 -37 1 -37 8 0 7 -3 8
-8 1 -6 -10 -23 -12 -37 -5 -13 7 -31 5 -43 -3 -9 -7 -11 -6 -7 5 5 12 -4 15
-45 13 -34 -1 -57 3 -66 12 -12 12 -14 12 -14 0 0 -7 -7 -14 -15 -14 -8 0 -12
4 -9 9 3 4 2 8 -3 9 -71 5 -101 4 -96 -4 4 -6 1 -7 -8 -1 -19 11 -36 15 -82
16 -40 1 -55 12 -36 24 8 5 9 3 4 -6 -5 -9 -4 -11 4 -6 20 13 0 28 -31 24 -16
-3 -32 0 -35 5 -3 6 -2 8 3 5 5 -3 14 0 21 7 9 10 6 13 -13 13 -14 0 -31 8
-39 18 -13 17 -14 17 -15 2 0 -11 -6 -15 -21 -11 -13 4 -17 8 -9 13 10 6 -13
19 -44 24 -5 0 -11 8 -13 16 -3 9 -1 11 4 5 4 -5 19 -11 33 -12 23 -2 23 -2
-5 11 -16 8 -39 12 -49 10 -11 -2 -23 1 -26 7 -4 5 -17 11 -28 12 -12 1 -22 5
-22 10 0 5 -8 6 -17 3 -15 -5 -15 -4 1 9 11 8 14 15 8 15 -7 0 -12 13 -12 29
0 17 -4 32 -9 35 -5 3 -8 24 -7 45 0 22 -3 37 -8 33 -5 -3 -7 2 -3 11 3 10 2
17 -3 17 -6 0 -10 7 -10 16 0 8 -5 12 -11 8 -8 -5 -8 -1 0 14 7 14 8 23 1 27
-6 4 -8 11 -5 16 4 5 0 9 -7 10 -7 0 -4 4 7 9 11 5 15 9 8 9 -6 1 -10 10 -8
21 2 11 -1 20 -6 20 -6 0 -7 5 -4 10 3 6 1 10 -5 10 -7 0 -5 7 4 16 9 8 19 13
24 10 4 -2 14 -1 22 4 14 9 40 -10 40 -30z m500 30 c0 -5 -5 -10 -11 -10 -5 0
-7 5 -4 10 3 6 8 10 11 10 2 0 4 -4 4 -10z m-460 -14 c0 -2 -7 -7 -16 -10 -8
-3 -12 -2 -9 4 6 10 25 14 25 6z m130 -6 c0 -5 -2 -10 -4 -10 -3 0 -8 5 -11
10 -3 6 -1 10 4 10 6 0 11 -4 11 -10z m335 -10 c-3 -5 -12 -10 -18 -10 -7 0
-6 4 3 10 19 12 23 12 15 0z m-395 -10 c0 -5 -4 -10 -10 -10 -5 0 -10 5 -10
10 0 6 5 10 10 10 6 0 10 -4 10 -10z m710 -2 c0 -5 8 -4 18 1 14 7 25 6 42 -6
22 -15 23 -15 17 0 -3 9 -2 17 3 17 6 0 10 -4 10 -8 0 -4 14 -9 32 -10 18 -2
35 -7 39 -13 4 -7 13 -8 25 -2 20 10 41 9 84 -2 14 -4 57 -6 95 -6 39 0 77 -4
85 -9 9 -6 18 -3 28 8 7 9 11 12 8 6 -8 -16 12 -22 62 -21 23 1 42 -1 42 -5 0
-5 -6 -8 -14 -8 -8 0 -17 -8 -20 -17 -6 -15 -8 -15 -16 -3 -9 13 -10 13 -10 0
0 -12 -2 -13 -9 -1 -5 7 -14 10 -20 7 -6 -4 -8 -12 -5 -18 4 -6 2 -8 -4 -4 -6
3 -13 -2 -15 -11 -2 -10 -3 -6 -2 10 2 27 1 27 -23 11 -13 -9 -22 -11 -18 -6
3 6 2 13 -4 17 -5 3 -10 0 -10 -7 0 -8 -3 -9 -8 -3 -12 18 -54 15 -69 -3 -8
-9 -12 -12 -9 -6 3 7 -3 14 -14 17 -11 3 -20 1 -20 -3 0 -5 -17 -9 -38 -8 -22
0 -48 -4 -58 -10 -11 -6 -26 -7 -34 -2 -24 13 -83 18 -107 9 -15 -5 -23 -5
-23 2 0 6 -4 8 -8 5 -4 -2 -14 -1 -22 4 -10 6 -21 3 -33 -8 -18 -16 -20 -16
-32 1 -8 12 -15 14 -20 8 -3 -6 -11 -11 -16 -11 -6 0 -8 4 -5 8 2 4 -20 8 -49
7 -42 0 -51 3 -43 13 7 8 7 12 0 12 -5 0 -15 -7 -22 -15 -13 -16 -35 -10 -24
6 3 5 10 6 16 3 7 -4 8 -2 4 4 -4 6 -13 9 -20 6 -16 -6 -30 22 -16 31 6 4 10
2 10 -3 0 -10 71 -9 88 2 7 4 12 2 12 -5 0 -7 7 -4 16 7 8 10 13 13 9 7 -7
-16 5 -16 40 -3 14 5 24 6 21 2 -2 -4 4 -9 15 -9 10 -1 19 3 19 8 0 6 -5 7
-12 3 -6 -4 -8 -3 -5 3 8 12 37 13 37 1z m-262 -43 c-1 -2 -17 -6 -33 -10
l-30 -6 25 15 c16 10 19 15 10 16 -13 0 -13 1 0 10 10 6 17 4 23 -6 5 -9 7
-17 5 -19z m-428 11 c0 -3 -4 -8 -10 -11 -5 -3 -10 -1 -10 4 0 6 5 11 10 11 6
0 10 -2 10 -4z m1312 -13 c-5 -10 -8 -25 -5 -33 2 -8 -2 -5 -9 8 -9 19 -9 25
3 33 20 12 21 11 11 -8z m478 13 c0 -3 -4 -8 -10 -11 -5 -3 -10 -1 -10 4 0 6
5 11 10 11 6 0 10 -2 10 -4z m265 -17 c-10 -15 -25 -10 -19 6 4 8 10 12 15 9
5 -3 7 -10 4 -15z m-1701 -7 c3 -5 -1 -9 -9 -9 -8 0 -12 4 -9 9 3 4 7 8 9 8 2
0 6 -4 9 -8z m-591 -37 c-7 -21 -12 -19 -10 4 0 11 5 18 9 15 4 -3 5 -11 1
-19z m2217 -25 c0 -5 -6 -12 -12 -16 -7 -4 -10 -4 -6 1 4 4 3 14 -4 22 -8 11
-7 12 6 7 9 -3 16 -10 16 -14z m-1026 2 c3 -5 -1 -9 -9 -9 -8 0 -12 4 -9 9 3
4 7 8 9 8 2 0 6 -4 9 -8z m30 -68 c3 -8 2 -12 -4 -9 -6 3 -10 10 -10 16 0 14
7 11 14 -7z m-1119 -194 c3 -5 1 -10 -4 -10 -6 0 -11 5 -11 10 0 6 2 10 4 10
3 0 8 -4 11 -10z m152 -142 c-3 -8 -6 -5 -6 6 -1 11 2 17 5 13 3 -3 4 -12 1
-19z m-67 -12 c0 -3 -4 -8 -10 -11 -5 -3 -10 -1 -10 4 0 6 5 11 10 11 6 0 10
-2 10 -4z m33 -21 c-3 -9 -8 -14 -10 -11 -3 3 -2 9 2 15 9 16 15 13 8 -4z m41
9 c9 -3 13 -10 10 -15 -3 -5 1 -6 9 -3 18 6 59 -10 82 -32 10 -10 30 -19 44
-19 14 0 32 -4 39 -9 8 -5 18 -4 25 3 7 7 14 5 24 -7 10 -11 16 -13 19 -5 3 7
14 9 34 3 16 -4 31 -6 34 -2 3 3 6 -3 6 -14 0 -14 3 -15 8 -6 6 9 16 10 34 3
18 -7 29 -6 37 2 6 6 11 7 11 1 0 -5 9 -10 20 -10 11 0 20 4 20 8 0 4 6 6 13
3 27 -9 95 -17 154 -18 35 -1 63 -4 63 -7 0 -5 47 -5 140 -1 19 1 73 -1 120
-4 98 -6 87 -6 165 -1 161 13 199 17 283 31 15 2 45 7 67 10 22 4 47 9 55 11
8 3 16 5 18 4 1 0 15 6 31 14 16 9 31 12 35 9 3 -4 6 0 6 7 0 7 3 11 6 7 4 -3
20 1 36 9 17 9 32 13 36 10 3 -3 -1 -6 -8 -6 -9 0 -7 -5 6 -16 10 -8 13 -13 6
-9 -9 5 -11 0 -8 -19 3 -17 1 -23 -8 -20 -9 4 -14 -5 -14 -28 0 -18 -1 -49 -1
-68 -2 -53 3 -74 19 -88 8 -8 9 -11 3 -7 -11 5 -17 -6 -14 -27 0 -4 -6 -22
-14 -41 -11 -26 -11 -37 -2 -47 9 -10 9 -13 0 -17 -7 -2 -10 -10 -7 -18 3 -7
0 -16 -6 -20 -8 -5 -8 -11 1 -21 7 -8 7 -14 1 -14 -5 0 -9 -24 -9 -54 0 -35 3
-54 11 -52 6 2 8 1 4 -1 -5 -3 -8 -11 -8 -19 0 -8 -6 -11 -15 -7 -10 3 -15 0
-13 -8 2 -7 -4 -13 -12 -14 -8 0 -14 -6 -13 -13 2 -7 -3 -12 -11 -12 -12 0
-28 -21 -30 -42 -1 -4 -7 -13 -15 -20 -10 -10 -12 -10 -7 -1 4 7 2 13 -3 13
-6 0 -11 -5 -11 -11 0 -6 -7 -8 -16 -5 -8 3 -13 2 -9 -3 8 -14 -17 -20 -37 -9
-14 6 -16 5 -12 -7 6 -13 -13 -21 -32 -12 -3 1 -10 -6 -15 -15 -6 -10 -15 -18
-20 -18 -6 0 -8 4 -5 8 2 4 -4 9 -15 9 -11 1 -17 -2 -15 -6 3 -4 -5 -8 -17 -8
-15 -2 -18 0 -9 6 11 6 10 12 -4 26 -17 17 -17 17 4 11 16 -5 22 -3 22 7 0 9
6 18 13 21 6 3 2 3 -9 1 -19 -5 -21 -1 -20 29 0 19 4 38 9 42 10 10 9 26 -2
20 -5 -4 -4 8 2 25 9 25 9 33 0 36 -7 3 -13 11 -13 19 0 9 -4 12 -10 9 -5 -3
-10 -2 -10 4 0 5 8 12 18 14 16 4 16 5 -1 6 -10 0 -23 -10 -29 -25 -10 -20
-18 -25 -39 -22 -24 4 -26 2 -19 -13 7 -12 5 -19 -6 -23 -8 -3 -12 -2 -9 4 3
6 3 16 -2 23 -5 7 -10 -5 -14 -33 -3 -25 -3 -46 0 -48 10 -4 0 -72 -11 -72 -5
0 -6 -4 -3 -10 3 -5 1 -10 -6 -10 -9 0 -9 -3 0 -14 6 -7 9 -21 5 -30 -3 -9 -1
-16 6 -16 6 0 8 5 4 12 -4 7 -3 8 4 4 20 -12 -19 -57 -45 -53 -16 3 -23 -1
-24 -12 0 -10 -2 -12 -6 -3 -2 6 -11 12 -19 12 -7 0 -11 -6 -8 -14 3 -8 0 -17
-6 -21 -6 -3 -10 -3 -9 2 4 21 -2 33 -16 33 -8 0 -15 -4 -15 -8 0 -4 -9 -8
-20 -9 -13 -1 -18 2 -13 10 5 9 3 9 -8 0 -8 -7 -24 -11 -35 -9 -10 2 -13 1 -6
-1 6 -3 12 -9 12 -15 0 -6 -3 -9 -6 -5 -4 3 -15 -4 -25 -16 -14 -18 -20 -20
-31 -9 -11 11 -10 12 5 7 10 -4 17 -2 17 4 0 6 -9 11 -20 11 -11 0 -20 5 -20
11 0 6 -7 8 -16 5 -8 -3 -24 -1 -36 5 -15 8 -24 7 -38 -6 -12 -11 -20 -13 -25
-6 -3 6 -19 11 -34 11 -15 0 -31 3 -35 7 -4 4 -19 9 -34 11 -15 2 -29 8 -33
13 -3 6 -9 1 -12 -10 -7 -28 -47 -28 -54 0 -4 16 -8 17 -14 7 -6 -9 -9 -10 -9
-1 0 7 -7 10 -17 6 -9 -4 -14 -2 -11 3 4 5 -15 10 -41 10 -54 1 -75 10 -64 27
4 7 -1 6 -11 -2 -14 -12 -19 -12 -26 -2 -4 8 -13 10 -21 6 -8 -6 -11 -4 -7 7
4 9 0 15 -8 15 -8 0 -14 -5 -14 -10 0 -6 -3 -7 -7 -4 -3 4 -12 2 -20 -5 -10
-8 -12 -8 -8 4 3 8 -3 22 -14 32 -19 17 -19 17 -14 -4 5 -17 -1 -14 -33 16
-22 20 -38 41 -36 46 1 5 -2 7 -8 3 -5 -3 -22 6 -37 22 -16 15 -32 27 -36 25
-5 -1 -6 2 -2 8 3 5 1 10 -5 10 -6 0 -8 5 -5 10 3 6 1 11 -4 11 -26 3 -30 4
-37 12 -4 4 -1 7 7 7 10 1 9 4 -4 14 -18 14 -19 36 -3 47 5 4 -1 12 -13 18
-20 11 -20 13 -3 38 9 15 11 24 5 20 -7 -5 -13 -4 -13 2 0 5 4 12 10 16 11 7
1 35 -20 55 -9 8 -11 12 -5 8 13 -8 13 15 0 45 -4 10 -5 32 -1 50 4 19 3 27
-3 19 -7 -11 -9 -11 -14 2 -4 9 -2 16 3 16 6 0 10 9 10 20 0 14 -5 18 -17 13
-10 -3 -15 -3 -11 2 4 4 0 14 -10 22 -9 8 -11 12 -4 8 22 -11 37 7 17 21 -17
12 -17 14 -1 20 13 5 14 9 4 21 -9 12 -21 113 -12 113 1 0 9 -3 18 -6z m-46
-179 c-3 -3 -9 2 -12 12 -6 14 -5 15 5 6 7 -7 10 -15 7 -18z m1759 -90 c0 -8
-4 -12 -9 -9 -5 3 -6 10 -3 15 9 13 12 11 12 -6z m-1707 -39 c0 -3 -4 -8 -10
-11 -5 -3 -10 -1 -10 4 0 6 5 11 10 11 6 0 10 -2 10 -4z m-73 -12 c-3 -3 -12
-4 -19 -1 -8 3 -5 6 6 6 11 1 17 -2 13 -5z m1840 -170 c-3 -3 -12 -4 -19 -1
-8 3 -5 6 6 6 11 1 17 -2 13 -5z m-477 -104 c0 -5 -2 -10 -4 -10 -3 0 -8 5
-11 10 -3 6 -1 10 4 10 6 0 11 -4 11 -10z m105 -209 c3 -5 2 -12 -3 -15 -5 -3
-9 1 -9 9 0 17 3 19 12 6z m-107 -36 c-3 -3 -9 2 -12 12 -6 14 -5 15 5 6 7 -7
10 -15 7 -18z m287 15 c3 -6 -1 -7 -9 -4 -18 7 -21 14 -7 14 6 0 13 -4 16 -10z
m-1160 -20 c-3 -5 -12 -10 -18 -10 -7 0 -6 4 3 10 19 12 23 12 15 0z m785 0
c0 -5 -2 -10 -4 -10 -3 0 -8 5 -11 10 -3 6 -1 10 4 10 6 0 11 -4 11 -10z
m-855 -10 c-3 -5 -12 -10 -18 -10 -7 0 -6 4 3 10 19 12 23 12 15 0z m175 0 c0
-5 -7 -7 -15 -4 -8 4 -15 8 -15 10 0 2 7 4 15 4 8 0 15 -4 15 -10z m-100 -22
c0 -4 -4 -8 -9 -8 -6 0 -12 4 -15 8 -3 5 1 9 9 9 8 0 15 -4 15 -9z m240 8 c0
-2 -7 -7 -16 -10 -8 -3 -12 -2 -9 4 6 10 25 14 25 6z m170 -6 c13 -8 12 -10
-3 -10 -12 0 -16 -4 -11 -12 4 -7 3 -9 -1 -5 -11 9 -16 37 -7 37 4 0 14 -5 22
-10z m350 -80 c0 -5 -5 -10 -11 -10 -5 0 -7 5 -4 10 3 6 8 10 11 10 2 0 4 -4
4 -10z"/>
<path d="M2430 1689 c0 -5 5 -7 10 -4 6 3 10 8 10 11 0 2 -4 4 -10 4 -5 0 -10
-5 -10 -11z"/>
<path d="M2171 1631 c-8 -5 -9 -11 -3 -15 5 -3 12 1 16 9 6 17 6 18 -13 6z"/>
<path d="M1037 1693 c3 -7 9 -10 14 -7 14 8 11 21 -5 21 -8 0 -12 -6 -9 -14z"/>
<path d="M1075 1700 c3 -5 8 -10 11 -10 2 0 4 5 4 10 0 6 -5 10 -11 10 -5 0
-7 -4 -4 -10z"/>
<path d="M840 1636 c0 -2 8 -10 18 -17 15 -13 16 -12 3 4 -13 16 -21 21 -21
13z"/>
<path d="M415 1620 c-3 -5 -1 -10 4 -10 6 0 11 5 11 10 0 6 -2 10 -4 10 -3 0
-8 -4 -11 -10z"/>
<path d="M450 1626 c0 -2 7 -7 16 -10 8 -3 12 -2 9 4 -6 10 -25 14 -25 6z"/>
<path d="M2545 1560 c-3 -5 -1 -10 4 -10 6 0 11 5 11 10 0 6 -2 10 -4 10 -3 0
-8 -4 -11 -10z"/>
<path d="M2125 1451 c-3 -5 -1 -12 5 -16 5 -3 10 -1 10 5 0 6 5 8 12 4 7 -4 8
-3 4 4 -9 14 -23 15 -31 3z"/>
<path d="M2103 654 c-5 -13 -7 -13 -14 -2 -7 10 -11 10 -17 1 -4 -6 -20 -16
-35 -22 -15 -6 -27 -16 -27 -23 0 -9 3 -9 11 2 8 12 9 9 4 -10 -10 -36 -12
-119 -3 -114 4 3 8 -2 8 -10 0 -10 6 -13 15 -10 8 4 12 11 8 17 -3 6 -1 7 6 3
20 -13 51 3 44 22 -6 15 -5 15 10 4 14 -12 16 -11 12 7 -2 12 0 19 4 16 5 -2
14 2 20 9 9 11 9 16 0 22 -8 4 -9 3 -5 -4 4 -7 2 -12 -3 -12 -14 0 -14 27 0
35 6 4 8 14 5 22 -3 8 -1 11 4 8 6 -3 10 -1 10 4 0 6 -4 11 -10 11 -5 0 -9 3
-9 8 5 33 -26 47 -38 16z m27 -3 c0 -6 -4 -12 -8 -15 -5 -3 -9 1 -9 9 0 8 4
15 9 15 4 0 8 -4 8 -9z m-55 -31 c3 -6 -1 -7 -9 -4 -18 7 -21 14 -7 14 6 0 13
-4 16 -10z"/>
<path d="M1895 520 c-3 -5 -1 -10 4 -10 6 0 11 5 11 10 0 6 -2 10 -4 10 -3 0
-8 -4 -11 -10z"/>
<path d="M1965 360 c3 -5 8 -10 11 -10 2 0 4 5 4 10 0 6 -5 10 -11 10 -5 0 -7
-4 -4 -10z"/>
<path d="M1540 196 c0 -3 9 -10 20 -16 11 -6 20 -8 20 -6 0 3 -9 10 -20 16
-11 6 -20 8 -20 6z"/>
<path d="M273 1517 c0 -8 6 -14 13 -14 7 0 10 6 7 14 -3 7 -8 13 -12 13 -4 0
-8 -6 -8 -13z"/>
<path d="M930 156 c28 -17 50 -21 35 -7 -6 5 -21 12 -35 15 l-25 7 25 -15z"/>
<path d="M1430 60 c0 -5 5 -10 11 -10 5 0 7 5 4 10 -3 6 -8 10 -11 10 -2 0 -4
-4 -4 -10z"/>
</g>
</svg>
