<?xml version="1.0" standalone="no"?>
<!DOCTYPE svg PUBLIC "-//W3C//DTD SVG 20010904//EN"
 "http://www.w3.org/TR/2001/REC-SVG-20010904/DTD/svg10.dtd">
<svg version="1.0" xmlns="http://www.w3.org/2000/svg"
 width="300.000000pt" height="300.000000pt" viewBox="0 0 300.000000 300.000000"
 preserveAspectRatio="xMidYMid meet">
<metadata>
Created by potrace 1.11, written by Peter Selinger 2001-2013
</metadata>
<g transform="translate(0.000000,300.000000) scale(0.100000,-0.100000)"
fill="#000000" stroke="none">
<path d="M1420 2952 c0 -5 -39 -10 -86 -10 -47 0 -91 -5 -98 -11 -7 -6 -18 -6
-25 -1 -17 10 -43 2 -54 -17 -4 -7 -13 -13 -18 -13 -6 0 -7 5 -3 11 4 8 1 8
-12 1 -11 -5 -25 -7 -33 -4 -8 3 -11 0 -7 -7 7 -11 3 -12 -56 -14 -18 0 -38
-7 -44 -15 -11 -15 -74 -23 -74 -10 0 4 -13 -6 -30 -24 -16 -17 -30 -25 -30
-18 0 10 -3 10 -15 0 -8 -7 -15 -10 -15 -6 0 3 -16 -10 -36 -29 -20 -19 -40
-33 -45 -30 -5 4 -6 -1 -3 -9 4 -10 0 -13 -13 -10 -12 4 -26 -5 -41 -25 -14
-19 -28 -28 -37 -25 -9 4 -15 0 -15 -9 0 -9 -13 -18 -30 -22 -16 -4 -30 -12
-30 -19 0 -24 -50 -68 -70 -63 -19 5 -35 -17 -24 -34 3 -5 -3 -12 -13 -16 -23
-8 -53 -39 -53 -53 0 -6 -4 -8 -10 -5 -5 3 -10 1 -10 -5 0 -6 -5 -8 -12 -4 -8
5 -9 2 -5 -9 3 -9 3 -16 -1 -16 -20 3 -23 -3 -11 -18 12 -15 12 -16 -3 -10
-14 5 -18 1 -18 -19 0 -14 -4 -23 -8 -20 -5 3 -15 -7 -23 -22 -7 -15 -20 -35
-27 -44 -8 -10 -12 -24 -9 -33 4 -9 1 -15 -7 -15 -8 0 -17 -11 -20 -25 -4 -17
-11 -23 -19 -18 -8 5 -8 2 1 -9 10 -13 10 -18 1 -24 -8 -4 -9 -3 -5 4 4 7 5
12 2 12 -9 0 -36 -62 -30 -71 3 -5 1 -9 -3 -9 -11 0 -8 -53 2 -71 5 -7 4 -10
-2 -6 -10 6 -32 -26 -36 -53 -2 -8 -6 -20 -10 -27 -4 -6 -3 -14 2 -17 5 -4 7
-20 5 -36 -4 -24 -2 -30 12 -30 17 0 16 -1 -1 -13 -10 -8 -15 -19 -11 -25 3
-5 0 -13 -6 -15 -10 -4 -10 -7 0 -15 11 -8 11 -10 -2 -15 -22 -9 -39 -44 -24
-53 6 -4 8 -3 4 4 -7 12 20 10 31 -3 4 -4 3 -5 -3 -2 -6 3 -18 -3 -27 -14 -10
-10 -12 -19 -6 -19 8 0 7 -5 -1 -15 -7 -8 -9 -15 -4 -15 5 0 2 -5 -6 -10 -12
-7 -12 -10 -1 -10 7 0 11 -6 8 -14 -3 -8 1 -20 8 -26 16 -13 11 -30 -8 -30 -8
0 -8 3 1 9 11 7 11 9 -1 14 -10 4 -14 0 -12 -11 1 -9 -1 -24 -6 -33 -6 -12 -2
-15 22 -13 16 1 26 -2 23 -7 -3 -5 -9 -7 -14 -4 -4 3 -16 2 -25 -1 -15 -6 -14
-9 6 -21 13 -8 16 -12 7 -9 -10 3 -20 1 -23 -4 -4 -6 -2 -10 4 -10 13 0 7 -33
-7 -38 -7 -2 -9 -9 -5 -14 3 -6 5 -28 5 -48 -1 -21 4 -43 12 -49 8 -6 11 -22
8 -37 -3 -16 1 -30 9 -35 11 -7 10 -9 -5 -9 -12 0 -16 -5 -12 -16 3 -9 6 -18
6 -20 0 -3 4 -3 9 1 6 3 9 -4 8 -15 -1 -20 -17 -29 -17 -10 0 6 -3 10 -8 10
-4 0 -8 -31 -8 -70 0 -55 3 -70 14 -70 12 0 12 3 2 15 -18 22 -8 25 12 4 16
-17 16 -18 -3 -24 -10 -4 -19 -11 -19 -16 0 -6 4 -8 9 -5 5 3 8 -2 7 -12 0 -9
4 -16 10 -15 6 1 11 -4 11 -12 0 -7 -6 -11 -13 -8 -8 3 -11 -5 -10 -26 1 -17
-3 -31 -8 -31 -7 0 -8 -3 -1 -8 13 -9 14 -105 0 -114 -6 -5 -5 -8 3 -8 7 0 12
-8 11 -17 -1 -10 1 -25 4 -33 11 -30 14 -71 6 -76 -5 -3 -4 -15 3 -27 7 -12
11 -26 10 -31 -2 -5 4 -16 13 -26 8 -9 12 -20 8 -23 -3 -4 -1 -7 5 -7 7 0 12
-5 12 -11 0 -5 -5 -7 -10 -4 -15 9 -6 -30 10 -47 8 -9 22 -26 30 -38 8 -12 25
-34 37 -48 12 -15 25 -39 29 -55 3 -16 12 -31 20 -34 8 -3 11 -9 8 -14 -3 -5
0 -9 6 -9 6 0 9 -4 6 -9 -4 -5 3 -7 14 -4 15 4 20 0 20 -14 0 -11 12 -26 27
-34 28 -14 60 -49 56 -61 -1 -3 5 -5 15 -3 9 1 25 -4 36 -11 10 -7 23 -11 30
-10 6 2 8 1 4 -1 -13 -7 -9 -20 8 -27 10 -4 13 -2 8 6 -5 7 -3 8 5 4 7 -5 10
-15 6 -23 -4 -13 -3 -14 10 -3 12 10 15 10 15 -4 0 -19 11 -21 29 -3 10 10 12
9 9 -3 -2 -8 3 -14 10 -12 6 1 12 -4 12 -10 0 -10 2 -10 8 -1 6 10 14 9 37 -3
32 -16 142 -11 161 9 4 4 13 -1 20 -11 9 -11 13 -12 14 -4 0 7 20 21 45 32 25
11 45 25 45 31 0 7 3 9 7 6 8 -9 36 31 29 42 -3 5 2 8 11 7 10 0 18 6 18 14 2
26 16 50 30 50 8 0 17 5 21 12 4 7 3 8 -4 4 -7 -4 -12 -3 -12 2 0 6 7 13 16
16 8 3 13 10 10 15 -3 5 1 11 9 15 15 5 21 27 8 25 -20 -3 -22 3 -5 19 9 11
20 17 24 15 4 -2 5 3 2 11 -4 9 -1 16 6 16 8 0 10 9 6 26 -5 17 -3 23 4 19 5
-3 10 -1 10 4 0 6 -4 11 -10 11 -5 0 -10 5 -10 10 0 6 6 10 14 10 8 0 17 7 20
16 10 26 7 29 -10 8 -15 -19 -16 -19 -9 1 4 11 8 27 9 35 1 9 5 21 10 28 4 7
2 12 -6 12 -10 1 -9 4 2 13 9 7 15 21 15 32 -1 11 5 30 12 43 12 19 11 23 -1
28 -8 3 -17 12 -20 19 -3 10 0 12 11 8 10 -4 14 -2 9 5 -3 6 -2 13 4 17 7 4 7
12 0 26 -7 12 -7 19 -1 19 6 0 8 7 5 15 -4 8 -11 12 -18 8 -8 -5 -8 -3 0 8 11
13 10 111 -1 129 -3 4 1 11 7 13 10 4 10 7 1 14 -7 5 -15 20 -17 33 -2 14 -5
26 -7 28 -3 3 -6 21 -8 38 0 8 -5 12 -11 9 -5 -3 -10 -2 -10 4 0 5 6 12 13 14
9 4 9 6 -1 6 -7 1 -10 5 -7 11 3 5 -5 15 -18 21 -17 7 -23 18 -22 33 2 19 -1
23 -21 20 -13 -1 -22 2 -18 7 3 5 9 7 14 4 5 -3 11 -1 15 5 3 5 -3 10 -14 10
-12 0 -21 4 -21 9 0 6 -9 8 -20 6 -13 -2 -20 2 -20 11 0 9 5 12 13 8 6 -4 1 5
-12 19 -13 15 -28 24 -32 21 -5 -3 -9 2 -9 10 0 10 -9 16 -22 17 -98 5 -156 4
-175 -3 -16 -5 -23 -4 -23 5 0 7 -3 8 -8 2 -11 -15 -71 -12 -81 4 -5 8 -8 23
-6 33 2 10 -1 18 -7 18 -6 0 -3 9 7 20 17 19 17 20 -1 20 -15 0 -16 2 -5 9 11
7 10 11 -5 20 -11 6 -13 11 -6 11 19 0 36 51 20 61 -6 4 -16 5 -20 3 -4 -3 -8
0 -8 5 0 6 7 11 15 11 8 0 15 5 15 11 0 5 -4 7 -10 4 -6 -3 -10 -2 -10 4 0 5
5 13 10 16 6 4 8 11 4 16 -3 5 -9 7 -14 4 -5 -3 -12 -1 -15 5 -4 6 -1 9 6 8 7
-2 15 5 17 16 3 13 0 16 -9 11 -9 -6 -10 -3 -5 11 5 10 8 26 9 34 0 8 4 21 10
28 9 11 -8 18 -35 13 -5 0 -8 4 -8 10 0 6 7 9 15 5 22 -8 45 3 38 20 -3 8 -9
11 -14 8 -5 -3 -6 -10 -3 -16 5 -7 2 -8 -5 -4 -9 6 -9 12 2 24 16 19 12 46 -5
36 -7 -4 -8 -2 -4 5 4 6 11 9 16 6 5 -3 11 -1 14 4 4 5 -6 14 -21 20 -21 8
-22 10 -6 7 13 -2 26 0 29 5 3 5 0 9 -7 9 -9 0 -9 3 0 14 9 10 9 16 1 21 -6 4
-8 16 -4 27 4 15 3 18 -6 13 -9 -6 -9 -3 0 15 7 14 17 20 28 16 14 -5 14 -3
-1 8 -14 11 -17 21 -11 38 4 13 7 29 5 36 -1 8 4 19 11 25 7 7 11 11 9 10 -7
-5 -31 19 -31 31 0 6 4 5 9 -3 5 -7 14 -10 20 -7 8 5 7 11 -2 20 -6 8 -16 11
-21 8 -5 -3 -6 0 -2 6 4 7 2 12 -5 12 -7 0 -9 3 -6 7 4 3 17 -2 29 -13 19 -17
21 -17 15 -1 -4 11 1 25 13 37 12 12 15 20 8 20 -9 0 -10 2 -2 8 6 4 15 21 18
38 4 19 16 35 31 42 17 8 23 16 18 28 -4 12 -3 15 5 10 8 -5 12 0 12 14 0 13
9 24 25 30 13 5 23 15 20 22 -7 19 22 51 39 45 12 -5 27 12 30 35 1 3 5 10 9
15 5 4 7 4 5 -2 -6 -19 12 -14 38 10 15 14 23 25 18 26 -5 0 9 8 32 17 22 9
51 27 64 40 13 12 27 22 32 22 4 0 10 0 13 0 3 0 18 6 35 15 16 8 38 15 50 15
11 0 20 4 20 8 0 4 14 9 32 10 18 2 35 6 38 10 8 10 47 16 123 16 37 0 67 3
67 8 0 5 12 6 26 4 14 -3 37 -1 50 5 17 6 32 5 46 -2 16 -9 19 -8 12 3 -7 11
-5 11 9 0 9 -8 22 -12 29 -9 7 2 29 -1 48 -8 19 -7 43 -11 52 -9 10 1 20 -2
24 -7 3 -5 10 -7 15 -4 5 4 9 -1 9 -9 0 -10 6 -13 16 -9 9 3 20 0 25 -8 4 -8
17 -15 29 -15 11 -1 22 -3 25 -4 3 -1 10 -3 15 -4 6 0 15 -8 20 -16 5 -8 10
-11 10 -6 0 6 7 1 16 -10 8 -10 13 -12 9 -4 -4 8 2 5 13 -7 11 -12 22 -19 25
-16 4 3 11 -6 17 -21 5 -15 14 -25 18 -22 4 2 14 1 22 -4 9 -5 19 -5 27 2 10
8 13 6 13 -5 0 -9 9 -18 20 -22 11 -3 19 -11 17 -17 -1 -6 9 -15 23 -19 22 -8
21 -8 -8 -5 -18 1 -36 -2 -39 -7 -3 -6 -1 -7 5 -3 6 3 13 2 17 -3 3 -6 13 -7
22 -4 11 4 14 3 9 -5 -4 -7 -3 -12 3 -12 6 0 8 -6 6 -12 -10 -29 -13 -68 -6
-68 5 0 8 -8 8 -17 0 -36 3 -43 21 -43 14 0 15 -2 2 -10 -11 -7 -12 -12 -3
-21 6 -6 9 -18 6 -25 -3 -8 2 -17 11 -20 9 -3 16 -10 16 -16 0 -5 -3 -7 -7 -5
-5 3 -8 -15 -8 -39 0 -29 5 -48 15 -54 13 -9 13 -10 0 -10 -11 0 -12 -2 -3 -8
7 -4 10 -16 9 -27 -2 -11 1 -26 6 -32 6 -7 11 -31 12 -54 1 -22 8 -44 15 -48
16 -10 16 -22 -1 -32 -11 -7 -11 -9 1 -9 8 0 11 -7 8 -20 -3 -10 2 -25 9 -31
8 -7 13 -18 10 -26 -3 -7 0 -13 7 -13 8 0 8 -3 -2 -9 -11 -7 -9 -14 13 -35 27
-28 36 -47 12 -27 -10 8 -16 9 -21 1 -3 -5 -2 -10 3 -10 5 0 8 -19 7 -42 -2
-30 2 -46 14 -55 14 -11 14 -12 1 -13 -9 0 -16 -9 -16 -19 0 -11 3 -18 7 -15
13 7 18 -23 6 -36 -9 -10 -9 -12 4 -8 11 4 15 -1 15 -21 -1 -14 -7 -30 -13
-34 -14 -8 -19 -32 -5 -24 4 3 7 -16 7 -43 1 -44 -1 -47 -25 -47 -38 1 -109
-14 -115 -23 -3 -5 -14 -7 -25 -5 -11 2 -20 -1 -20 -7 0 -6 -3 -8 -6 -5 -4 3
-16 0 -28 -8 -11 -8 -28 -15 -38 -15 -10 0 -18 -5 -18 -12 0 -6 -3 -9 -6 -5
-4 3 -12 1 -20 -6 -31 -27 -44 -37 -50 -37 -8 0 -53 -47 -55 -58 -4 -20 -12
-31 -18 -27 -10 5 -7 -27 3 -43 4 -7 1 -15 -8 -18 -9 -3 -14 -10 -11 -14 3 -5
1 -11 -5 -15 -6 -3 -8 -17 -6 -31 3 -13 0 -24 -5 -24 -6 0 -7 -4 -4 -10 3 -5
1 -10 -4 -10 -6 0 -11 -10 -11 -22 0 -15 -3 -19 -8 -11 -4 7 -8 -27 -7 -76 0
-49 -3 -87 -7 -84 -5 2 -8 1 -9 -4 0 -4 -2 -16 -4 -25 -2 -10 1 -21 7 -24 6
-4 5 -10 -3 -15 -12 -7 -12 -9 0 -9 11 0 11 -3 0 -17 -10 -11 -10 -14 -1 -9
18 11 15 -5 -5 -19 -13 -9 -13 -14 -3 -20 9 -6 11 -4 5 5 -5 9 -4 11 3 6 8 -5
9 -14 4 -24 -12 -24 -6 -116 7 -120 9 -3 9 -7 0 -18 -9 -11 -8 -15 5 -20 9 -3
13 -10 10 -15 -3 -5 -1 -9 3 -9 5 0 10 -10 10 -22 1 -13 9 -28 18 -34 8 -6 15
-19 15 -28 0 -8 9 -21 20 -28 11 -7 20 -16 20 -20 0 -12 47 -58 59 -58 7 0 9
-5 5 -12 -5 -7 -2 -9 8 -5 10 3 15 0 14 -10 0 -9 5 -18 12 -20 8 -3 10 1 6 14
-6 14 -4 16 6 6 10 -10 11 -15 1 -27 -10 -12 -8 -14 15 -11 26 2 27 2 9 -11
-10 -8 -17 -14 -14 -15 2 0 20 -2 39 -4 19 -1 38 -3 42 -4 3 0 11 -13 16 -28
7 -19 11 -22 11 -10 1 17 2 17 17 3 12 -12 28 -15 62 -12 26 3 49 6 52 7 3 1
8 1 13 0 4 0 7 4 7 10 0 8 5 8 15 -1 10 -8 28 -10 52 -5 21 4 51 9 67 11 16 2
33 9 38 16 4 7 8 10 8 5 0 -4 17 0 37 8 23 10 39 12 41 6 2 -5 11 -2 21 7 10
9 34 31 54 47 20 17 37 35 37 42 0 6 8 14 18 17 9 3 23 19 30 36 9 18 21 30
33 30 11 0 22 7 24 15 3 8 7 22 10 30 2 8 4 16 2 18 -1 1 6 13 16 27 20 29 22
44 5 35 -7 -4 -6 -1 2 7 17 15 20 40 5 50 -6 5 -6 8 2 8 6 0 10 11 8 26 -1 17
2 24 10 20 17 -6 11 59 -7 82 -11 15 -11 15 4 4 10 -8 19 -9 22 -3 4 5 2 13
-4 16 -8 5 -7 11 1 21 9 11 8 14 -7 14 -18 1 -18 1 -1 11 21 12 23 31 2 23
-11 -5 -13 -2 -9 10 3 9 11 16 18 16 7 0 6 4 -3 9 -9 6 -10 11 -2 15 6 4 11
23 11 42 0 19 5 34 10 34 6 0 10 8 10 18 0 14 -2 15 -10 2 -8 -13 -10 -12 -10
3 0 9 5 17 10 17 6 0 10 7 10 16 0 8 -4 12 -10 9 -5 -3 -10 1 -10 10 0 9 5 13
11 9 8 -5 8 -1 0 14 -6 12 -16 24 -21 27 -6 4 -8 10 -5 15 3 5 1 11 -5 15 -5
3 -10 14 -9 23 0 12 4 9 11 -8 6 -14 12 -28 12 -32 3 -18 16 -18 16 0 0 28 -3
38 -11 35 -4 -1 -6 5 -5 15 0 9 -4 16 -11 15 -7 -2 -10 4 -7 12 4 8 10 15 16
15 5 0 6 -5 3 -10 -3 -6 -1 -10 4 -10 6 0 11 9 11 21 0 13 -4 18 -12 13 -10
-6 -10 -4 0 8 10 13 10 17 0 21 -10 4 -10 6 1 6 11 1 11 4 1 16 -9 11 -9 15
-1 15 9 0 9 5 1 20 -8 15 -8 20 1 20 7 0 9 8 5 22 -4 13 -8 29 -10 36 -1 7 -8
18 -14 24 -14 14 -16 42 -3 34 4 -3 7 18 6 47 -1 28 1 55 6 58 5 3 1 14 -8 25
-22 25 -27 45 -10 38 17 -6 16 28 -1 49 -7 7 -9 17 -5 20 3 4 1 7 -5 7 -7 0
-12 -4 -12 -10 0 -5 -7 -7 -16 -3 -12 4 -8 9 15 20 24 12 29 19 22 32 -15 28
-20 80 -8 85 9 3 9 7 1 13 -17 13 -24 41 -12 45 8 3 9 11 3 24 -4 10 -7 27 -6
38 2 10 -2 15 -7 12 -6 -4 -13 -2 -17 3 -3 6 -11 9 -18 8 -7 -2 -2 1 11 7 24
11 31 29 7 20 -8 -3 -26 4 -41 15 -15 12 -22 21 -16 21 6 0 17 -7 26 -15 20
-21 29 -19 16 4 -6 12 -6 22 -1 26 13 7 5 48 -12 60 -8 6 -12 15 -10 22 2 6
-1 14 -6 18 -8 4 -8 13 0 27 10 19 9 20 -12 15 -24 -6 -24 -6 -4 10 14 10 16
17 8 20 -7 3 -13 16 -13 29 0 14 -4 22 -10 19 -5 -3 -10 -1 -10 4 0 6 -8 11
-17 11 -14 0 -15 2 -4 9 11 7 10 11 -5 20 -17 9 -17 10 -2 11 12 0 15 5 11 16
-3 8 -11 13 -17 11 -8 -3 -11 5 -10 24 1 16 -2 29 -7 29 -5 0 -9 10 -10 23 0
12 -3 16 -6 10 -2 -7 -10 -13 -15 -13 -6 0 -8 3 -5 7 4 3 1 13 -6 21 -10 13
-9 14 2 7 10 -6 12 -4 6 4 -4 7 -16 10 -28 7 -13 -3 -17 -2 -10 5 12 12 5 51
-7 44 -5 -3 -11 -1 -15 5 -3 5 -1 10 5 10 8 0 8 6 0 20 -6 11 -8 20 -5 20 3 0
1 9 -5 20 -6 11 -15 18 -20 15 -5 -3 -10 0 -13 7 -2 7 -3 6 -2 -2 0 -8 7 -14
13 -13 18 4 15 -14 -4 -21 -8 -3 -13 -2 -10 3 3 4 -2 17 -12 27 -9 10 -17 26
-17 34 0 8 -6 14 -12 13 -7 -2 -13 2 -13 7 0 6 5 10 12 10 18 0 3 10 -22 15
-12 2 -25 7 -29 11 -3 4 1 5 10 2 9 -4 22 -2 30 3 11 7 11 9 -3 9 -10 0 -27
10 -39 23 -12 12 -19 17 -15 10 4 -8 0 -8 -18 0 -13 7 -22 15 -20 18 2 4 -12
16 -32 28 -19 12 -32 15 -28 9 6 -10 4 -10 -8 0 -9 7 -19 24 -22 37 -6 23 -23
31 -51 25 -5 -1 -7 2 -3 6 11 10 -30 37 -44 28 -7 -4 -8 -3 -4 4 4 7 2 12 -3
12 -6 0 -11 7 -11 15 0 8 -9 15 -21 15 -13 0 -18 4 -13 12 4 6 3 8 -3 5 -6 -4
-16 0 -23 9 -7 8 -19 13 -27 10 -8 -3 -25 5 -39 19 -13 13 -24 19 -24 12 0 -7
-5 -4 -11 6 -8 14 -18 17 -36 12 -18 -4 -23 -2 -17 6 4 7 3 9 -4 5 -6 -3 -9
-15 -7 -25 2 -10 -3 -18 -10 -18 -8 0 -14 3 -13 6 0 3 -3 16 -7 28 -8 23 -21
30 -70 37 -17 2 -42 7 -56 11 -44 11 -169 12 -169 0 0 -5 -5 -3 -10 5 -9 14
-14 7 -11 -13 1 -5 -3 -6 -8 -3 -19 12 -71 13 -72 2 0 -6 -4 -2 -9 9 -5 11 -9
15 -9 9 -1 -11 -71 -11 -90 0 -6 4 -11 3 -11 -2z m586 -71 c-4 -5 0 -11 6 -14
7 -3 3 -4 -9 -4 -17 1 -19 4 -11 14 12 15 22 18 14 4z m-601 -31 c-27 -12 -43
-12 -25 0 8 5 22 9 30 9 10 0 8 -3 -5 -9z m-92 -13 c-4 -7 0 -6 10 2 9 7 17 9
17 3 0 -14 -26 -34 -42 -31 -27 3 -38 -2 -39 -18 0 -13 -3 -11 -10 7 -10 24
-11 24 -21 5 -14 -24 -29 -35 -40 -29 -4 3 -12 -6 -18 -20 -5 -14 -12 -26 -14
-26 -3 0 -3 6 0 13 3 8 -3 20 -13 28 -10 7 -15 9 -11 5 10 -11 -11 -38 -23
-30 -5 3 -6 -3 -2 -12 4 -12 3 -15 -5 -10 -7 4 -15 1 -18 -8 -3 -9 -10 -13
-16 -10 -5 4 -4 13 4 23 7 9 3 6 -10 -7 -12 -13 -19 -28 -16 -34 4 -6 2 -8 -4
-4 -6 3 -22 -8 -36 -26 -16 -20 -26 -27 -26 -18 -1 10 -10 4 -26 -15 -15 -16
-23 -24 -20 -17 4 6 3 12 -2 12 -14 0 -43 -36 -35 -43 3 -4 1 -8 -5 -8 -33 -4
-63 -20 -56 -30 3 -5 -2 -9 -11 -9 -9 0 -22 -6 -29 -12 -11 -11 -11 -15 3 -26
9 -7 10 -11 3 -7 -15 8 -53 -34 -47 -51 2 -6 -2 -11 -8 -11 -31 1 -47 -4 -47
-14 0 -5 5 -7 12 -3 7 4 8 3 4 -5 -4 -6 -11 -9 -15 -7 -4 3 -13 0 -21 -5 -12
-8 -12 -12 -2 -16 8 -3 5 -11 -12 -24 -24 -19 -27 -57 -3 -42 6 3 7 1 3 -6 -4
-6 -12 -8 -18 -5 -7 5 -9 1 -5 -9 4 -11 1 -17 -8 -17 -7 0 -16 -14 -20 -30 -4
-17 -10 -28 -14 -26 -4 3 -13 1 -21 -5 -12 -7 -11 -9 4 -9 20 0 20 0 0 -16
-10 -8 -14 -13 -7 -10 6 4 14 2 18 -4 3 -6 -1 -13 -9 -16 -9 -3 -16 -17 -16
-29 0 -13 -6 -25 -12 -28 -10 -3 -10 -9 0 -27 8 -12 9 -19 3 -15 -7 4 -11 -3
-12 -17 0 -13 -2 -33 -5 -45 -2 -14 1 -23 9 -23 8 0 7 -4 -3 -10 -13 -9 -13
-10 0 -10 12 -1 11 -3 -3 -11 -23 -14 -22 -29 3 -29 21 0 21 0 1 -21 -11 -12
-17 -28 -14 -37 4 -10 2 -13 -5 -8 -16 9 -15 -7 0 -22 8 -8 8 -12 1 -12 -9 0
-10 -18 -4 -52 0 -5 7 -8 15 -8 8 0 18 -4 21 -10 3 -5 0 -7 -8 -4 -8 3 -18 0
-23 -7 -4 -8 -3 -10 4 -5 13 8 16 -6 5 -18 -12 -12 -11 -56 1 -49 6 4 5 -1 -3
-10 -10 -13 -10 -17 -1 -17 8 0 10 -7 5 -17 -4 -10 -9 -26 -11 -35 -2 -10 -6
-26 -8 -35 -2 -10 -8 -27 -12 -37 -5 -14 -4 -17 4 -12 7 4 12 2 12 -3 0 -6 -4
-11 -8 -11 -4 0 -8 -9 -8 -19 0 -16 3 -18 16 -8 8 6 6 1 -5 -11 -15 -18 -16
-25 -6 -31 10 -6 10 -10 2 -16 -9 -5 -9 -10 0 -21 7 -9 8 -14 1 -14 -11 0 -10
-25 1 -36 3 -4 3 -12 0 -18 -12 -19 -13 -46 -2 -46 6 0 4 -7 -5 -15 -17 -17
-30 -20 -21 -5 3 6 2 10 -4 10 -5 0 -12 -6 -14 -12 -4 -9 -8 -10 -14 -3 -11
15 -76 13 -86 -3 -6 -10 -12 -10 -22 -2 -9 8 -14 7 -18 -5 -4 -8 -13 -12 -22
-9 -9 4 -15 0 -15 -10 0 -16 -49 -47 -72 -45 -7 0 -4 4 7 9 11 5 15 9 9 9 -7
1 -15 8 -18 17 -4 10 -2 13 7 8 6 -4 3 3 -8 16 -17 20 -18 23 -2 17 21 -8 22
-3 1 18 -12 12 -13 19 -4 30 8 9 8 20 2 32 -7 13 -6 28 4 51 7 18 9 30 5 27
-5 -2 -12 2 -15 11 -4 11 -2 15 7 11 10 -4 12 6 11 38 -1 24 -5 49 -10 56 -4
7 -3 10 4 5 6 -3 13 -2 17 4 3 5 1 10 -6 10 -10 0 -10 3 -1 12 8 8 9 15 1 25
-8 9 -8 13 -1 13 6 0 9 7 6 15 -4 8 -11 12 -17 8 -6 -3 -7 -1 -3 6 4 6 12 8
18 5 8 -5 9 -1 5 11 -4 9 -2 24 4 31 9 11 8 14 -5 14 -21 0 -20 6 5 31 17 17
19 23 8 30 -12 7 -11 9 1 9 9 0 11 3 5 8 -13 9 -19 46 -7 38 6 -4 8 3 4 16 -4
16 -2 19 9 13 11 -6 12 -5 2 6 -15 15 -17 33 -4 25 5 -3 11 1 15 9 3 8 0 15
-7 15 -8 0 -9 3 -1 8 6 4 10 19 9 34 -1 16 2 25 8 21 6 -4 8 0 4 10 -3 9 -2
19 4 22 5 4 8 19 6 33 -4 26 9 64 39 123 7 14 11 29 7 33 -3 3 -1 6 5 6 6 0 9
7 6 15 -5 11 -2 13 10 9 11 -4 16 -1 16 11 0 10 -5 14 -12 10 -7 -4 -5 0 4 8
10 8 15 17 11 20 -3 4 -1 7 5 7 7 0 12 6 12 14 0 8 7 22 16 31 9 8 17 26 18
40 0 13 4 23 7 22 9 -3 67 62 61 68 -3 3 3 5 14 6 10 0 13 3 7 6 -14 5 -18 24
-5 22 19 -3 33 2 27 11 -3 6 1 10 10 10 8 0 18 7 21 15 4 8 25 26 48 40 22 14
35 25 28 25 -7 0 -10 5 -7 10 4 6 10 8 15 5 14 -9 60 17 60 33 0 9 3 12 7 9 3
-4 15 0 25 10 10 9 21 13 24 10 4 -3 16 8 28 26 12 18 25 31 29 29 5 -2 16 6
25 18 9 11 28 22 41 25 13 2 26 7 30 11 3 4 -2 4 -12 1 -13 -5 -17 -3 -14 5 2
7 11 12 20 10 8 -1 18 2 22 8 9 14 27 12 20 -2 -4 -7 0 -5 8 4 8 10 26 19 41
20 14 1 26 6 26 11 0 4 5 5 10 2 6 -4 18 -1 27 6 8 7 25 14 37 14 11 1 28 4
36 8 8 3 37 8 63 11 27 2 50 6 52 8 2 2 13 4 25 5 13 1 18 -2 13 -10z m637 -2
c0 -8 2 -15 4 -15 2 0 12 -3 22 -7 13 -5 15 -3 9 8 -5 8 -5 11 1 6 5 -5 7 -9
5 -10 -11 -4 21 -47 35 -47 9 0 12 -5 8 -12 -5 -8 -2 -9 9 -5 10 3 17 2 17 -4
0 -6 5 -7 10 -4 6 3 13 0 16 -9 3 -9 12 -12 22 -9 9 4 14 3 10 -2 -8 -8 28
-45 44 -45 4 0 8 -7 8 -16 0 -9 7 -14 18 -13 21 4 62 -22 62 -38 0 -7 5 -13
10 -13 6 0 20 -11 32 -25 12 -14 28 -25 35 -25 7 0 13 -5 13 -11 0 -5 4 -7 10
-4 6 3 7 -1 4 -9 -4 -12 0 -16 16 -16 13 0 24 -8 27 -20 3 -11 9 -18 13 -15 5
3 12 1 15 -5 4 -6 3 -9 -2 -8 -4 2 -8 -1 -8 -7 0 -5 3 -9 8 -7 4 1 6 -1 6 -5
-3 -19 2 -34 9 -29 4 2 14 0 22 -6 12 -8 12 -9 -2 -4 -10 3 -20 1 -23 -4 -4
-6 3 -10 14 -10 12 0 21 -7 21 -15 0 -9 7 -18 15 -21 10 -4 13 -13 9 -26 -4
-14 -2 -18 5 -14 6 4 11 2 11 -4 0 -6 7 -18 15 -26 17 -17 20 -34 5 -34 -5 0
-7 -7 -3 -16 3 -8 12 -13 19 -10 7 3 16 0 20 -6 4 -7 3 -8 -4 -4 -7 4 -12 1
-12 -9 0 -9 4 -13 10 -10 5 3 7 0 4 -8 -2 -7 3 -23 13 -33 10 -11 14 -14 10
-8 -6 9 -2 11 13 7 27 -7 34 -19 14 -27 -13 -5 -14 -9 -4 -21 10 -12 10 -15 0
-15 -10 0 -10 -3 0 -15 7 -8 9 -15 4 -16 -5 0 0 -4 10 -8 11 -4 20 -15 22 -24
1 -10 -2 -15 -7 -11 -5 3 -6 10 -3 16 5 7 2 8 -5 4 -9 -6 -9 -12 2 -24 8 -10
18 -27 21 -39 4 -13 14 -23 22 -23 17 0 19 -31 2 -48 -9 -9 -8 -12 4 -12 11 0
15 -6 11 -20 -3 -11 -1 -20 5 -20 5 0 10 -12 10 -27 0 -15 5 -29 11 -31 6 -2
9 -8 5 -13 -3 -5 0 -9 6 -9 6 0 8 -5 4 -11 -3 -6 0 -15 7 -20 11 -7 10 -9 -5
-9 -12 0 -16 -5 -12 -16 3 -9 6 -20 6 -25 0 -6 5 -7 10 -4 6 3 15 3 21 -1 8
-4 7 -9 -2 -15 -8 -5 -14 -24 -14 -43 0 -19 3 -32 7 -30 4 2 10 -1 14 -7 4 -8
3 -9 -4 -5 -6 3 -16 -2 -22 -13 -9 -17 -7 -19 10 -16 11 2 22 -1 26 -6 3 -5 2
-9 -3 -8 -26 5 -33 -2 -23 -20 12 -24 13 -34 1 -27 -10 7 -8 -55 3 -72 4 -7 4
-18 -1 -25 -13 -17 -10 -36 7 -48 13 -8 13 -11 -3 -20 -13 -7 -15 -15 -8 -28
7 -12 6 -22 -1 -29 -14 -14 18 -66 34 -56 7 5 8 2 3 -6 -6 -10 -4 -12 9 -7 10
4 15 3 11 -4 -4 -5 -16 -7 -28 -3 -20 6 -21 6 -4 -19 12 -19 14 -28 5 -33 -7
-4 -8 -3 -4 4 4 7 2 12 -3 12 -6 0 -11 -4 -11 -10 0 -5 -4 -10 -10 -10 -5 0
-10 9 -10 19 0 22 -16 36 -24 22 -4 -5 0 -11 6 -14 7 -3 3 -4 -9 -4 -12 1 -20
4 -18 7 2 3 -5 17 -16 30 -10 14 -19 19 -19 12 0 -10 -4 -9 -16 3 -22 22 -90
55 -98 48 -3 -4 -6 -1 -6 5 0 7 -6 12 -13 12 -23 0 -47 34 -37 50 5 8 10 22
10 30 0 13 -1 13 -10 0 -6 -10 -7 -3 -3 24 4 28 3 37 -5 32 -16 -9 -15 7 0 22
16 16 -4 16 -22 0 -7 -7 -4 0 8 15 19 26 20 31 7 44 -16 16 -21 38 -6 28 5 -3
12 -1 15 4 3 5 -1 11 -9 15 -8 3 -15 10 -15 16 0 6 4 9 8 6 11 -6 -2 105 -15
129 -6 11 -10 40 -9 65 1 25 -2 50 -6 56 -5 7 -10 26 -11 43 -1 17 -6 31 -11
31 -4 0 -6 12 -3 26 3 18 1 24 -9 20 -8 -3 -14 -1 -14 4 0 6 5 10 12 10 6 0 3
10 -8 22 -13 14 -14 19 -4 14 8 -4 7 -1 -3 7 -17 14 -17 15 0 21 14 6 15 9 4
16 -8 4 -15 19 -17 32 -1 12 -3 27 -3 31 -1 5 -7 5 -13 1 -9 -5 -9 -3 1 9 7 9
17 14 22 11 5 -3 9 0 9 5 0 6 -5 11 -12 11 -9 0 -9 3 0 12 16 16 15 31 0 22
-9 -5 -9 -2 1 9 9 11 10 17 2 17 -6 0 -10 3 -10 8 5 27 -4 54 -23 74 -15 15
-23 34 -22 56 1 43 -42 89 -78 83 -4 0 -2 11 4 25 9 20 9 27 -1 33 -10 7 -10
11 1 22 13 11 11 16 -9 35 -12 11 -20 24 -16 27 3 4 1 7 -6 7 -7 0 -10 4 -7 9
6 9 -28 53 -36 46 -7 -7 -68 15 -68 25 0 4 -16 11 -35 14 -20 4 -33 11 -30 16
3 6 0 7 -8 4 -8 -3 -18 0 -22 5 -3 6 -11 8 -17 5 -7 -5 -9 -2 -6 8 4 8 2 21
-4 29 -8 11 -8 9 -4 -6 6 -19 6 -19 -8 -1 -9 10 -22 16 -30 13 -9 -4 -25 3
-38 16 -13 13 -38 24 -57 25 -18 1 -42 7 -52 13 -14 7 -19 6 -19 -3 0 -10 -2
-10 -8 -1 -5 7 -13 9 -21 3 -8 -4 -24 -5 -35 -1 -27 9 -87 8 -103 -2 -7 -5
-13 -4 -13 2 0 13 -41 5 -51 -10 -5 -8 -8 -8 -13 0 -10 15 51 40 82 35 13 -3
21 -1 18 4 -3 5 20 7 51 6 32 -2 63 2 70 8 9 7 13 7 13 -1 0 -6 5 -11 11 -11
5 0 8 4 5 9 -3 5 1 11 9 15 8 3 15 2 15 -3 0 -11 114 -3 118 9 6 16 22 12 22
-5z m178 -20 c-3 -3 -9 2 -12 12 -6 14 -5 15 5 6 7 -7 10 -15 7 -18z m-613
-35 c3 -5 1 -10 -4 -10 -6 0 -11 5 -11 10 0 6 2 10 4 10 3 0 8 -4 11 -10z m-7
-65 c-3 -3 -9 2 -12 12 -6 14 -5 15 5 6 7 -7 10 -15 7 -18z m832 -141 c0 -2
-9 -4 -20 -4 -11 0 -20 4 -20 9 0 5 9 7 20 4 11 -3 20 -7 20 -9z m-106 -53 c3
-5 -1 -11 -9 -14 -9 -4 -12 -1 -8 9 6 16 10 17 17 5z m-13 -134 c-10 -9 -11
-8 -5 6 3 10 9 15 12 12 3 -3 0 -11 -7 -18z m-1541 -41 c0 -2 -8 -10 -17 -17
-16 -13 -17 -12 -4 4 13 16 21 21 21 13z m1674 -102 c3 -8 2 -12 -4 -9 -6 3
-10 10 -10 16 0 14 7 11 14 -7z m251 -64 c3 -5 1 -10 -4 -10 -6 0 -11 5 -11
10 0 6 2 10 4 10 3 0 8 -4 11 -10z m-1955 -70 c0 -5 -5 -10 -11 -10 -5 0 -7 5
-4 10 3 6 8 10 11 10 2 0 4 -4 4 -10z m1707 -53 c0 -8 -6 -14 -14 -14 -17 0
-17 14 0 20 6 3 12 6 13 6 0 1 1 -5 1 -12z m-53 -72 c3 -8 1 -15 -3 -15 -5 0
-11 7 -15 15 -3 8 -1 15 3 15 5 0 11 -7 15 -15z m426 -9 c0 -2 -7 -7 -16 -10
-8 -3 -12 -2 -9 4 6 10 25 14 25 6z m63 -19 c3 -8 -1 -14 -8 -14 -7 0 -11 6
-8 14 3 7 6 13 8 13 2 0 5 -6 8 -13z m-2190 -20 c7 3 8 2 4 -2 -14 -16 -36
-14 -29 3 4 10 7 12 10 4 2 -7 9 -9 15 -5z m53 -39 c4 -7 4 -10 -1 -6 -4 4
-16 3 -26 -3 -12 -6 -19 -6 -19 0 0 9 15 18 32 20 4 1 10 -5 14 -11z m1705 -6
c-7 -2 -18 1 -23 6 -8 8 -4 9 13 5 13 -4 18 -8 10 -11z m384 -22 c-3 -5 -12
-10 -18 -10 -7 0 -6 4 3 10 19 12 23 12 15 0z m-2141 -9 c3 -5 -5 -8 -18 -7
-13 0 -22 4 -19 9 6 10 31 9 37 -2z m2166 -11 c0 -5 -2 -10 -4 -10 -3 0 -8 5
-11 10 -3 6 -1 10 4 10 6 0 11 -4 11 -10z m-10 -46 c0 -8 -19 -13 -24 -6 -3 5
1 9 9 9 8 0 15 -2 15 -3z m-2215 -24 c3 -5 1 -10 -4 -10 -6 0 -11 5 -11 10 0
6 2 10 4 10 3 0 8 -4 11 -10z m1888 -6 c-7 -3 -9 -12 -6 -20 4 -10 0 -12 -11
-8 -13 5 -14 9 -5 20 6 8 17 14 23 13 7 0 7 -2 -1 -5z m-2276 -10 c-3 -3 -12
-4 -19 -1 -8 3 -5 6 6 6 11 1 17 -2 13 -5z m443 2 c0 -11 -19 -15 -25 -6 -3 5
1 10 9 10 9 0 16 -2 16 -4z m2213 -17 c4 -3 2 -11 -5 -17 -10 -8 -13 -5 -14
15 -1 13 1 21 5 16 3 -4 10 -10 14 -14z m-430 -32 c-5 -8 -8 -8 -10 0 -3 7
-12 9 -21 6 -14 -4 -14 -3 -3 5 17 12 43 4 34 -11z m-1776 -14 c-4 -3 -1 -13
6 -22 11 -14 10 -14 -5 -2 -16 12 -16 31 -1 31 4 0 3 -3 0 -7z m2201 -28 c-3
-3 -9 2 -12 12 -6 14 -5 15 5 6 7 -7 10 -15 7 -18z m-448 -5 c0 -5 -2 -10 -4
-10 -3 0 -8 5 -11 10 -3 6 -1 10 4 10 6 0 11 -4 11 -10z m-1770 -4 c0 -3 -4
-8 -10 -11 -5 -3 -10 -1 -10 4 0 6 5 11 10 11 6 0 10 -2 10 -4z m13 -37 c-4
-15 -8 -17 -14 -8 -6 11 4 28 18 29 0 0 -1 -9 -4 -21z m2242 -9 c3 -5 1 -10
-4 -10 -6 0 -11 5 -11 10 0 6 2 10 4 10 3 0 8 -4 11 -10z m-2255 -26 c0 -8
-19 -13 -24 -6 -3 5 1 9 9 9 8 0 15 -2 15 -3z m-26 -37 c-3 -8 -11 -14 -19
-14 -11 0 -12 4 -4 14 6 7 15 13 20 13 5 0 6 -6 3 -13z m2290 -32 c-4 -8 -11
-15 -16 -15 -6 0 -5 6 2 15 7 8 14 15 16 15 2 0 1 -7 -2 -15z m-2199 -15 c-3
-5 -12 -10 -18 -10 -7 0 -6 4 3 10 19 12 23 12 15 0z m2152 -37 c-4 -3 -2 -12
4 -20 9 -9 8 -13 0 -13 -6 0 -11 2 -11 4 0 2 -3 11 -6 20 -4 10 -1 16 7 16 7
0 9 -3 6 -7z m-2677 -17 c0 -2 -8 -10 -17 -17 -16 -13 -17 -12 -4 4 13 16 21
21 21 13z m2645 -6 c3 -6 -1 -7 -9 -4 -18 7 -21 14 -7 14 6 0 13 -4 16 -10z
m52 -43 c0 -7 -9 -14 -20 -14 -19 -2 -19 -2 -1 12 11 8 19 15 20 15 0 0 1 -6
1 -13z m-2267 -7 c0 -5 -2 -10 -4 -10 -3 0 -8 5 -11 10 -3 6 -1 10 4 10 6 0
11 -4 11 -10z m-25 -109 c3 -5 2 -12 -3 -15 -5 -3 -9 1 -9 9 0 17 3 19 12 6z
m475 -15 c0 -2 -7 -7 -16 -10 -8 -3 -12 -2 -9 4 6 10 25 14 25 6z m-153 -51
c18 -11 33 -27 33 -35 1 -10 3 -11 7 -3 6 17 33 -9 33 -31 0 -9 4 -16 10 -16
5 0 7 8 3 18 -3 9 -2 14 2 9 5 -4 9 -17 10 -30 1 -12 8 -22 16 -22 8 0 15 -7
15 -15 3 -32 5 -34 14 -20 8 13 10 12 10 -2 0 -10 5 -18 11 -18 6 0 9 -7 5
-15 -3 -8 -2 -15 2 -15 4 0 7 -20 7 -45 -1 -25 2 -45 7 -45 4 0 5 -7 2 -15 -4
-9 0 -15 7 -15 11 0 11 -3 -1 -10 -9 -6 -10 -10 -3 -10 8 0 9 -9 3 -30 -5 -18
-5 -32 1 -36 6 -4 6 -11 -1 -19 -8 -10 -7 -15 2 -19 9 -4 10 -8 2 -11 -7 -3
-9 -15 -7 -26 5 -16 8 -18 14 -7 7 10 9 10 9 0 0 -7 -7 -15 -15 -18 -8 -4 -12
-10 -9 -15 12 -20 11 -88 -2 -93 -8 -3 -14 -13 -13 -23 0 -16 2 -16 10 2 6 15
7 11 3 -15 -3 -19 -13 -42 -21 -52 -10 -11 -11 -18 -4 -23 6 -3 11 -11 11 -16
0 -6 -4 -8 -9 -5 -5 3 -11 -3 -14 -14 -3 -13 -1 -18 6 -14 9 5 9 4 0 -6 -6 -7
-9 -19 -6 -28 4 -9 2 -13 -4 -9 -6 4 -17 -1 -24 -10 -12 -15 -12 -16 2 -11 13
5 16 1 15 -17 0 -13 -4 -21 -8 -18 -5 2 -8 -1 -8 -6 0 -6 -6 -10 -12 -8 -7 1
-13 -7 -13 -18 0 -15 -7 -20 -25 -20 -14 -1 -32 -5 -40 -10 -19 -12 -50 -14
-56 -3 -3 4 -10 5 -16 2 -7 -4 -8 -2 -4 4 10 16 -6 15 -24 -1 -12 -10 -12 -9
-1 6 8 9 11 21 7 24 -4 4 -11 2 -15 -6 -9 -14 -20 -14 -38 1 -7 5 -17 7 -23 3
-5 -3 -10 -2 -10 3 0 5 -7 9 -15 9 -8 0 -15 -4 -15 -9 0 -4 -3 -7 -7 -6 -5 0
-16 -2 -26 -7 -15 -6 -15 -10 -5 -23 11 -13 11 -14 -2 -7 -12 7 -12 5 2 -15 9
-14 23 -24 32 -24 9 1 13 -2 11 -7 -3 -4 3 -17 15 -29 24 -24 25 -27 5 -27 -8
0 -15 7 -15 16 -1 14 -2 14 -13 -1 -9 -11 -18 -14 -28 -7 -12 7 -11 9 3 9 21
0 32 16 17 26 -7 4 -9 3 -5 -4 4 -7 -1 -10 -14 -9 -11 1 -20 5 -20 9 0 4 -5 8
-11 8 -5 0 -7 -5 -3 -12 4 -7 3 -8 -5 -4 -6 4 -9 12 -5 17 3 6 -3 13 -15 16
-12 3 -21 9 -21 13 0 4 -9 10 -21 13 -13 4 -18 10 -14 17 6 9 2 9 -12 1 -21
-11 -33 -6 -33 13 0 6 5 4 11 -4 9 -13 10 -13 6 0 -6 22 -37 25 -38 3 0 -13
-2 -14 -6 -4 -3 8 3 21 13 28 18 14 18 14 -1 11 -11 -2 -24 -7 -28 -13 -5 -5
-5 0 -2 13 4 14 1 28 -10 38 -15 15 -14 17 9 29 13 7 40 18 60 25 19 6 35 17
33 23 -1 7 4 11 11 9 6 -1 12 6 12 15 0 9 3 13 7 10 12 -13 63 45 59 67 -2 12
-1 15 1 9 3 -7 9 -13 15 -13 6 0 8 3 5 7 -4 3 -2 12 4 20 8 8 8 13 1 13 -7 0
-6 18 2 53 14 62 24 80 37 72 5 -4 9 -1 9 4 0 6 -8 11 -17 11 -16 1 -16 2 -2
13 16 12 34 61 19 52 -5 -3 -11 -1 -15 5 -6 9 8 14 28 11 5 -1 6 3 2 9 -3 6
-12 7 -18 3 -7 -4 -6 0 2 10 11 14 11 17 0 17 -10 0 -10 3 -1 12 18 18 15 31
-5 24 -17 -6 -17 -5 -1 7 9 8 16 23 15 35 -1 17 -6 21 -21 16 -18 -6 -19 -5
-4 9 16 17 19 81 4 105 -4 7 -5 19 -2 27 3 10 -1 15 -12 15 -16 1 -16 1 1 11
9 6 15 15 12 20 -4 5 -11 6 -17 3 -7 -4 -7 0 0 13 7 12 7 25 1 34 -15 23 -11
29 34 50 52 24 111 22 154 -6z m1438 -15 c-3 -4 11 -11 31 -15 20 -3 48 -11
63 -17 14 -6 36 -12 49 -13 12 0 22 -4 22 -8 -1 -5 10 -17 25 -28 14 -12 23
-24 20 -29 -3 -5 2 -16 11 -24 10 -10 11 -16 3 -16 -9 0 -8 -4 1 -15 7 -8 10
-21 7 -29 -4 -10 -1 -13 7 -10 7 3 13 -2 13 -10 0 -8 -4 -13 -9 -10 -12 8 -10
-12 6 -51 8 -19 12 -35 7 -35 -11 0 0 -117 13 -138 4 -7 1 -15 -8 -18 -12 -5
-13 -10 -4 -30 6 -13 16 -20 22 -17 7 4 6 1 -1 -8 -7 -9 -8 -20 -3 -29 10 -16
-6 -53 -20 -45 -6 3 -7 -1 -4 -9 3 -9 9 -14 13 -11 11 6 7 -39 -4 -47 -6 -5
-6 -11 2 -19 11 -11 7 -42 -6 -35 -3 2 -6 -10 -6 -27 1 -18 -3 -34 -7 -37 -4
-3 -8 -22 -10 -42 -2 -31 -4 -35 -17 -25 -12 10 -13 9 -2 -12 10 -19 10 -22 0
-16 -9 6 -11 2 -6 -14 5 -19 2 -22 -14 -18 -17 4 -18 3 -8 -9 9 -11 9 -14 -1
-14 -8 0 -10 -3 -7 -7 7 -6 -55 -53 -76 -58 -7 -1 -20 -6 -31 -10 -10 -5 -26
-4 -35 2 -9 5 -30 6 -48 3 -18 -4 -36 -3 -42 3 -8 8 -11 7 -11 -2 0 -9 -5 -9
-21 2 -11 8 -28 13 -39 10 -10 -3 -21 0 -24 6 -4 7 -1 8 8 5 10 -4 16 -1 16 9
0 10 -7 13 -19 10 -11 -3 -21 2 -25 12 -3 9 -10 14 -14 11 -5 -3 -7 6 -4 21 3
17 1 24 -6 19 -7 -4 -17 7 -26 29 -8 19 -22 35 -30 35 -8 0 -18 4 -21 10 -4 6
1 7 12 4 16 -5 15 -4 -2 11 -11 8 -20 21 -20 28 0 19 -28 57 -42 57 -6 0 -15
5 -19 12 -4 7 -3 8 4 4 17 -10 32 2 26 19 -4 8 -9 13 -13 10 -4 -2 -5 10 -3
27 4 24 2 29 -9 23 -11 -7 -12 -6 -3 6 6 8 10 23 7 34 -10 47 -7 141 5 163 7
14 10 27 7 30 -3 3 -5 0 -5 -7 0 -7 -4 -9 -10 -6 -15 9 -12 25 4 25 8 0 18 5
22 12 5 7 3 8 -7 3 -12 -8 -12 -6 0 8 12 15 11 17 -5 18 -18 1 -18 2 -1 6 10
3 16 11 13 18 -3 8 0 16 7 19 9 3 8 7 -2 14 -12 8 -9 14 13 34 15 12 28 30 29
38 2 8 6 21 11 28 4 7 5 19 3 27 -3 7 2 16 11 20 13 5 13 8 4 14 -10 6 -7 12
12 24 15 10 23 23 20 31 -3 8 0 17 7 22 8 5 10 3 5 -7 -4 -8 1 -3 12 10 18 23
35 31 72 33 8 1 20 7 25 14 20 25 96 19 80 -6z m589 18 c-3 -4 -11 -5 -19 -1
-21 7 -19 12 4 10 11 0 18 -5 15 -9z m-24 -22 c0 -3 -4 -8 -10 -11 -5 -3 -10
-1 -10 4 0 6 5 11 10 11 6 0 10 -2 10 -4z m-35 -26 c3 -6 -4 -10 -17 -10 -18
0 -20 2 -8 10 19 12 18 12 25 0z m-2690 -20 c3 -6 -1 -7 -9 -4 -18 7 -21 14
-7 14 6 0 13 -4 16 -10z m342 -20 c-6 -8 -8 -12 -3 -8 11 9 48 -10 42 -21 -3
-4 4 -17 14 -29 11 -12 20 -30 20 -41 0 -11 5 -23 11 -27 8 -4 8 -9 0 -17 -8
-8 -4 -18 12 -35 12 -13 16 -22 8 -20 -16 4 -22 -35 -10 -74 5 -19 4 -28 -4
-29 -9 0 -9 -2 0 -5 7 -3 9 -12 6 -21 -4 -11 -2 -14 5 -9 8 5 10 2 6 -8 -3 -9
-10 -14 -14 -11 -5 3 -11 1 -15 -5 -3 -5 -2 -10 2 -10 5 0 9 -20 9 -45 1 -39
-1 -43 -14 -32 -13 10 -14 9 -3 -10 6 -13 8 -23 3 -23 -5 0 -9 -7 -9 -15 0
-11 4 -12 13 -4 8 7 14 7 19 -1 3 -5 -2 -11 -12 -12 -33 -2 -38 -3 -51 -12 -7
-4 -11 -14 -8 -22 3 -8 0 -14 -7 -14 -8 0 -8 -3 -2 -8 6 -4 2 -15 -12 -29 -13
-12 -23 -20 -23 -17 0 3 -10 -2 -22 -10 -33 -23 -67 -20 -77 7 -5 12 -7 25 -4
30 2 4 -1 6 -9 5 -8 -2 -12 4 -10 16 2 10 -1 16 -6 12 -10 -6 -9 24 1 42 6 8
3 10 -10 5 -16 -6 -17 -5 -3 12 14 17 13 18 -8 13 -19 -5 -21 -4 -11 8 6 7 16
11 22 7 6 -3 7 -1 3 6 -4 6 -11 9 -16 6 -5 -3 -12 -1 -15 5 -4 6 -2 9 3 8 6
-2 10 0 11 5 3 21 0 28 -9 22 -6 -3 -7 1 -4 10 4 8 0 23 -7 32 -12 14 -12 16
1 8 12 -7 13 -6 4 6 -6 8 -10 30 -9 49 0 19 -3 43 -7 52 -5 10 -3 20 4 24 7 5
8 3 3 -6 -5 -8 -4 -11 3 -6 13 8 8 42 -10 63 -11 14 -10 15 8 9 18 -6 20 -3
16 24 -3 21 0 30 9 30 12 0 12 2 0 9 -11 7 -9 13 9 31 13 13 20 29 17 41 -3
10 0 22 5 26 7 3 8 1 4 -5 -4 -7 -3 -12 2 -12 5 0 14 11 21 24 12 21 20 24 67
23 46 -1 51 -3 41 -17z m2356 6 c4 -10 1 -13 -8 -9 -8 3 -12 9 -9 14 7 12 11
11 17 -5z m37 -6 c0 -5 -5 -10 -11 -10 -5 0 -7 5 -4 10 3 6 8 10 11 10 2 0 4
-4 4 -10z m-2706 -8 c3 -5 -1 -9 -9 -9 -8 0 -12 4 -9 9 3 4 7 8 9 8 2 0 6 -4
9 -8z m2552 -84 c4 -6 3 -8 -4 -4 -7 4 -10 -1 -9 -14 1 -13 5 -16 11 -10 12
12 29 13 22 1 -3 -5 4 -11 15 -14 15 -4 20 -11 16 -21 -4 -9 -2 -16 3 -16 5 0
6 -7 3 -17 -5 -12 -3 -14 8 -8 12 7 12 6 -1 -9 -17 -22 -25 -60 -9 -51 6 4 5
-2 -3 -14 -12 -19 -10 -24 20 -47 17 -14 32 -31 32 -37 0 -6 -7 -1 -16 11 -8
12 -20 20 -25 17 -5 -4 -9 0 -9 7 0 10 -2 10 -9 -1 -5 -8 -8 -31 -6 -53 2 -23
-1 -38 -8 -38 -6 0 -4 -8 5 -17 15 -15 15 -18 2 -28 -13 -9 -13 -14 5 -34 27
-31 26 -34 -1 -20 -19 9 -21 9 -11 -1 9 -10 9 -18 1 -34 -7 -12 -13 -26 -14
-33 -3 -17 23 -36 38 -28 7 4 5 0 -4 -8 -10 -8 -14 -18 -10 -22 4 -4 -4 -2
-17 5 -19 10 -22 10 -15 -1 13 -22 12 -48 -2 -42 -8 3 -11 -2 -7 -15 2 -11 0
-23 -5 -26 -6 -3 -8 -16 -5 -29 5 -18 3 -20 -8 -10 -10 10 -17 9 -35 -8 -16
-15 -24 -17 -29 -8 -5 8 -4 10 4 5 16 -11 32 35 17 53 -9 12 -8 14 4 9 11 -4
16 1 18 19 1 14 5 30 9 36 11 18 12 36 3 42 -5 3 -7 12 -3 20 3 9 -1 15 -8 15
-11 0 -11 3 1 10 13 9 13 10 0 10 -10 0 -11 3 -3 8 23 15 20 62 -4 63 -17 1
-17 2 0 6 9 2 15 9 12 14 -4 5 -2 9 2 9 5 0 8 15 7 32 -1 18 3 36 9 40 9 6 8
8 -1 8 -7 0 -10 5 -7 10 3 6 2 10 -2 10 -5 0 -9 9 -9 20 0 11 6 20 13 20 9 0
11 10 7 36 -9 60 -13 74 -20 86 -4 7 -3 8 4 4 7 -4 12 -3 12 2 0 6 -8 13 -17
16 -10 4 -13 10 -8 14 14 10 18 42 5 42 -5 0 -10 5 -10 11 0 5 5 7 10 4 6 -3
10 -1 10 4 0 15 17 14 26 -1z m-701 -68 c-3 -5 -12 -10 -18 -10 -7 0 -6 4 3
10 19 12 23 12 15 0z m-1315 -60 c0 -5 -5 -10 -11 -10 -5 0 -7 5 -4 10 3 6 8
10 11 10 2 0 4 -4 4 -10z m-87 -24 c4 -10 1 -13 -8 -9 -8 3 -12 9 -9 14 7 12
11 11 17 -5z m542 -55 c-3 -6 -11 -11 -16 -11 -5 0 -4 6 3 14 14 16 24 13 13
-3z m0 -61 c3 -5 1 -10 -4 -10 -6 0 -11 5 -11 10 0 6 2 10 4 10 3 0 8 -4 11
-10z m1622 -5 c0 -8 -4 -12 -9 -9 -5 3 -6 10 -3 15 9 13 12 11 12 -6z m-1587
-9 c0 -3 -4 -8 -10 -11 -5 -3 -10 -1 -10 4 0 6 5 11 10 11 6 0 10 -2 10 -4z
m1629 -62 c14 -12 -19 -1 -35 12 -18 14 -18 14 6 3 14 -6 27 -13 29 -15z
m-2202 0 c-3 -3 -12 -4 -19 -1 -8 3 -5 6 6 6 11 1 17 -2 13 -5z m2174 -37
c-10 -9 -11 -8 -5 6 3 10 9 15 12 12 3 -3 0 -11 -7 -18z m-836 -36 c3 -5 2
-12 -3 -15 -5 -3 -9 1 -9 9 0 17 3 19 12 6z m-818 -7 c-3 -3 -12 -4 -19 -1 -8
3 -5 6 6 6 11 1 17 -2 13 -5z m-607 -14 c0 -5 -5 -10 -11 -10 -5 0 -7 5 -4 10
3 6 8 10 11 10 2 0 4 -4 4 -10z m2325 -20 c3 -5 2 -10 -4 -10 -5 0 -13 5 -16
10 -3 6 -2 10 4 10 5 0 13 -4 16 -10z m-90 -20 c3 -5 2 -10 -4 -10 -5 0 -13 5
-16 10 -3 6 -2 10 4 10 5 0 13 -4 16 -10z m-2545 -70 c0 -5 -4 -10 -10 -10 -5
0 -10 5 -10 10 0 6 5 10 10 10 6 0 10 -4 10 -10z m214 -139 c4 -5 -1 -8 -9 -7
-21 3 -31 16 -12 16 9 0 18 -4 21 -9z m24 -96 c-3 -3 -9 2 -12 12 -6 14 -5 15
5 6 7 -7 10 -15 7 -18z m265 -28 c3 -8 -1 -14 -8 -14 -7 0 -11 6 -8 14 6 16
10 16 16 0z m24 -54 c-10 -10 -17 -12 -17 -6 0 7 5 15 10 18 6 4 7 12 4 18 -5
8 -2 8 7 -1 11 -10 10 -15 -4 -29z m96 -3 c-2 -3 -8 -5 -11 -5 -4 0 -13 -4
-21 -9 -10 -7 -12 -6 -6 4 6 10 4 12 -8 7 -9 -3 -19 -2 -22 3 -4 6 11 9 34 7
21 -1 37 -4 34 -7z"/>
<path d="M2495 1321 c-3 -5 -2 -12 3 -15 5 -3 9 1 9 9 0 17 -3 19 -12 6z"/>
<path d="M794 493 c8 -14 -10 -27 -19 -13 -4 6 -13 6 -23 1 -9 -5 -28 -14 -42
-20 -14 -7 -17 -9 -7 -7 10 4 17 0 17 -9 0 -8 -7 -15 -17 -15 -14 0 -14 -2 2
-20 14 -16 20 -17 27 -8 6 10 8 10 8 -1 0 -8 7 -11 19 -8 15 4 18 1 13 -12 -5
-14 -3 -14 11 -3 9 8 21 11 27 7 5 -3 10 -1 10 5 0 7 6 10 14 7 16 -6 56 27
56 46 0 8 -4 7 -11 -3 -8 -12 -10 -9 -6 12 3 19 0 25 -10 21 -7 -3 -11 -9 -8
-13 3 -5 1 -11 -4 -14 -5 -4 -21 8 -36 26 -15 18 -24 28 -21 21z m61 -72 c3
-5 2 -12 -3 -15 -5 -3 -9 1 -9 9 0 17 3 19 12 6z"/>
<path d="M830 476 c0 -8 6 -18 13 -22 6 -4 9 -4 5 1 -4 4 -3 14 3 22 9 10 8
13 -5 13 -9 0 -16 -6 -16 -14z"/>
<path d="M2259 926 c0 -12 -3 -16 -5 -9 -3 7 -12 9 -20 6 -7 -3 -12 -9 -9 -13
3 -5 0 -12 -6 -16 -8 -4 -9 -3 -5 4 5 8 -2 12 -20 12 -21 0 -24 -3 -15 -13 6
-8 8 -17 4 -20 -11 -11 -11 -67 0 -67 6 0 7 -3 4 -7 -4 -3 1 -15 10 -26 10
-11 13 -17 7 -14 -7 4 -14 -2 -17 -13 -3 -10 0 -21 7 -24 7 -3 7 -5 -1 -5 -7
-1 -13 -10 -13 -22 0 -11 5 -17 10 -14 6 3 10 1 10 -4 0 -6 -7 -11 -16 -11
-13 0 -14 -3 -5 -13 8 -10 7 -17 -2 -26 -9 -10 -8 -11 8 -5 16 5 17 4 9 -5
-15 -17 -6 -51 14 -51 8 0 12 -3 8 -7 -4 -5 -13 -8 -19 -8 -14 0 -10 -48 4
-53 5 -2 9 -8 9 -14 0 -5 7 -17 16 -26 15 -14 18 -14 28 0 6 8 19 14 28 12 18
-2 32 21 22 38 -3 5 2 16 12 23 11 9 14 14 7 15 -9 0 -12 13 -10 39 3 31 0 38
-12 33 -9 -3 -12 -1 -7 7 12 18 15 81 5 81 -6 0 -5 9 2 21 9 17 8 20 -2 14 -9
-6 -11 -3 -6 9 4 10 2 27 -4 38 -7 13 -7 18 -1 14 6 -3 13 -2 17 4 3 5 1 10
-5 10 -7 0 -10 7 -6 15 3 8 0 15 -7 15 -7 0 -4 5 6 11 9 5 17 15 17 22 0 7 -4
6 -10 -3 -9 -13 -10 -13 -11 0 -1 8 -1 19 0 24 1 5 -4 13 -11 17 -10 7 -10 9
0 9 6 0 12 4 12 8 0 19 -30 7 -31 -12z"/>
<path d="M2205 930 c-3 -6 1 -7 9 -4 18 7 21 14 7 14 -6 0 -13 -4 -16 -10z"/>
<path d="M549 748 c-5 -18 -6 -38 -1 -34 7 8 12 36 6 36 -2 0 -4 -1 -5 -2z"/>
<path d="M2730 609 c0 -5 5 -7 10 -4 6 3 10 8 10 11 0 2 -4 4 -10 4 -5 0 -10
-5 -10 -11z"/>
<path d="M1940 2901 c0 -6 4 -13 10 -16 6 -3 7 1 4 9 -7 18 -14 21 -14 7z"/>
<path d="M956 2881 c-4 -5 -2 -12 3 -15 5 -4 12 -2 15 3 4 5 2 12 -3 15 -5 4
-12 2 -15 -3z"/>
<path d="M657 2713 c-4 -3 -7 -11 -7 -17 0 -6 5 -5 12 2 6 6 9 14 7 17 -3 3
-9 2 -12 -2z"/>
<path d="M520 2600 c-9 -6 -10 -10 -3 -10 6 0 15 5 18 10 8 12 4 12 -15 0z"/>
<path d="M810 2361 c0 -6 4 -13 10 -16 6 -3 7 1 4 9 -7 18 -14 21 -14 7z"/>
<path d="M2805 1900 c3 -5 8 -10 11 -10 2 0 4 5 4 10 0 6 -5 10 -11 10 -5 0
-7 -4 -4 -10z"/>
<path d="M2330 1474 c0 -8 5 -12 10 -9 6 4 8 11 5 16 -9 14 -15 11 -15 -7z"/>
<path d="M2130 130 c0 -5 5 -10 11 -10 5 0 7 5 4 10 -3 6 -8 10 -11 10 -2 0
-4 -4 -4 -10z"/>
</g>
</svg>
