<?xml version="1.0" standalone="no"?>
<!DOCTYPE svg PUBLIC "-//W3C//DTD SVG 20010904//EN"
 "http://www.w3.org/TR/2001/REC-SVG-20010904/DTD/svg10.dtd">
<svg version="1.0" xmlns="http://www.w3.org/2000/svg"
 width="300.000000pt" height="300.000000pt" viewBox="0 0 300.000000 300.000000"
 preserveAspectRatio="xMidYMid meet">
<metadata>
Created by potrace 1.11, written by Peter Selinger 2001-2013
</metadata>
<g transform="translate(0.000000,300.000000) scale(0.100000,-0.100000)"
fill="#000000" stroke="none">
<path d="M1486 2922 c-2 -2 -12 -5 -23 -7 -10 -2 -19 -4 -20 -5 -2 -2 -6 -3
-10 -4 -5 -1 -17 -7 -28 -13 -22 -12 -85 -28 -97 -25 -5 1 -8 -2 -8 -7 0 -5
-9 -7 -20 -4 -11 3 -20 0 -20 -6 0 -6 -3 -10 -7 -9 -14 3 -108 -14 -118 -21
-5 -4 -23 -8 -38 -9 -15 -1 -36 -6 -46 -11 -19 -11 -65 -22 -93 -24 -10 -1
-18 -5 -18 -9 0 -4 -13 -8 -29 -8 -17 0 -33 -5 -36 -10 -4 -6 -12 -10 -18 -9
-7 2 -32 -4 -57 -11 -25 -8 -47 -14 -50 -14 -3 -1 -11 -5 -18 -10 -7 -4 -16
-5 -19 -2 -3 3 -13 1 -23 -4 -17 -9 -62 -21 -88 -22 -7 -1 -11 -7 -8 -14 7
-17 -5 -26 -20 -14 -8 8 -16 6 -26 -4 -8 -7 -31 -16 -50 -19 -20 -2 -40 -7
-45 -10 -10 -6 -58 -18 -80 -19 -7 -1 -13 -5 -13 -10 0 -5 -5 -6 -10 -3 -6 4
-22 -1 -37 -10 -14 -9 -22 -12 -18 -5 4 7 -4 5 -17 -4 -14 -9 -28 -13 -32 -9
-4 4 -11 1 -16 -7 -5 -8 -27 -14 -59 -14 -28 -1 -51 -5 -51 -9 0 -5 -5 -5 -10
-2 -20 12 -40 -17 -40 -56 0 -30 4 -39 17 -39 15 0 14 -2 -3 -15 -18 -14 -17
-15 11 -10 l30 6 -30 -14 c-24 -11 -26 -14 -12 -20 10 -4 17 -2 17 5 0 6 3 8
7 5 3 -4 -4 -19 -18 -34 -13 -14 -18 -23 -11 -19 6 4 12 2 12 -3 0 -6 -4 -11
-9 -11 -13 0 -5 -38 10 -57 10 -11 10 -16 0 -22 -15 -10 -13 -22 7 -37 17 -12
0 -30 -18 -19 -6 3 -7 -1 -4 -9 3 -9 11 -13 18 -10 6 3 2 -2 -8 -10 -11 -9
-16 -16 -10 -16 5 0 9 -16 9 -35 0 -19 -3 -35 -8 -35 -5 0 -4 -7 3 -15 10 -12
10 -15 -1 -15 -12 0 -12 -2 0 -9 10 -6 10 -10 1 -16 -8 -5 -6 -13 7 -28 16
-19 16 -20 1 -8 -21 15 -23 9 -7 -21 7 -14 8 -18 0 -14 -11 7 -8 -45 4 -64 3
-5 1 -10 -5 -10 -7 0 -10 -7 -6 -15 3 -8 1 -15 -5 -15 -6 0 -5 -8 2 -21 6 -12
7 -19 1 -15 -11 7 -4 -32 9 -49 4 -6 1 -19 -7 -29 -17 -24 -18 -40 -3 -30 8 5
8 1 0 -14 -6 -12 -7 -23 -2 -26 5 -4 7 -16 5 -29 -14 -76 -15 -97 -4 -117 7
-12 8 -20 2 -16 -5 3 -10 -5 -10 -19 0 -16 5 -22 12 -18 6 4 5 0 -2 -9 -16
-20 -6 -138 12 -138 7 0 6 -3 -2 -9 -8 -5 -11 -19 -8 -36 3 -16 0 -35 -6 -42
-10 -12 0 -18 25 -14 4 0 7 -4 7 -10 0 -6 -7 -9 -15 -5 -13 5 -17 -1 -17 -24
-1 -3 2 -18 6 -33 4 -19 3 -26 -4 -22 -13 8 -13 -1 1 -27 9 -18 9 -20 -4 -15
-11 4 -14 2 -10 -8 3 -8 10 -12 17 -8 7 4 7 2 -1 -8 -10 -12 -10 -18 0 -29 9
-10 9 -11 0 -6 -9 5 -13 0 -13 -14 0 -13 -4 -19 -12 -14 -7 5 -8 3 -3 -7 11
-16 13 -33 21 -124 3 -38 11 -74 18 -78 7 -5 3 -7 -9 -4 -11 2 -19 9 -17 17 3
11 0 11 -12 1 -8 -7 -12 -20 -9 -28 4 -11 2 -14 -5 -9 -24 15 -11 -1 19 -23
18 -13 29 -19 25 -13 -3 6 -2 14 4 17 6 4 10 3 9 -2 -4 -25 2 -34 21 -28 13 4
20 2 20 -6 0 -7 3 -10 6 -6 4 3 12 1 20 -6 41 -37 63 -49 49 -28 -3 5 0 13 6
17 8 4 9 3 5 -4 -4 -6 3 -21 16 -34 l22 -22 7 24 c4 14 7 18 8 10 1 -16 33
-45 46 -41 3 1 15 -7 24 -18 10 -11 21 -18 25 -14 3 3 6 1 6 -5 0 -7 5 -12 11
-12 6 0 9 7 5 15 -3 8 -1 15 4 15 6 0 10 -7 10 -16 0 -8 5 -12 10 -9 10 6 40
-17 40 -30 0 -10 24 -30 38 -33 8 -1 11 2 7 8 -3 5 -1 10 4 10 6 0 11 -5 11
-11 0 -5 5 -7 10 -4 6 3 10 0 10 -7 0 -8 10 -14 22 -15 11 -1 24 -6 27 -11 3
-5 17 -13 31 -17 14 -4 29 -13 33 -19 6 -8 10 -8 14 2 2 6 10 12 16 12 5 0 7
-3 4 -7 -9 -9 31 -36 42 -29 5 4 11 1 13 -4 2 -6 10 -12 18 -13 8 -2 21 -6 27
-10 7 -5 17 -5 23 -2 5 3 10 1 10 -6 0 -7 10 -9 30 -6 23 5 28 3 23 -8 -3 -11
2 -15 18 -15 12 0 19 -3 16 -7 -12 -11 37 -31 51 -20 9 7 11 5 5 -9 -7 -19 -6
-19 22 0 l30 19 -20 -22 -19 -22 25 10 c21 8 31 5 54 -15 30 -25 40 -30 30
-14 -3 6 1 7 9 4 9 -3 13 -10 10 -15 -3 -5 7 -4 22 1 20 8 30 8 38 -1 8 -9 7
-10 -3 -4 -10 6 -12 4 -7 -4 9 -13 56 -35 69 -32 5 1 6 -3 3 -8 -4 -5 -2 -12
4 -16 5 -3 10 -1 10 4 0 6 7 11 16 11 8 0 12 -4 9 -10 -3 -5 3 -10 14 -10 12
0 21 -5 21 -11 0 -5 -6 -7 -12 -3 -10 6 -10 4 -1 -6 11 -12 15 -11 27 6 14 18
15 18 9 -6 -5 -21 -3 -23 8 -13 17 16 29 16 29 1 0 -7 21 -23 46 -36 37 -19
48 -20 67 -11 21 12 21 11 7 -6 -14 -17 -14 -18 8 -6 18 10 22 9 22 -4 0 -9 4
-14 9 -10 5 3 12 1 16 -5 3 -5 17 -10 31 -10 13 0 24 -4 24 -10 0 -5 5 -10 11
-10 5 0 7 4 4 10 -3 5 1 10 10 10 10 0 14 -5 10 -12 -4 -7 0 -5 8 5 9 10 17
18 19 17 1 -1 17 4 33 11 17 7 32 13 35 14 30 8 50 18 46 23 -2 4 7 8 21 9 14
0 28 5 32 11 3 5 16 12 29 16 12 4 22 12 22 17 0 6 4 8 8 5 5 -3 18 3 28 12
10 10 24 20 29 22 6 2 26 13 45 24 19 12 38 20 43 18 4 -1 31 11 60 28 30 16
61 30 71 30 10 0 14 5 10 12 -4 7 -3 8 4 4 6 -4 23 1 37 10 14 9 25 13 25 9 0
-4 7 -2 15 5 8 7 15 9 15 4 0 -4 11 3 24 15 14 13 29 20 35 17 5 -4 12 -2 16
4 3 5 15 10 25 10 10 0 25 6 32 14 8 7 25 17 38 21 14 4 41 16 60 25 19 10 37
17 40 17 3 -1 22 9 43 21 20 13 37 21 37 18 0 -3 15 1 33 8 17 7 38 11 45 9 6
-3 12 0 12 6 0 6 8 11 18 11 10 0 27 8 38 18 11 10 25 17 32 14 6 -2 12 1 12
6 0 5 11 12 23 16 13 3 29 16 35 28 6 13 11 17 11 11 1 -7 6 -13 12 -13 5 0 7
5 4 10 -6 9 8 14 28 11 4 0 6 2 6 6 -1 5 0 10 1 13 5 13 11 48 15 80 2 19 9
36 15 38 8 3 8 8 -1 18 -6 7 -12 50 -12 94 -1 44 -5 80 -9 80 -5 0 -8 5 -8 11
0 5 5 7 12 3 7 -5 8 -3 3 7 -12 18 -16 59 -6 59 4 0 7 17 7 39 -1 26 -5 37
-13 34 -20 -8 -15 4 10 28 12 12 16 19 10 15 -8 -5 -13 -1 -13 9 0 9 4 13 10
10 6 -4 7 2 1 17 -4 13 -5 35 0 51 5 19 4 30 -5 33 -14 5 -19 74 -5 74 5 0 7
10 5 23 -3 12 -5 22 -6 22 -7 0 -6 83 1 97 5 9 6 19 1 22 -4 2 -6 26 -4 53 1
26 2 54 2 61 0 6 0 18 0 25 0 6 1 23 3 37 2 14 0 30 -4 35 -11 16 1 66 15 58
6 -4 4 2 -4 12 -9 11 -10 16 -2 11 8 -5 12 0 12 13 0 14 -5 19 -15 15 -12 -5
-14 -2 -7 17 9 29 9 50 -1 65 -4 7 0 17 8 24 18 15 20 34 3 24 -10 -6 -10 -4
0 8 10 13 10 18 1 24 -8 5 -9 3 -4 -6 5 -9 4 -11 -4 -6 -12 8 -8 18 18 51 9
11 12 17 7 13 -5 -4 -15 -3 -23 4 -11 9 -11 14 3 29 15 17 15 19 1 19 -11 0
-14 6 -11 23 3 12 5 27 5 32 -4 37 -9 70 -11 73 -7 6 -5 28 3 40 6 8 5 12 -3
12 -8 0 -9 4 -3 13 5 6 9 28 8 47 -1 19 -3 59 -4 88 -1 39 -4 51 -13 46 -10
-6 -10 -4 0 7 20 21 14 32 -14 25 -17 -5 -23 -3 -19 4 3 5 0 10 -9 10 -8 0
-17 6 -19 13 -4 9 -6 8 -6 -2 -1 -8 -9 -3 -22 13 -11 14 -26 26 -32 26 -7 0
-6 -5 3 -11 12 -9 12 -10 -3 -5 -10 3 -21 6 -23 6 -3 0 -2 5 1 10 6 10 -10 14
-53 12 -15 -1 -20 3 -16 11 4 7 -3 3 -15 -7 -22 -20 -22 -20 -15 0 7 17 6 18
-11 4 -17 -14 -18 -13 -12 2 4 12 2 15 -9 11 -8 -3 -21 0 -28 6 -11 10 -17 8
-25 -6 -10 -16 -11 -15 -7 7 4 26 1 28 -56 31 -9 0 -22 7 -28 14 -6 8 -18 11
-26 8 -8 -3 -14 0 -14 7 0 9 -3 10 -14 1 -11 -9 -15 -8 -20 5 -4 9 -9 14 -13
11 -3 -4 -12 -2 -19 4 -8 6 -20 9 -28 6 -8 -3 -17 1 -20 8 -3 8 -12 12 -20 9
-8 -3 -17 0 -21 6 -6 9 -10 9 -16 -1 -6 -10 -9 -11 -9 -1 0 6 -7 12 -16 12 -8
0 -13 -4 -9 -9 3 -5 0 -13 -7 -17 -7 -4 -10 -4 -6 1 9 10 -9 45 -23 45 -6 0
-7 -6 -3 -12 5 -9 3 -9 -9 1 -9 7 -14 17 -11 22 3 5 -1 7 -8 4 -7 -2 -30 -6
-51 -8 -31 -4 -35 -2 -25 10 6 8 7 13 2 12 -23 -4 -45 2 -39 11 3 6 2 10 -4
10 -5 0 -13 -5 -17 -12 -5 -8 -11 -6 -20 6 -7 11 -18 15 -25 10 -9 -5 -10 -2
-6 9 3 10 2 17 -3 17 -6 0 -10 -5 -10 -12 0 -6 -3 -8 -7 -5 -3 4 -12 -1 -20
-11 -12 -16 -13 -15 -6 3 6 18 5 19 -12 5 -10 -8 -16 -10 -12 -4 4 7 -1 18
-10 25 -14 12 -16 12 -8 0 6 -11 5 -12 -6 -5 -8 5 -22 9 -32 9 -10 0 -22 7
-28 15 -9 13 -10 12 -5 -2 3 -10 0 -20 -6 -24 -7 -4 -8 -3 -4 4 10 16 -33 37
-47 23 -17 -17 -30 -13 -24 9 6 24 -1 25 -31 5 -18 -13 -21 -14 -16 -1 3 7 0
17 -7 22 -8 5 -10 3 -4 -6 5 -8 3 -11 -6 -8 -8 3 -13 12 -11 19 1 8 -4 6 -12
-5 -15 -18 -46 -16 -46 3 0 10 -115 12 -124 3z m308 -51 c3 -5 -2 -15 -12 -22
-15 -12 -16 -12 -5 2 7 9 10 19 6 22 -3 4 -4 7 0 7 3 0 8 -4 11 -9z m-59 -21
c3 -6 -1 -7 -9 -4 -18 7 -21 14 -7 14 6 0 13 -4 16 -10z m130 -19 c-3 -6 -11
-11 -16 -11 -5 0 -4 6 3 14 14 16 24 13 13 -3z m-168 -41 c-4 -17 -2 -18 14
-9 17 9 23 5 20 -13 0 -4 10 -5 23 -2 15 2 26 -2 30 -11 7 -18 27 -20 22 -2
-1 6 -1 9 1 4 3 -4 9 -5 14 -1 5 3 8 0 7 -8 -2 -7 4 -13 12 -13 8 0 14 7 12
15 -2 9 7 4 20 -10 13 -15 33 -25 46 -24 13 1 22 -4 22 -12 0 -8 4 -14 9 -14
5 0 8 11 6 25 -3 32 3 32 16 -1 9 -26 10 -26 29 -9 19 17 19 17 16 -2 -3 -13
2 -19 17 -21 17 -1 19 1 7 8 -9 6 -10 10 -3 10 6 0 24 -11 40 -24 15 -12 34
-21 42 -18 8 3 11 0 7 -6 -3 -6 -2 -13 3 -16 5 -4 13 -2 16 4 5 8 12 7 23 -2
10 -8 13 -9 9 -1 -4 6 -2 15 4 19 7 4 10 3 6 -2 -3 -5 1 -17 8 -27 8 -12 15
-14 20 -8 4 8 12 8 26 1 11 -6 24 -8 29 -5 6 4 13 -1 16 -9 7 -19 40 -21 50
-4 5 8 14 2 29 -16 19 -23 38 -31 90 -35 6 -1 3 -6 -5 -11 -20 -13 -4 -13 20
0 13 7 19 6 23 -4 6 -14 63 -10 84 6 7 6 14 5 19 -3 4 -7 3 -9 -3 -6 -11 7
-28 -22 -18 -31 3 -3 5 1 5 9 0 11 2 11 10 -1 6 -10 10 -11 10 -2 0 6 4 12 10
12 5 0 6 -7 3 -17 -4 -11 -3 -14 5 -9 7 4 17 4 24 0 27 -17 60 -10 74 16 10
15 13 17 9 5 -17 -48 -18 -58 -7 -51 7 4 12 3 12 -2 0 -5 14 -12 30 -16 27 -5
31 -10 30 -38 0 -18 0 -40 1 -48 0 -8 -3 -26 -7 -39 -5 -17 -4 -22 4 -17 15 9
7 -31 -10 -52 -8 -10 -9 -13 -1 -9 12 8 12 -70 -1 -91 -3 -6 2 -16 13 -22 12
-6 18 -16 15 -25 -4 -8 -11 -12 -18 -8 -6 3 -2 -4 9 -17 11 -13 14 -20 6 -15
-11 6 -13 2 -9 -18 4 -18 1 -24 -9 -20 -7 3 -13 1 -13 -5 0 -5 6 -12 13 -15 9
-3 12 -16 9 -37 -3 -23 -1 -31 7 -26 7 5 9 1 5 -8 -3 -9 -10 -13 -15 -10 -5 3
-9 0 -9 -5 0 -6 4 -11 10 -11 5 0 6 -7 3 -17 -5 -12 -3 -14 8 -8 12 7 12 6 1
-7 -9 -11 -10 -18 -2 -23 6 -4 8 -16 4 -27 -4 -15 -3 -18 6 -13 8 5 11 4 6 -3
-3 -6 -8 -33 -10 -60 -2 -27 -7 -55 -11 -62 -6 -9 -4 -11 5 -5 10 6 12 4 6
-11 -12 -28 -13 -67 -2 -81 5 -8 5 -13 -1 -13 -5 0 -9 -9 -10 -20 -1 -11 3
-20 10 -20 6 0 2 -7 -9 -15 -12 -9 -14 -14 -6 -15 7 0 10 -5 7 -10 -3 -5 -1
-10 4 -10 6 0 11 -13 11 -30 0 -19 -5 -30 -14 -30 -16 0 -16 -35 -1 -59 6 -10
4 -12 -4 -6 -10 6 -11 3 -2 -14 7 -11 16 -21 21 -21 6 0 10 -4 10 -10 0 -14
-28 -12 -33 3 -2 6 -3 -13 -2 -44 1 -30 5 -61 9 -67 5 -8 2 -10 -9 -5 -15 5
-15 3 -4 -16 8 -11 17 -21 20 -21 4 0 6 -11 5 -25 0 -14 -5 -25 -10 -25 -5 0
-2 -8 5 -17 10 -11 10 -14 2 -9 -8 4 -13 1 -13 -8 0 -14 12 -20 33 -17 15 2 6
-19 -13 -31 -11 -7 -20 -23 -20 -36 0 -13 4 -20 10 -17 6 3 11 3 11 -2 5 -32
5 -52 0 -50 -3 1 -7 -2 -8 -7 -1 -5 -7 -12 -13 -16 -8 -5 -8 -11 2 -21 18 -18
17 -51 -1 -57 -10 -3 -12 0 -8 12 6 14 3 16 -14 11 -15 -5 -19 -4 -14 5 6 9 2
9 -15 0 -12 -7 -20 -8 -16 -2 3 5 -10 17 -29 26 -30 14 -34 21 -29 42 4 14 2
24 -5 24 -6 0 -11 -4 -11 -8 0 -4 -9 -8 -19 -8 -11 0 -17 4 -15 8 3 4 10 8 15
8 13 0 33 20 42 42 4 12 2 15 -9 11 -10 -4 -12 0 -8 11 3 9 10 14 15 11 4 -3
6 5 3 17 -8 33 -8 118 0 125 3 3 -2 12 -12 20 -9 8 -11 12 -4 8 8 -4 12 3 12
22 0 16 -6 35 -12 42 -7 8 -8 11 -2 8 14 -8 17 119 3 165 -6 22 -6 34 1 36 7
3 6 10 -2 20 -10 12 -10 14 0 8 6 -4 12 -2 12 3 0 6 -6 11 -12 11 -10 0 -10 2
0 8 13 9 14 72 1 72 -4 0 -9 7 -12 14 -4 11 -1 13 11 9 15 -6 16 -5 2 12 -8
10 -10 16 -3 12 7 -5 11 -1 11 10 0 10 1 25 3 33 2 8 -1 14 -8 13 -6 -1 -14 4
-17 12 -3 9 0 12 8 9 9 -3 13 5 14 28 1 23 -2 28 -8 18 -6 -8 -10 -11 -10 -6
0 5 8 18 17 28 14 16 14 18 1 13 -12 -5 -15 0 -12 20 1 15 6 30 10 33 4 4 4
-2 0 -13 -4 -11 -4 -16 0 -12 5 4 8 34 8 67 1 56 0 60 -22 60 -13 0 -20 4 -17
10 4 6 -1 7 -11 3 -12 -4 -15 -3 -10 5 5 8 2 10 -8 6 -10 -4 -16 -1 -16 7 0
10 -3 10 -12 1 -15 -15 -32 -16 -23 -2 3 6 -3 10 -13 10 -11 0 -25 7 -32 15
-7 8 -16 12 -21 9 -5 -3 -6 2 -2 12 5 14 3 15 -16 5 -16 -9 -26 -9 -39 -1 -15
10 -14 11 6 7 12 -3 20 -2 17 3 -8 13 -55 18 -55 6 0 -6 -5 -3 -11 7 -11 19
-34 24 -24 5 4 -7 -4 -2 -16 12 -17 19 -21 20 -15 6 6 -18 5 -18 -19 -2 -14 9
-30 14 -36 11 -5 -4 -21 0 -34 9 -15 10 -26 12 -30 6 -3 -6 -11 -10 -16 -10
-6 0 -8 4 -4 9 3 5 -5 11 -17 13 -13 2 -22 9 -20 17 3 12 0 12 -12 1 -9 -7
-16 -10 -16 -6 0 4 -15 -1 -32 -10 -31 -16 -32 -16 -19 0 13 15 12 16 -13 7
-14 -6 -26 -8 -26 -5 0 4 -6 1 -13 -5 -8 -6 -18 -7 -22 -3 -5 4 -5 2 -1 -5 3
-6 -2 -18 -12 -25 -26 -19 -34 -36 -21 -44 8 -4 9 -3 5 4 -4 7 -2 12 3 12 13
0 14 -17 2 -25 -5 -3 -9 -19 -9 -35 1 -16 5 -27 9 -24 5 3 6 -3 2 -13 -4 -10
-13 -22 -20 -26 -12 -7 -12 -12 2 -27 9 -10 14 -23 11 -28 -3 -4 2 -21 10 -37
12 -23 12 -26 0 -16 -21 17 -28 -9 -8 -31 8 -10 10 -18 4 -18 -16 0 -8 -28 14
-46 18 -15 18 -15 -3 -5 -19 10 -21 8 -19 -14 1 -14 6 -28 11 -33 4 -4 5 -1 0
7 -5 10 -4 12 3 7 11 -7 7 -47 -7 -71 -9 -16 -10 -36 -1 -30 4 3 7 -6 6 -19 0
-13 -4 -22 -7 -20 -3 2 -6 -10 -5 -26 1 -17 5 -30 9 -30 5 0 7 -10 6 -22 -2
-13 1 -29 5 -37 6 -9 5 -12 -1 -8 -6 4 -14 0 -17 -9 -4 -10 -2 -13 7 -8 9 6 9
4 -1 -8 -8 -10 -11 -35 -9 -67 2 -28 1 -51 -3 -51 -3 0 -4 -25 -2 -56 4 -60 1
-61 -42 -25 -14 12 -20 13 -23 4 -4 -10 -7 -10 -18 0 -7 7 -11 14 -10 17 2 3
-8 7 -23 8 -15 1 -28 7 -30 12 -2 6 -10 10 -18 10 -8 0 -14 5 -14 11 0 6 -9 9
-20 6 -12 -3 -20 0 -20 8 0 8 -8 11 -22 8 -19 -4 -20 -3 -8 6 13 9 13 11 -2
11 -10 0 -18 -5 -18 -11 0 -5 -5 -7 -10 -4 -6 4 -8 11 -5 16 4 5 2 9 -2 9 -5
0 -20 11 -34 24 -20 19 -26 32 -23 55 2 17 -1 31 -7 31 -6 0 -6 8 2 22 9 17 9
20 -4 15 -12 -4 -13 1 -6 31 4 20 5 39 1 42 -9 7 -8 32 1 48 5 6 4 12 -2 12
-7 0 -7 9 -3 23 11 29 5 86 -10 105 -11 13 -10 14 0 8 12 -7 12 -4 1 15 -15
28 -15 29 3 40 10 6 8 9 -7 9 -14 0 -16 3 -7 8 9 7 8 13 -8 27 -11 10 -20 25
-19 34 0 10 4 7 10 -7 5 -14 13 -20 20 -16 8 5 9 3 4 -6 -5 -9 -4 -11 3 -6 8
5 9 13 3 24 -5 9 -5 26 -1 37 4 11 4 27 0 35 -4 8 -7 26 -6 40 1 14 -2 30 -6
37 -5 6 -5 14 2 18 5 3 10 11 10 16 0 6 -4 8 -9 5 -5 -4 -7 3 -4 14 3 11 0 26
-6 34 -10 11 -9 15 4 18 15 3 14 7 -6 32 l-22 29 22 -12 c21 -12 22 -11 12 7
-6 11 -7 23 -3 27 4 5 -2 5 -13 1 -15 -6 -17 -4 -8 5 6 6 9 18 6 27 -5 11 -2
13 8 7 11 -6 12 -5 2 5 -9 9 -9 17 -2 26 7 9 4 18 -12 33 -19 18 -20 21 -6 21
9 0 17 5 17 10 0 6 -6 10 -12 10 -10 0 -9 3 1 9 9 6 10 11 2 15 -6 4 -11 12
-11 17 0 6 5 7 10 4 6 -3 10 -1 10 4 0 6 -5 11 -11 11 -8 0 -7 5 2 16 10 13
10 19 0 36 -7 11 -8 17 -2 14 5 -4 9 2 8 14 -1 12 -6 19 -14 16 -15 -6 -18 20
-3 29 6 3 10 1 10 -4 0 -6 4 -11 9 -11 5 0 5 15 1 35 -5 21 -4 38 2 41 5 3 1
13 -9 21 -10 8 -12 12 -5 8 17 -9 27 24 13 46 -6 11 -7 19 -2 19 5 0 9 23 8
50 0 31 -4 46 -9 38 -4 -7 -8 -8 -8 -3 0 29 36 43 56 22 4 -4 12 -7 18 -7 6 0
4 5 -4 10 -11 8 -8 9 12 4 20 -4 29 -2 34 10 9 23 17 20 11 -4z m-263 -14 c13
-4 15 -10 8 -19 -5 -6 -8 -20 -7 -29 2 -10 -1 -18 -6 -18 -5 0 -9 -9 -9 -20 0
-11 6 -20 13 -20 7 0 8 -3 2 -8 -11 -8 -17 -154 -5 -147 3 2 7 -2 7 -10 0 -8
-4 -15 -8 -15 -5 0 -4 -11 2 -24 8 -16 17 -23 28 -20 9 3 5 -2 -9 -10 -14 -8
-19 -15 -11 -16 11 0 10 -4 -3 -19 -17 -19 -17 -19 6 -15 22 5 22 5 4 -10 -11
-9 -15 -19 -10 -28 5 -7 9 -21 10 -30 3 -36 4 -39 16 -32 6 4 8 3 5 -4 -4 -5
-17 -8 -30 -6 -20 4 -19 3 3 -6 23 -10 23 -12 7 -21 -13 -8 -15 -14 -7 -30 8
-14 7 -19 -2 -19 -10 0 -9 -3 1 -9 11 -7 12 -13 3 -23 -8 -11 -8 -21 3 -41 7
-14 11 -26 7 -26 -17 3 -23 -2 -15 -13 10 -17 10 -32 0 -39 -5 -4 -4 -16 2
-28 8 -15 9 -21 1 -21 -6 0 -8 -5 -5 -10 4 -6 10 -8 15 -5 5 3 5 -8 0 -25 -5
-16 -6 -30 -2 -30 4 0 0 -5 -8 -11 -12 -9 -11 -10 7 -6 16 4 21 0 20 -13 -1
-10 -6 -18 -12 -17 -5 1 -8 -5 -6 -13 2 -8 4 -21 4 -27 0 -7 5 -13 10 -13 6 0
5 -5 -1 -13 -7 -8 -6 -18 4 -31 8 -11 14 -16 14 -12 0 4 5 4 11 1 7 -5 3 -14
-10 -26 -25 -23 -27 -39 -5 -39 8 0 13 -4 9 -10 -3 -5 -13 -7 -23 -4 -15 5
-14 4 1 -6 16 -10 16 -14 5 -28 -7 -10 -13 -24 -12 -32 1 -8 2 -32 3 -53 0
-21 4 -36 9 -34 4 3 7 -8 7 -24 0 -16 -3 -29 -7 -29 -5 0 -8 -5 -8 -11 0 -5 5
-7 10 -4 10 6 7 -21 -6 -63 -2 -7 1 -10 7 -6 8 4 9 -1 4 -16 -6 -17 -4 -21 6
-15 8 5 5 -2 -6 -15 -11 -13 -14 -20 -7 -16 17 10 15 -24 -2 -47 -8 -10 -23
-17 -33 -16 -10 2 -40 -7 -68 -20 -27 -12 -58 -23 -67 -24 -10 -1 -18 -6 -18
-11 0 -5 -3 -6 -7 -3 -3 4 -15 0 -25 -10 -10 -9 -18 -13 -18 -10 0 3 -16 -1
-35 -9 -20 -8 -40 -12 -45 -9 -6 4 -10 1 -10 -4 0 -6 -8 -11 -17 -11 -10 -1
-36 -9 -58 -20 -22 -11 -48 -19 -57 -20 -10 0 -18 -5 -18 -11 0 -5 -4 -7 -10
-4 -5 3 -10 2 -10 -3 0 -4 -23 -14 -50 -21 -28 -7 -48 -16 -46 -19 2 -4 -8 -8
-22 -9 -15 0 -28 -6 -30 -12 -2 -6 -8 -9 -12 -6 -5 3 -17 1 -27 -4 -10 -6 -49
-22 -88 -37 -38 -14 -73 -32 -77 -38 -4 -6 -8 -8 -8 -4 0 7 -45 -13 -112 -48
-18 -10 -28 -11 -28 -4 0 6 -10 1 -22 -10 -12 -11 -28 -18 -34 -16 -7 3 -37
-7 -66 -21 -29 -15 -61 -26 -71 -24 -9 1 -17 -2 -17 -7 0 -5 -6 -9 -12 -9 -7
0 -20 -4 -29 -7 -10 -5 -19 -1 -23 9 -4 11 -2 14 7 9 9 -5 9 -4 0 6 -10 10
-10 17 -1 28 7 8 8 16 2 20 -13 9 -11 38 3 35 5 -1 9 9 7 22 -1 14 2 27 7 31
5 3 5 12 -1 23 -5 10 -7 21 -3 24 3 4 0 14 -8 24 -8 9 -9 14 -3 10 7 -4 10 7
9 31 -1 20 2 42 7 49 5 6 5 14 -1 17 -6 4 -6 18 -1 37 7 25 6 30 -5 25 -12 -4
-12 2 0 40 8 28 9 42 2 37 -6 -4 -8 0 -4 10 3 10 2 17 -4 17 -5 0 -4 12 4 28
15 30 15 41 4 60 -5 6 -5 17 -1 24 11 17 13 178 3 205 -5 14 -4 25 3 29 7 5 8
3 3 -6 -5 -7 -4 -11 1 -7 5 3 7 37 4 76 -3 43 -1 73 5 75 5 3 2 5 -7 5 -10 1
-18 6 -18 12 0 6 7 9 15 6 11 -5 12 -1 5 19 -13 34 -13 53 1 34 8 -11 9 -8 4
15 -3 17 -6 38 -6 48 0 9 -5 17 -11 17 -5 0 0 9 13 21 20 17 21 20 5 15 -16
-6 -17 -4 -6 9 12 14 7 20 -14 16 -5 -1 -4 5 4 13 8 11 9 16 1 16 -6 0 -10 6
-8 13 1 6 -3 11 -9 10 -6 -1 -11 5 -11 13 0 12 3 11 18 -2 10 -9 23 -13 29 -9
7 5 8 10 3 14 -5 3 -15 22 -21 41 -10 31 -10 33 3 16 13 -17 14 -15 13 23 0
38 -2 40 -15 24 -14 -17 -14 -17 -7 2 4 11 7 32 7 47 0 15 3 25 8 23 9 -6 6
22 -4 31 -4 4 -2 13 4 21 9 10 8 13 -5 13 -10 0 -14 5 -11 10 4 6 10 8 14 6 4
-3 5 11 3 30 -3 23 -9 34 -21 34 -21 0 39 39 70 45 12 3 26 9 29 15 4 6 11 10
16 9 5 -1 11 0 14 1 3 1 12 3 20 5 8 2 49 15 90 30 41 14 82 28 90 30 8 3 47
16 85 30 39 13 80 25 92 25 12 0 25 5 28 10 4 6 11 8 16 4 5 -3 15 -1 22 4 7
5 32 13 57 17 25 4 48 12 51 18 4 5 21 10 38 11 17 0 31 5 31 9 0 5 4 5 10 2
5 -3 20 0 32 7 13 6 34 14 48 16 13 2 30 7 36 13 6 5 14 6 17 2 4 -3 7 -2 7 4
0 5 16 10 35 11 20 1 41 5 48 9 13 8 32 14 62 17 11 2 29 5 40 9 11 3 38 8 59
12 22 3 42 8 44 10 3 2 8 3 11 1 3 -1 14 -6 25 -10z m711 -5 c3 -5 2 -12 -3
-15 -5 -3 -9 1 -9 9 0 17 3 19 12 6z m40 -60 c3 -5 2 -12 -3 -15 -5 -3 -9 1
-9 9 0 17 3 19 12 6z m266 -68 c13 -16 12 -17 -3 -4 -10 7 -18 15 -18 17 0 8
8 3 21 -13z m90 0 c13 -17 13 -17 -6 -3 -11 8 -22 16 -24 17 -2 2 0 3 6 3 6 0
17 -8 24 -17z m-5 -38 c1 -8 -2 -15 -6 -15 -5 0 -8 9 -7 20 1 21 10 18 13 -5z
m-106 1 c0 -2 -7 -7 -16 -10 -8 -3 -12 -2 -9 4 6 10 25 14 25 6z m200 -18 c0
-6 -6 -5 -15 2 -8 7 -15 14 -15 16 0 2 7 1 15 -2 8 -4 15 -11 15 -16z m0 -30
c0 -5 -4 -8 -10 -8 -5 0 -10 5 -10 10 0 6 -3 9 -7 9 -17 -3 -24 1 -18 11 6 10
45 -9 45 -22z m35 12 c-3 -5 -12 -10 -18 -10 -7 0 -6 4 3 10 19 12 23 12 15 0z
m80 0 c-3 -5 -14 -10 -23 -9 -14 0 -13 2 3 9 27 11 27 11 20 0z m-91 -52 c-5
-8 -2 -9 9 -5 9 3 19 1 23 -5 4 -6 3 -8 -4 -4 -6 3 -14 1 -18 -5 -4 -8 -9 -7
-15 2 -12 19 -11 29 2 29 5 0 7 -5 3 -12z m-1084 -248 c0 -5 -7 -7 -15 -4 -8
4 -12 10 -9 15 6 11 24 2 24 -11z m-1400 -20 c0 -5 -2 -10 -4 -10 -3 0 -8 5
-11 10 -3 6 -1 10 4 10 6 0 11 -4 11 -10z m1355 -10 c-3 -5 -12 -10 -18 -10
-7 0 -6 4 3 10 19 12 23 12 15 0z m514 -151 c-16 -10 -23 -4 -14 10 3 6 11 8
17 5 6 -4 5 -9 -3 -15z m-569 -65 c0 -8 -5 -12 -10 -9 -6 4 -8 11 -5 16 9 14
15 11 15 -7z m650 -4 c-24 -15 -36 -11 -14 4 10 8 21 12 24 10 2 -3 -2 -9 -10
-14z m-50 -5 c0 -8 -4 -15 -10 -15 -5 0 -7 7 -4 15 4 8 8 15 10 15 2 0 4 -7 4
-15z m128 -15 c-2 -26 3 -33 14 -22 7 7 16 8 23 2 6 -5 22 -12 36 -14 13 -3
25 -5 27 -7 7 -6 28 -3 33 4 4 5 20 2 36 -7 17 -8 33 -13 37 -11 3 3 4 2 1 -1
-7 -11 37 -45 52 -40 7 3 15 0 19 -6 5 -7 2 -8 -6 -3 -8 5 -11 4 -7 -3 4 -5
17 -8 29 -4 16 4 20 2 15 -10 -3 -10 0 -15 11 -14 10 0 18 -7 18 -19 1 -11 3
-24 4 -30 8 -30 4 -155 -5 -155 -5 0 -4 -4 3 -9 15 -9 15 -13 1 -50 -8 -19 -7
-22 6 -17 11 4 14 2 9 -6 -5 -7 -9 -46 -10 -88 -1 -41 -5 -110 -8 -152 -5 -60
-3 -78 6 -78 8 0 9 -3 3 -8 -6 -4 -11 -20 -13 -37 -1 -16 -3 -41 -5 -55 -2
-14 0 -38 4 -53 6 -21 4 -30 -6 -34 -8 -3 -12 -9 -9 -14 3 -5 9 -7 14 -4 5 3
12 1 15 -5 4 -6 3 -10 -2 -9 -27 5 -34 -2 -17 -18 9 -10 12 -19 6 -21 -5 -1
-8 -12 -5 -22 3 -11 10 -17 16 -13 6 3 7 1 3 -6 -4 -6 -12 -9 -17 -6 -5 4 -9
1 -9 -4 0 -11 -24 -1 -60 25 -8 5 -22 10 -30 9 -8 -1 -30 4 -47 11 -28 11 -33
11 -33 -2 0 -7 -4 -14 -10 -14 -5 0 -7 6 -4 14 3 7 -2 16 -10 19 -11 4 -16 1
-17 -11 0 -13 -3 -11 -9 6 -10 24 -25 29 -34 10 -3 -7 -3 -2 1 12 5 22 4 23
-11 11 -9 -7 -17 -11 -17 -7 -1 3 -3 11 -4 16 -1 6 -3 13 -4 16 0 4 -8 1 -17
-6 -8 -8 -14 -9 -13 -4 4 21 -2 35 -11 29 -5 -3 -10 -1 -10 5 0 6 -8 10 -17 9
-26 -4 -62 22 -55 39 3 10 1 13 -7 8 -8 -5 -11 1 -9 21 1 16 -1 34 -6 41 -4 7
-2 12 3 12 15 0 14 30 -1 31 -9 0 -9 2 -2 5 7 3 10 14 7 24 -3 13 0 20 8 20
11 0 11 2 -1 10 -10 6 -11 10 -2 10 6 0 12 7 12 16 0 9 -5 12 -12 8 -7 -5 -8
-3 -3 6 14 22 15 111 1 103 -6 -4 -4 2 4 12 9 11 10 16 3 11 -7 -4 -13 -2 -13
3 0 6 4 11 9 11 6 0 8 9 6 20 -2 11 1 20 7 20 7 0 -1 15 -18 32 -21 24 -23 28
-5 13 24 -20 24 -20 17 0 -13 34 -18 122 -6 105 7 -11 10 -12 10 -2 0 8 -10
22 -22 33 -13 10 -17 18 -10 19 6 0 12 -4 12 -8 0 -5 7 -9 14 -9 11 0 12 5 5
18 -5 10 -6 25 -3 33 4 9 0 24 -7 33 -12 14 -12 16 0 9 10 -7 12 -3 6 13 -4
14 -2 21 7 21 10 0 9 3 -2 10 -9 6 -20 5 -30 -3 -13 -10 -13 -10 -2 5 8 9 11
22 8 27 -4 5 -1 13 5 17 8 5 9 3 4 -7 -7 -12 -5 -12 6 -1 12 11 12 14 0 21 -8
5 -10 14 -5 22 11 19 11 59 -1 59 -5 0 -4 4 4 9 14 9 100 10 99 1z m-698 -26
c0 -8 -19 -13 -24 -6 -3 5 1 9 9 9 8 0 15 -2 15 -3z m35 -144 c3 -6 -1 -7 -9
-4 -18 7 -21 14 -7 14 6 0 13 -4 16 -10z m1035 -50 c0 -5 -2 -10 -4 -10 -3 0
-8 5 -11 10 -3 6 -1 10 4 10 6 0 11 -4 11 -10z m-990 -61 c0 -5 -5 -7 -12 -3
-7 5 -9 2 -6 -8 4 -8 0 -15 -7 -15 -10 0 -11 5 -4 19 11 20 29 24 29 7z m463
-4 c-3 -9 -8 -14 -10 -11 -3 3 -2 9 2 15 9 16 15 13 8 -4z m-33 -94 c0 -5 -7
-12 -16 -15 -14 -5 -15 -4 -4 9 14 17 20 19 20 6z m44 1 c3 -5 -1 -9 -9 -9 -8
0 -12 4 -9 9 3 4 7 8 9 8 2 0 6 -4 9 -8z m-576 -27 c-3 -3 -9 2 -12 12 -6 14
-5 15 5 6 7 -7 10 -15 7 -18z m-1384 -3 c3 -5 -1 -9 -9 -9 -8 0 -12 4 -9 9 3
4 7 8 9 8 2 0 6 -4 9 -8z m1950 -18 c3 -8 2 -12 -4 -9 -6 3 -10 10 -10 16 0
14 7 11 14 -7z m517 -27 c-10 -9 -11 -8 -5 6 3 10 9 15 12 12 3 -3 0 -11 -7
-18z m-2471 -1 c0 -3 -4 -8 -10 -11 -5 -3 -10 -1 -10 4 0 6 5 11 10 11 6 0 10
-2 10 -4z m130 -6 c0 -5 -5 -10 -11 -10 -5 0 -7 5 -4 10 3 6 8 10 11 10 2 0 4
-4 4 -10z m1446 -245 c-3 -8 0 -15 6 -15 6 0 9 -3 5 -6 -10 -11 -26 6 -20 21
3 8 7 15 10 15 3 0 3 -7 -1 -15z m74 -49 c0 -3 -4 -8 -10 -11 -5 -3 -10 -1
-10 4 0 6 5 11 10 11 6 0 10 -2 10 -4z m65 -16 c3 -5 1 -10 -4 -10 -6 0 -11 5
-11 10 0 6 2 10 4 10 3 0 8 -4 11 -10z m-144 -39 c7 11 9 11 9 -3 0 -10 5 -18
11 -18 5 0 7 5 3 12 -4 7 -3 8 5 4 9 -6 9 -11 0 -22 -14 -17 -10 -23 22 -30
52 -12 80 -13 74 -4 -3 6 1 7 9 4 9 -3 16 -12 16 -19 0 -8 9 -16 19 -20 11 -3
22 -12 25 -20 3 -8 12 -15 21 -15 8 0 15 -4 15 -9 0 -5 11 -12 25 -15 14 -4
25 -11 25 -17 0 -6 6 -7 13 -2 21 13 37 12 37 -3 0 -9 4 -12 10 -9 5 3 28 -3
50 -14 65 -31 126 -43 147 -28 9 6 11 3 8 -12 -3 -14 2 -21 13 -22 42 -3 47
-5 47 -16 0 -6 4 -15 9 -20 5 -4 6 -3 3 3 -4 7 3 14 18 16 20 4 23 2 14 -8 -8
-9 -5 -16 12 -24 17 -10 20 -9 14 2 -5 7 3 3 17 -9 13 -13 32 -23 41 -23 9 0
17 -5 17 -10 0 -6 3 -9 8 -8 6 2 33 -3 92 -17 3 0 15 -6 27 -13 17 -9 22 -9
26 1 4 8 6 7 6 -3 1 -8 12 -20 26 -27 14 -6 23 -7 20 -3 -3 4 6 3 19 -3 13 -7
22 -16 19 -21 -4 -5 -2 -7 3 -4 5 3 27 -1 49 -8 22 -7 33 -13 24 -13 -9 -1
-19 -8 -23 -16 -3 -8 -12 -12 -20 -9 -11 4 -13 0 -9 -16 3 -11 2 -20 -3 -19
-5 1 -22 -3 -37 -9 -16 -7 -33 -12 -38 -12 -6 0 -8 -4 -5 -9 4 -5 -2 -8 -11
-7 -10 2 -24 -6 -32 -16 -7 -11 -19 -17 -27 -14 -7 3 -11 0 -8 -7 3 -8 -4 -13
-17 -14 -32 -3 -119 -36 -119 -46 0 -4 -4 -6 -9 -3 -5 3 -12 -1 -15 -10 -5
-12 -9 -14 -20 -5 -14 12 -49 5 -41 -8 2 -4 -19 -16 -48 -26 -29 -10 -57 -26
-64 -34 -10 -13 -12 -14 -13 -1 0 11 -3 11 -12 2 -7 -7 -20 -12 -30 -12 -10 0
-18 -5 -18 -11 0 -6 -6 -9 -12 -6 -15 5 -69 -22 -81 -41 -5 -7 -18 -10 -32 -6
-16 4 -26 0 -34 -13 -6 -10 -11 -15 -11 -10 0 9 -59 -20 -78 -39 -7 -8 -17
-12 -22 -9 -4 3 -11 -2 -14 -11 -3 -8 -10 -12 -16 -9 -5 3 -10 1 -10 -5 0 -6
-4 -8 -10 -5 -14 8 -93 -30 -109 -54 -8 -11 -18 -18 -23 -15 -4 3 -8 0 -8 -7
0 -8 -5 -7 -17 2 -15 12 -16 12 -8 -1 8 -13 6 -13 -8 -2 -9 8 -21 11 -27 7 -6
-4 -18 -1 -27 7 -12 9 -15 9 -9 1 5 -9 0 -13 -16 -13 -17 0 -19 3 -9 9 11 7
10 11 -6 20 -11 5 -24 7 -28 3 -5 -4 -5 -2 -1 5 8 15 -30 38 -39 23 -9 -15
-25 -12 -25 6 0 8 -4 13 -9 9 -5 -3 -17 3 -27 12 -10 10 -20 18 -23 19 -3 0
-14 4 -24 9 -10 4 -21 5 -24 1 -3 -3 -11 2 -18 11 -9 13 -14 13 -20 3 -5 -9
-4 -11 3 -6 8 5 10 1 5 -10 -5 -15 -7 -14 -16 2 -18 31 -30 40 -78 54 -35 10
-46 18 -42 29 4 11 1 10 -9 -3 -14 -18 -15 -18 -30 2 -8 12 -18 19 -21 15 -4
-3 -7 -2 -7 4 0 5 -10 9 -22 8 -16 -1 -22 -8 -20 -21 2 -16 1 -16 -7 -4 -7 10
-5 20 5 32 14 15 14 16 -3 14 -10 -2 -24 5 -31 15 -13 19 -38 27 -27 10 3 -5
1 -13 -5 -16 -6 -4 -9 -1 -8 7 2 8 -7 13 -24 13 -14 -1 -24 4 -21 9 4 5 -1 7
-11 3 -13 -5 -17 -3 -13 6 3 8 -1 14 -8 14 -8 0 -11 -7 -8 -16 4 -11 1 -10 -9
3 -15 19 -16 19 -41 -1 -15 -11 -23 -24 -19 -29 4 -5 -2 -2 -13 6 -30 21 -32
24 -14 17 17 -5 59 17 59 32 0 11 -34 10 -41 -1 -3 -5 -9 -2 -12 7 -5 11 -3
14 6 10 6 -4 3 1 -7 9 -13 11 -22 12 -26 6 -4 -7 -11 -5 -20 5 -14 17 -35 21
-24 3 5 -7 3 -8 -5 -4 -7 5 -10 14 -7 22 3 8 1 14 -4 14 -6 0 -10 -8 -11 -17
0 -15 -2 -15 -7 -3 -7 15 -17 20 -65 28 -15 2 -27 6 -27 8 0 5 44 49 50 50 43
6 97 78 70 94 -7 4 -9 13 -6 19 4 6 2 11 -3 11 -6 0 -11 -4 -11 -8 0 -5 -7 -9
-15 -9 -8 0 -15 5 -15 11 0 7 -3 6 -8 -1 -4 -7 -22 -13 -39 -15 -27 -2 -30 -5
-20 -17 10 -12 9 -14 -5 -8 -10 3 -20 2 -23 -4 -4 -5 -11 -7 -16 -4 -5 3 -7 0
-4 -7 3 -8 -12 -19 -45 -30 -45 -14 -52 -14 -65 -1 -8 8 -13 18 -10 23 7 12
-43 18 -54 7 -8 -8 -11 -6 -11 7 0 13 -5 17 -20 13 -11 -3 -20 0 -20 6 0 7 -7
4 -14 -6 -9 -12 -16 -14 -21 -8 -3 6 -1 11 4 11 6 0 11 6 11 13 0 17 34 49 43
41 3 -4 22 1 40 10 19 8 43 17 53 19 11 2 32 9 48 16 16 6 39 13 50 14 12 1
24 6 28 11 3 5 13 11 22 12 8 1 30 10 48 19 44 23 235 100 273 110 17 5 33 9
38 10 15 5 17 5 21 3 2 -2 12 4 22 13 11 9 42 24 69 34 28 9 57 20 65 23 8 3
20 6 26 7 6 0 18 6 27 13 8 7 26 14 39 16 13 1 32 6 43 10 59 22 66 27 59 39
-5 9 -4 9 6 1 9 -9 23 -7 57 8 24 11 51 17 59 14 9 -3 12 -1 9 4 -3 6 -1 10 4
10 6 0 11 -4 11 -10 0 -5 9 -6 21 -1 12 4 44 3 70 -2 41 -8 51 -7 66 9 17 17
18 17 22 -1 2 -14 5 -15 12 -4z m189 -11 c0 -5 -5 -10 -11 -10 -5 0 -7 5 -4
10 3 6 8 10 11 10 2 0 4 -4 4 -10z m400 -200 c0 -5 -5 -10 -11 -10 -5 0 -7 5
-4 10 3 6 8 10 11 10 2 0 4 -4 4 -10z m-1956 -228 c3 -5 -1 -9 -9 -9 -8 0 -12
4 -9 9 3 4 7 8 9 8 2 0 6 -4 9 -8z m110 -58 c3 -8 2 -12 -4 -9 -6 3 -10 10
-10 16 0 14 7 11 14 -7z m-24 -14 c0 -5 -4 -10 -10 -10 -5 0 -6 -7 -3 -17 4
-11 3 -14 -5 -9 -7 4 -12 2 -12 -3 0 -6 -4 -11 -10 -11 -5 0 -1 13 8 30 17 30
32 39 32 20z m-76 -12 c-3 -4 -11 -5 -19 -1 -21 7 -19 12 4 10 11 0 18 -5 15
-9z m66 -68 c0 -5 -4 -10 -10 -10 -5 0 -10 5 -10 10 0 6 5 10 10 10 6 0 10 -4
10 -10z m587 -162 c-3 -8 -6 -5 -6 6 -1 11 2 17 5 13 3 -3 4 -12 1 -19z m423
-157 c0 -5 -7 -12 -16 -15 -14 -5 -15 -4 -4 9 14 17 20 19 20 6z m-115 -29
c-3 -3 -11 0 -18 7 -9 10 -8 11 6 5 10 -3 15 -9 12 -12z"/>
<path d="M2335 2589 c-10 -15 3 -25 16 -12 7 7 7 13 1 17 -6 3 -14 1 -17 -5z"/>
<path d="M1966 2102 c-3 -5 1 -9 9 -9 8 0 15 4 15 9 0 4 -4 8 -9 8 -6 0 -12
-4 -15 -8z"/>
<path d="M2782 959 c2 -6 8 -10 13 -10 5 0 11 4 13 10 2 6 -4 11 -13 11 -9 0
-15 -5 -13 -11z"/>
<path d="M1115 2320 c-11 -4 -28 -6 -39 -4 -10 1 -28 -1 -41 -6 -12 -4 -38
-11 -57 -14 -19 -3 -48 -11 -64 -17 -16 -7 -38 -12 -49 -13 -11 -1 -26 -5 -32
-9 -7 -5 -13 -5 -13 0 0 4 -4 3 -8 -2 -8 -12 -59 -37 -85 -42 -10 -2 -42 -14
-70 -27 -29 -13 -56 -24 -62 -25 -5 -1 -21 -9 -34 -18 -13 -8 -20 -10 -17 -4
12 19 -9 12 -24 -9 -10 -14 -16 -16 -22 -7 -7 11 -13 -11 -9 -38 1 -5 -5 -2
-13 8 -9 12 -16 14 -21 8 -3 -6 -2 -11 4 -11 10 0 5 -48 -9 -86 -5 -13 -5 -26
-1 -29 5 -3 7 -15 3 -27 -4 -16 -2 -19 9 -13 12 8 12 6 0 -8 -10 -13 -10 -17
-1 -17 9 0 8 -6 -3 -23 -9 -15 -12 -29 -7 -37 5 -9 4 -20 -2 -27 -6 -7 -6 -13
-1 -13 5 0 10 -12 11 -27 1 -16 7 -30 13 -31 6 -3 6 -9 -2 -18 -8 -10 -8 -18
-1 -27 7 -8 8 -18 1 -27 -8 -12 -9 -11 -7 4 2 10 -2 21 -9 23 -14 5 -6 -34 11
-56 8 -11 8 -13 -1 -7 -20 12 -15 -12 7 -34 26 -26 25 -34 -2 -19 -20 11 -21
10 -11 -3 7 -8 10 -18 6 -21 -9 -10 -13 -157 -4 -157 5 0 7 -11 6 -25 -2 -14
1 -25 6 -25 5 0 9 4 9 10 0 6 9 6 24 0 17 -6 29 -5 42 6 11 9 12 12 4 8 -8 -4
-12 -3 -8 1 5 5 20 10 35 11 14 2 29 7 32 12 3 4 44 18 91 30 46 13 87 27 90
32 3 5 17 10 32 12 15 2 30 7 34 11 4 4 17 7 29 7 12 0 25 3 29 7 4 4 17 8 29
9 37 3 122 28 129 39 4 5 8 7 8 2 0 -4 12 -1 28 7 15 8 41 16 57 19 17 2 47
11 67 20 20 8 39 12 43 9 3 -4 3 1 -1 11 -3 9 -1 17 4 17 6 0 10 12 8 28 -1
15 1 35 6 45 6 12 5 17 -7 17 -10 0 -13 4 -8 13 11 17 14 47 5 47 -4 0 -7 11
-7 24 0 15 5 22 13 19 6 -3 12 0 12 6 0 6 -5 11 -10 11 -7 0 -7 6 0 20 8 14 8
26 -1 41 -8 15 -8 19 0 15 16 -11 13 0 -6 19 -9 9 -12 20 -7 23 5 4 10 16 10
27 1 11 5 28 9 38 5 12 3 16 -7 12 -10 -4 -14 2 -14 19 0 14 4 22 8 20 4 -3 8
-1 8 5 0 5 -6 11 -12 14 -10 3 -10 7 1 20 7 9 11 24 7 32 -3 8 0 15 7 15 8 0
7 3 -2 9 -15 10 -23 51 -10 51 4 0 7 9 6 20 -1 11 -5 20 -10 20 -5 0 -6 -8 -3
-17 5 -15 4 -15 -9 1 -8 11 -15 25 -15 30 0 6 4 5 9 -3 12 -19 20 0 10 24 -5
13 -8 15 -8 5 -1 -9 -4 -11 -9 -5 -4 6 -18 11 -32 12 -14 1 -38 3 -55 6 -16 3
-39 1 -50 -3z m44 -111 c-12 -7 -12 -9 0 -9 10 0 11 -3 3 -13 -6 -7 -7 -18 -2
-27 4 -7 4 -24 -1 -37 -6 -17 -6 -22 2 -17 8 4 9 -1 4 -16 -4 -13 -3 -20 2
-17 5 4 10 0 10 -7 0 -8 -7 -12 -15 -8 -10 3 -13 1 -8 -6 4 -7 2 -12 -6 -12
-10 0 -10 -2 -1 -8 7 -4 10 -16 9 -27 -2 -11 1 -28 6 -39 7 -13 7 -16 -1 -12
-12 8 -10 -28 2 -40 4 -4 7 -14 6 -23 0 -12 -3 -11 -9 4 -6 14 -8 4 -7 -32 1
-29 5 -53 8 -53 4 0 6 -11 5 -25 0 -14 -4 -25 -8 -25 -5 0 -8 -5 -8 -11 0 -6
7 -8 16 -5 13 5 14 4 6 -7 -7 -7 -13 -24 -15 -37 -2 -13 -12 -25 -22 -26 -10
-1 -21 -7 -24 -13 -4 -5 -18 -12 -31 -15 -14 -2 -43 -11 -66 -19 -38 -14 -41
-14 -53 5 -7 11 -8 17 -2 13 6 -3 11 -1 11 4 0 6 -3 11 -8 11 -10 0 -9 92 2
109 6 10 6 12 -2 7 -7 -4 -12 -3 -12 3 0 5 5 13 10 16 16 10 12 28 -5 21 -20
-7 -19 4 2 19 15 11 15 15 4 29 -11 13 -11 16 0 16 11 0 11 2 -1 10 -13 9 -13
10 0 10 12 1 11 3 -3 11 -15 9 -16 13 -5 26 10 13 10 17 1 20 -7 3 -13 9 -13
14 0 4 7 6 15 3 8 -4 15 -1 15 5 0 6 -6 11 -12 11 -9 0 -10 3 -2 8 15 9 14 92
0 92 -8 0 -8 3 0 8 7 4 12 21 12 37 0 60 1 63 35 69 32 6 38 7 67 19 56 21 75
23 89 9 12 -12 12 -15 0 -23z m-319 -69 c9 -6 10 -10 3 -10 -6 0 -10 -8 -8
-19 2 -10 0 -35 -5 -55 -4 -20 -5 -36 -1 -36 5 0 7 -18 7 -39 -1 -22 2 -37 6
-35 5 3 8 0 8 -5 0 -6 -5 -11 -10 -11 -6 0 -4 -13 5 -30 14 -27 14 -31 0 -36
-21 -9 -19 -35 3 -28 16 5 16 5 0 -6 -16 -10 -17 -14 -3 -40 14 -27 14 -29 -2
-23 -16 6 -16 4 2 -17 18 -21 18 -23 2 -17 -14 5 -16 4 -8 -10 5 -10 5 -26 0
-41 -6 -15 -5 -31 2 -44 9 -16 8 -19 -3 -12 -11 6 -11 5 1 -9 8 -11 9 -17 3
-17 -6 0 -9 -7 -6 -15 4 -9 1 -15 -7 -15 -8 0 -26 -6 -41 -14 -15 -8 -42 -17
-60 -21 -18 -4 -52 -16 -76 -27 -24 -10 -52 -18 -63 -16 -17 3 -18 5 -5 31 8
15 12 27 8 27 -4 0 -7 14 -8 30 -1 17 3 30 7 30 5 0 4 12 -2 28 -15 37 -19 73
-8 66 5 -3 7 -9 4 -14 -3 -5 -2 -11 3 -14 5 -3 8 10 8 29 0 18 -5 31 -10 28
-5 -4 -7 11 -4 35 4 23 1 45 -5 51 -8 8 -8 11 2 11 7 0 9 5 6 10 -3 6 0 10 7
10 9 0 9 3 -2 10 -13 9 -13 10 0 10 11 1 10 4 -4 15 -11 8 -14 15 -7 15 7 0 9
5 6 10 -3 6 0 10 7 10 9 0 9 3 -2 10 -8 5 -10 10 -5 10 6 0 9 21 9 48 -1 26
-3 47 -4 47 -1 0 -3 8 -5 17 -4 21 5 27 42 34 15 3 34 10 41 17 14 11 37 17
77 20 11 1 26 8 33 15 16 14 41 15 62 2z m-363 -282 c-3 -8 -6 -5 -6 6 -1 11
2 17 5 13 3 -3 4 -12 1 -19z m98 -58 c3 -6 -1 -7 -9 -4 -18 7 -21 14 -7 14 6
0 13 -4 16 -10z m330 -19 c-9 -8 -36 -10 -30 -2 2 4 11 8 20 8 8 0 13 -3 10
-6z m49 -170 c-4 -3 -9 0 -11 7 -3 6 -10 9 -15 6 -7 -4 -8 -2 -4 5 6 9 11 9
22 0 8 -6 12 -15 8 -18z"/>
<path d="M827 1879 c7 -7 15 -10 18 -7 3 3 -2 9 -12 12 -14 6 -15 5 -6 -5z"/>
<path d="M2340 1956 c0 -3 9 -10 20 -16 11 -6 20 -8 20 -6 0 3 -9 10 -20 16
-11 6 -20 8 -20 6z"/>
<path d="M2370 1508 c0 -5 -8 -8 -18 -8 -24 0 -42 -19 -35 -38 4 -10 2 -13 -5
-8 -8 4 -8 -3 -2 -25 5 -18 7 -36 4 -40 -7 -13 46 -31 65 -23 9 4 22 6 29 5 8
-1 20 3 28 10 8 6 14 8 14 4 0 -4 7 -2 15 5 8 7 12 16 9 21 -3 5 -1 9 4 9 8 0
8 34 0 87 -2 13 -108 13 -108 1z"/>
<path d="M2265 850 c-3 -6 -17 -10 -31 -10 -13 0 -24 -4 -24 -9 0 -8 -32 -22
-55 -25 -5 -1 -18 -9 -28 -19 -10 -10 -22 -15 -27 -12 -5 3 -11 1 -15 -5 -4
-6 -11 -8 -16 -5 -5 4 -9 2 -9 -4 0 -6 -7 -7 -17 -4 -11 4 -14 3 -9 -5 5 -8 0
-12 -13 -12 -12 0 -21 -4 -21 -9 0 -5 -9 -7 -20 -4 -11 3 -20 0 -20 -6 0 -6
-7 -11 -15 -11 -8 0 -15 -5 -15 -11 0 -6 -7 -9 -15 -5 -9 3 -15 0 -15 -9 0 -9
6 -12 15 -9 8 4 15 2 15 -3 0 -12 -38 -14 -45 -2 -11 16 -21 10 -22 -13 0 -13
1 -17 4 -10 3 6 9 12 14 12 6 0 5 -8 -1 -20 -13 -25 5 -27 19 -2 10 16 12 16
24 0 9 -12 17 -14 24 -7 5 5 23 12 39 15 16 3 36 12 46 21 9 8 22 12 27 8 6
-3 11 -2 11 3 0 10 161 87 174 84 14 -4 66 19 66 29 0 5 3 8 8 8 64 -10 50 41
-15 54 -18 3 -35 2 -38 -3z"/>
<path d="M1848 800 c-15 -4 -30 -5 -34 -1 -4 3 -4 0 0 -6 7 -13 -4 -17 -31
-14 -12 2 -17 -11 -14 -32 1 -4 -8 -2 -18 5 -16 10 -23 9 -39 -5 -10 -9 -22
-14 -26 -10 -4 5 -6 -7 -3 -26 8 -47 24 -61 43 -37 8 12 14 15 14 7 0 -11 3
-11 15 -1 8 7 15 9 15 5 0 -5 8 -2 18 7 21 17 74 42 85 39 5 -1 6 3 3 8 -3 5
8 14 24 20 17 5 30 12 30 15 0 3 -7 3 -15 0 -8 -4 -15 -1 -15 5 0 6 6 11 13
11 8 0 7 4 -3 10 -17 11 -25 11 -62 0z m27 -20 c-3 -5 -12 -10 -18 -10 -7 0
-6 4 3 10 19 12 23 12 15 0z"/>
<path d="M1651 713 c-12 -13 -12 -16 0 -24 8 -5 10 -9 5 -9 -5 0 -3 -7 4 -15
7 -8 16 -12 22 -9 5 3 4 11 -2 19 -7 8 -9 18 -7 23 11 17 -8 30 -22 15z"/>
<path d="M944 704 c4 -10 4 -15 0 -11 -4 4 -13 2 -20 -4 -8 -7 -14 -6 -20 2
-4 7 -3 9 4 5 6 -3 13 -2 17 4 3 5 -3 10 -14 10 -11 0 -23 -5 -26 -10 -5 -8
-11 -7 -21 1 -11 9 -14 9 -14 -1 0 -7 -8 -10 -20 -7 -11 3 -20 1 -20 -3 0 -5
-8 -7 -17 -6 -10 2 -26 -7 -36 -18 -10 -12 -16 -16 -13 -10 3 6 -1 11 -8 11
-8 0 -12 -7 -8 -15 3 -10 1 -13 -6 -8 -6 3 -13 2 -16 -3 -4 -5 -1 -13 5 -16 5
-4 8 -14 5 -22 -4 -10 -2 -13 8 -10 11 4 13 1 9 -11 -6 -14 -4 -15 8 -5 8 6
29 10 47 9 18 -1 37 3 43 10 6 7 25 16 42 19 18 4 40 15 51 24 10 9 20 14 22
11 2 -3 11 7 19 22 13 26 12 29 -7 39 -18 10 -20 9 -14 -7z m-204 -86 c0 -6
-6 -5 -15 2 -8 7 -15 14 -15 16 0 2 7 1 15 -2 8 -4 15 -11 15 -16z"/>
<path d="M730 700 c0 -5 5 -10 11 -10 5 0 7 5 4 10 -3 6 -8 10 -11 10 -2 0 -4
-4 -4 -10z"/>
<path d="M1900 618 c-12 -22 -12 -22 6 -6 10 10 15 20 12 24 -4 3 -12 -5 -18
-18z"/>
</g>
</svg>
